<?xml version="1.0" encoding="UTF-8" standalone="no"?>
<svg
   width="75.669998mm"
   height="60.278mm"
   version="1.1"
   viewBox="0 0 75.669998 60.278001"
   xml:space="preserve"
   id="svg21"
   xmlns="http://www.w3.org/2000/svg"
   xmlns:svg="http://www.w3.org/2000/svg"><defs
     id="defs21" /><rect
     x="14.043"
     y="-0.40000001"
     width="4.3470001"
     height="61.077999"
     rx="1.5"
     ry="1.5"
     stroke="#ffffff"
     stroke-linecap="square"
     stroke-width="0.8"
     id="rect1"
     style="fill:#000000;fill-opacity:1" /><rect
     transform="rotate(55)"
     x="41.224815"
     y="-44.02454"
     width="4.3470001"
     height="4.3470001"
     stroke="#ffffff"
     stroke-linecap="square"
     stroke-width="0.8"
     id="rect11"
     style="fill:#000000;fill-opacity:1" /><rect
     transform="rotate(55)"
     x="41.224815"
     y="-38.877541"
     width="4.3470001"
     height="4.3470001"
     stroke="#ffffff"
     stroke-linecap="square"
     stroke-width="0.8"
     id="rect12"
     style="fill:#000000;fill-opacity:1" /><rect
     transform="rotate(55)"
     x="41.224815"
     y="-33.730537"
     width="4.3470001"
     height="4.3470001"
     stroke="#ffffff"
     stroke-linecap="square"
     stroke-width="0.8"
     id="rect13"
     style="fill:#000000;fill-opacity:1" /><rect
     transform="rotate(55)"
     x="41.224815"
     y="-23.436539"
     width="4.3470001"
     height="4.3470001"
     stroke="#ffffff"
     stroke-linecap="square"
     stroke-width="0.8"
     id="rect14"
     style="fill:#000000;fill-opacity:1" /><rect
     transform="rotate(55)"
     x="41.224815"
     y="-13.142539"
     width="4.3470001"
     height="4.3470001"
     stroke="#ffffff"
     stroke-linecap="square"
     stroke-width="0.8"
     id="rect15"
     style="fill:#000000;fill-opacity:1" /><rect
     transform="rotate(55)"
     x="41.224815"
     y="-7.9958396"
     width="4.3470001"
     height="4.3470001"
     stroke="#ffffff"
     stroke-linecap="square"
     stroke-width="0.8"
     id="rect16"
     style="fill:#000000;fill-opacity:1" /><rect
     transform="rotate(55)"
     x="41.224815"
     y="-18.289539"
     width="4.3470001"
     height="4.3470001"
     stroke="#ffffff"
     stroke-linecap="square"
     stroke-width="0.8"
     id="rect17"
     style="fill:#000000;fill-opacity:1" /><rect
     transform="rotate(55)"
     x="41.224815"
     y="-28.58354"
     width="4.3470001"
     height="4.3470001"
     stroke="#ffffff"
     stroke-linecap="square"
     stroke-width="0.8"
     id="rect18"
     style="fill:#000000;fill-opacity:1" /><path
     x="-44.658001"
     y="26.199995"
     width="4.3470001"
     height="4.3470001"
     d="m 64.74855,6.745245 0.838167,1.1970269 A 1.4432,1.4432 0 0 1 65.232302,9.952258 L 62.853648,11.617809 60.360312,8.056955 62.739539,6.3910022 A 1.4425,1.4425 0 0 1 64.74855,6.745245 Z"
     stroke="#ffffff"
     stroke-linecap="square"
     stroke-width="0.8"
     id="path18"
     style="fill:#000000;fill-opacity:1" /><path
     x="-44.658001"
     y="26.199995"
     width="4.3470001"
     height="4.3470001"
     d="M 24.084738,37.009 23.24657,35.811973 a 1.4432,1.4432 0 0 1 0.354415,-2.009986 l 2.378654,-1.665551 2.493337,3.560854 -2.379228,1.665953 A 1.4425,1.4425 0 0 1 24.084738,37.009 Z"
     stroke="#ffffff"
     stroke-linecap="square"
     stroke-width="0.8"
     id="path19"
     style="fill:#000000;fill-opacity:1" /><rect
     transform="rotate(55)"
     x="41.224815"
     y="2.2981603"
     width="4.3470001"
     height="25"
     rx="1.5"
     ry="1.5"
     stroke="#ffffff"
     stroke-linecap="square"
     stroke-width="0.8"
     id="rect19"
     style="fill:#000000;fill-opacity:1" /><path
     d="M 16.217,11.107 5.2700004,6.0033 l -2.5532,0.92936 0.92894,2.5541 8.0226996,3.7409 -8.0226996,3.7407 -0.92894,2.554 2.5532,0.93059 10.9469996,-5.1043 10.947,5.1043 2.5532,-0.93059 -0.92883,-2.554 -8.0227,-3.7407 8.0227,-3.7409 L 29.7172,6.93266 27.164,6.0033 16.217,11.107"
     id="path20"
     style="fill:#000000;fill-opacity:1" /><path
     d="m 18.946,13.228 8.3829,3.9094 -0.97388,2.0898 -10.138,-4.727 -10.1379996,4.727 -0.97455,-2.0898 L 13.48877,13.228 5.1044704,9.3184 6.0790204,7.2286 16.21702,11.956 26.35502,7.2286 27.3289,9.3184 18.946,13.228"
     fill="#ffffff"
     id="path21" /></svg>
