<?xml version="1.0" encoding="UTF-8" standalone="no"?>
<svg
   width="75.669998mm"
   height="60.278mm"
   version="1.1"
   viewBox="0 0 75.669998 60.278001"
   xml:space="preserve"
   id="svg21"
   xmlns="http://www.w3.org/2000/svg"
   xmlns:svg="http://www.w3.org/2000/svg"><defs
     id="defs21" /><rect
     x="14.043"
     y="-0.40000001"
     width="4.3470001"
     height="61.077999"
     rx="1.5"
     ry="1.5"
     stroke="#ffffff"
     stroke-linecap="square"
     stroke-width="0.8"
     id="rect1"
     style="fill:#000000;fill-opacity:1" /><rect
     transform="rotate(90)"
     x="39.511002"
     y="-70.922997"
     width="4.3470001"
     height="4.3470001"
     stroke="#ffffff"
     stroke-linecap="square"
     stroke-width="0.8"
     id="rect2"
     style="fill:#000000;fill-opacity:1" /><rect
     transform="rotate(90)"
     x="39.511002"
     y="-65.775993"
     width="4.3470001"
     height="4.3470001"
     stroke="#ffffff"
     stroke-linecap="square"
     stroke-width="0.8"
     id="rect3"
     style="fill:#000000;fill-opacity:1" /><rect
     transform="rotate(90)"
     x="39.511002"
     y="-60.629002"
     width="4.3470001"
     height="4.3470001"
     stroke="#ffffff"
     stroke-linecap="square"
     stroke-width="0.8"
     id="rect4"
     style="fill:#000000;fill-opacity:1" /><rect
     transform="rotate(90)"
     x="39.511002"
     y="-50.334999"
     width="4.3470001"
     height="4.3470001"
     stroke="#ffffff"
     stroke-linecap="square"
     stroke-width="0.8"
     id="rect5"
     style="fill:#000000;fill-opacity:1" /><rect
     transform="rotate(90)"
     x="39.511002"
     y="-40.041"
     width="4.3470001"
     height="4.3470001"
     stroke="#ffffff"
     stroke-linecap="square"
     stroke-width="0.8"
     id="rect6"
     style="fill:#000000;fill-opacity:1" /><rect
     transform="rotate(90)"
     x="39.511002"
     y="-34.894001"
     width="4.3470001"
     height="4.3470001"
     stroke="#ffffff"
     stroke-linecap="square"
     stroke-width="0.8"
     id="rect7"
     style="fill:#000000;fill-opacity:1" /><rect
     transform="rotate(90)"
     x="39.511002"
     y="-45.188"
     width="4.3470001"
     height="4.3470001"
     stroke="#ffffff"
     stroke-linecap="square"
     stroke-width="0.8"
     id="rect8"
     style="fill:#000000;fill-opacity:1" /><rect
     transform="rotate(90)"
     x="39.511002"
     y="-55.482002"
     width="4.3470001"
     height="4.3470001"
     stroke="#ffffff"
     stroke-linecap="square"
     stroke-width="0.8"
     id="rect9"
     style="fill:#000000;fill-opacity:1" /><path
     x="-44.658001"
     y="26.199995"
     width="4.3470001"
     height="4.3470001"
     d="m 76.0695,40.9525 v 1.4613 A 1.4432,1.4432 0 0 1 74.6263,43.857 H 71.7225 V 39.51 h 2.9045 a 1.4425,1.4425 0 0 1 1.4425,1.4425 z"
     stroke="#ffffff"
     stroke-linecap="square"
     stroke-width="0.8"
     id="path9"
     style="fill:#000000;fill-opacity:1" /><path
     x="-44.658001"
     y="26.199995"
     width="4.3470001"
     height="4.3470001"
     d="m 25.400008,42.416 v -1.4613 a 1.4432,1.4432 0 0 1 1.4432,-1.4432 h 2.9038 v 4.347 h -2.9045 a 1.4425,1.4425 0 0 1 -1.4425,-1.4425 z"
     stroke="#ffffff"
     stroke-linecap="square"
     stroke-width="0.8"
     id="path10"
     style="fill:#000000;fill-opacity:1" /><rect
     transform="rotate(90)"
     x="39.511002"
     y="-24.6"
     width="4.3470001"
     height="25"
     rx="1.5"
     ry="1.5"
     stroke="#ffffff"
     stroke-linecap="square"
     stroke-width="0.8"
     id="rect10"
     style="fill:#000000;fill-opacity:1" /><path
     d="M 16.217,11.107 5.2700004,6.0033 l -2.5532,0.92936 0.92894,2.5541 8.0226996,3.7409 -8.0226996,3.7407 -0.92894,2.554 2.5532,0.93059 10.9469996,-5.1043 10.947,5.1043 2.5532,-0.93059 -0.92883,-2.554 -8.0227,-3.7407 8.0227,-3.7409 L 29.7172,6.93266 27.164,6.0033 16.217,11.107"
     id="path20"
     style="fill:#000000;fill-opacity:1" /><path
     d="m 18.946,13.228 8.3829,3.9094 -0.97388,2.0898 -10.138,-4.727 -10.1379996,4.727 -0.97455,-2.0898 L 13.48877,13.228 5.1044704,9.3184 6.0790204,7.2286 16.21702,11.956 26.35502,7.2286 27.3289,9.3184 18.946,13.228"
     fill="#ffffff"
     id="path21" /></svg>
