<?xml version="1.0" encoding="UTF-8" standalone="no"?>
<svg
   height="20"
   viewBox="0 -960 560 800"
   width="14"
   fill="#000000"
   version="1.1"
   id="svg1"
   xmlns="http://www.w3.org/2000/svg"
   xmlns:svg="http://www.w3.org/2000/svg">
  <defs
     id="defs1" />
  <path
     d="m 200,-160 q -17,0 -28.5,-11.5 Q 160,-183 160,-200 v -40 h 240 v 40 q 0,17 -11.5,28.5 Q 377,-160 360,-160 Z"
     id="path4" />
  <path
     d="m 200,-320 q -33,0 -56.5,-23.5 Q 120,-367 120,-400 v -50 Q 63,-489 31.5,-550 0,-611 0,-680 0,-797 81.5,-878.5 163,-960 280,-960 q 117,0 198.5,81.5 81.5,81.5 81.5,198.5 0,69 -31.5,129.5 Q 497,-490 440,-450 v 50 q 0,33 -23.5,56.5 Q 393,-320 360,-320 Z m 0,-80 h 160 v -92 l 34,-24 q 41,-28 63.5,-71.5 Q 480,-631 480,-680 480,-763 421.5,-821.5 363,-880 280,-880 197,-880 138.5,-821.5 80,-763 80,-680 q 0,49 22.5,92.5 22.5,43.5 63.5,71.5 l 34,24 z"
     id="path1"
     style="fill:#000000;fill-opacity:1" />
</svg>
