<?xml version="1.0" encoding="UTF-8" standalone="no"?>
<svg
   width="241.38mm"
   height="45.471mm"
   version="1.1"
   viewBox="0 0 241.38 45.471"
   id="svg17"
   xmlns="http://www.w3.org/2000/svg"
   xmlns:svg="http://www.w3.org/2000/svg">
  <defs
     id="defs17" />
  <g
     transform="translate(-242.41 -504.82)"
     stroke="#000"
     stroke-linecap="round"
     stroke-linejoin="round"
     id="g11"
     style="fill:#000000;fill-opacity:1">
    <path
       d="m483.29 529.43c0-2.54-1.016-4.7413-2.9633-6.6463-1.905-1.8203-4.191-2.7517-6.7733-2.7517-2.7093 0-4.9953 0.97367-6.9003 2.8787-1.905 1.905-2.8363 4.191-2.8363 6.858 0 2.7093 0.93133 4.9953 2.8363 6.858 0.889 0.889 1.905 1.5663 3.0903 2.0743 1.1853 0.508 2.5823 0.762 4.2333 0.762s3.2597-0.508 4.8683-1.524c1.6087-1.016 2.794-2.4553 3.5983-4.2333h-3.3867c-0.67733 0.889-1.4817 1.5663-2.4553 2.0743-0.97366 0.508-1.9897 0.762-3.048 0.762-1.6087 0-3.048-0.55033-4.318-1.5663-1.27-1.0583-2.0743-2.3707-2.3283-3.937h16.383zm-3.1327-0.93133h-13.208c0.16933-0.80433 0.46567-1.524 0.889-2.2013 1.3547-2.2013 3.2597-3.302 5.715-3.302 1.5663 0 2.9633 0.508 4.191 1.524 1.27 1.0583 2.032 2.3707 2.413 3.9793z"
       id="path1"
       style="fill:#000000;fill-opacity:1" />
    <path
       d="m450.74 536.54c-0.71967-0.508-1.27-1.3547-1.5663-2.5823h-3.1327c0.635 3.8523 3.0903 5.7573 7.4083 5.7573 1.016 0 1.9473-0.0847 2.8363-0.33867 0.889-0.254 1.651-0.59267 2.3707-1.0583 1.4393-0.97367 2.159-2.4553 2.159-4.445 0-2.032-0.93133-3.4713-2.8787-4.4027-0.80433-0.381-1.6933-0.67733-2.667-0.889-0.93133-0.21167-1.8203-0.46567-2.6247-0.71967-0.84667-0.254-1.524-0.59266-2.0743-0.97366-0.55033-0.381-0.84666-0.97367-0.84666-1.8203 0-0.84666 0.33866-1.4817 1.016-1.8627 0.67733-0.42333 1.4817-0.59267 2.3707-0.59267 0.93133 0 1.7357 0.16934 2.3707 0.508 0.635 0.33867 1.143 1.016 1.4393 2.0743h3.175c-0.381-1.905-1.1853-3.2173-2.3707-3.937-1.2277-0.762-2.7093-1.1007-4.5297-1.1007-1.778 0-3.3443 0.46567-4.6567 1.397-1.27 0.97367-1.9473 2.3707-1.9473 4.2333 0 0.889 0.254 1.6933 0.71967 2.3707 0.508 0.71966 1.2277 1.27 2.159 1.6933 0.84666 0.381 1.7357 0.67733 2.667 0.93133 0.93133 0.21167 1.8203 0.46567 2.667 0.71967 1.905 0.635 2.8787 1.5663 2.8787 2.7517 0 2.032-1.3547 3.048-4.064 3.048-1.143 0-2.1167-0.254-2.8787-0.762z"
       id="path2"
       style="fill:#000000;fill-opacity:1" />
    <path
       d="m441.55 539.17v-18.627h-2.9633v18.627z"
       id="path3"
       style="fill:#000000;fill-opacity:1" />
    <path
       d="m441.38 514.1c-0.381-0.33867-0.84667-0.55033-1.3547-0.55033s-0.97366 0.21166-1.3123 0.55033c-0.381 0.381-0.55033 0.84667-0.55033 1.3547 0 0.50799 0.16933 0.97366 0.55033 1.3123 0.33867 0.381 0.80433 0.55033 1.3123 0.55033s0.97367-0.16933 1.3547-0.55033c0.33866-0.33867 0.55033-0.80434 0.55033-1.3123 0-0.508-0.21167-0.97367-0.55033-1.3547z"
       id="path4"
       style="fill:#000000;fill-opacity:1" />
    <path
       d="m429.7 539.08h2.9633v-11.642c0-2.0743-0.55033-3.81-1.5663-5.1647-0.508-0.67734-1.1853-1.1853-1.9473-1.6087-0.80433-0.42333-1.8627-0.635-3.175-0.635-1.27 0-2.413 0.381-3.3867 1.0583-0.889 0.67734-1.6087 1.4817-2.2013 2.4977-0.21167-0.46567-0.46567-0.889-0.762-1.3123-0.508-0.67734-1.1853-1.1853-1.9473-1.6087-0.80433-0.42333-1.8627-0.635-3.175-0.635-1.27 0-2.413 0.381-3.3867 1.0583-0.84666 0.635-1.524 1.397-2.1167 2.3707v-3.0057h-2.9633v18.627h2.9633v-9.525c0.16933-1.4817 0.55033-2.794 1.143-3.8523 0.46566-0.762 1.0583-1.4393 1.8203-1.9473s1.6087-0.762 2.4553-0.762c0.889 0 1.524 0.16934 1.9473 0.42334 1.2277 0.762 1.8203 2.1167 1.8203 4.0217v11.642h2.9633v-11.642-0.67733c0.127-0.381 0.29634-0.71967 0.46567-1.0583 0.46567-0.762 1.0583-1.4393 1.8203-1.9473s1.6087-0.762 2.4553-0.762c0.889 0 1.524 0.16934 1.9473 0.42334 1.2277 0.762 1.8203 2.1167 1.8203 4.0217z"
       id="path5"
       style="fill:#000000;fill-opacity:1" />
    <path
       d="m401.21 529.43c0-2.54-1.016-4.7413-2.9633-6.6463-1.905-1.8203-4.191-2.7517-6.7733-2.7517-2.7093 0-4.9953 0.97367-6.9003 2.8787-1.905 1.905-2.8363 4.191-2.8363 6.858 0 2.7093 0.93134 4.9953 2.8363 6.858 0.889 0.889 1.905 1.5663 3.0903 2.0743 1.1853 0.508 2.5823 0.762 4.2333 0.762s3.2597-0.508 4.8683-1.524c1.6087-1.016 2.794-2.4553 3.5983-4.2333h-3.3867c-0.67733 0.889-1.4817 1.5663-2.4553 2.0743-0.97366 0.508-1.9897 0.762-3.048 0.762-1.6087 0-3.048-0.55033-4.318-1.5663-1.27-1.0583-2.0743-2.3707-2.3283-3.937h16.383zm-3.1327-0.93133h-13.208c0.16933-0.80433 0.46567-1.524 0.889-2.2013 1.3547-2.2013 3.2597-3.302 5.715-3.302 1.5663 0 2.9633 0.508 4.191 1.524 1.27 1.0583 2.032 2.3707 2.413 3.9793z"
       id="path6"
       style="fill:#000000;fill-opacity:1" />
    <path
       d="m362.94 524.94v-11.726h6.6887c1.7357 0 3.1327 0.55033 4.191 1.651 1.016 1.1007 1.5663 2.4553 1.5663 4.1487s-0.55033 3.0903-1.651 4.2333c-1.1007 1.143-2.4553 1.6933-4.1063 1.6933zm15.409-5.8843c0-2.4553-0.93133-4.572-2.7093-6.223-1.7357-1.6087-3.8947-2.4553-6.4347-2.4553h-9.2287v28.787h2.9633v-11.388h3.429l8.4667 11.388h3.9793l-8.89-11.388c2.2437-0.127 4.1487-0.93134 5.715-2.413 1.778-1.651 2.7093-3.7677 2.7093-6.3077z"
       id="path7"
       style="fill:#000000;fill-opacity:1" />
    <path
       d="m349.52 548.69h2.3283v-40.217h-2.3283z"
       id="path8"
       style="fill:#000000;fill-opacity:1" />
    <path
       d="m339.02 539.17h2.9633v-11.642c0-2.159-0.59267-3.8947-1.6933-5.207-0.59267-0.67733-1.27-1.1853-2.0743-1.5663-0.84666-0.381-1.905-0.59267-3.2173-0.59267-1.3547 0-2.4977 0.381-3.5137 1.0583-0.97367 0.635-1.778 1.4817-2.3707 2.54v-3.2173h-2.9633v18.627h2.9633v-7.7893c0-2.3707 0.42334-4.2333 1.3123-5.6303 0.508-0.762 1.143-1.397 1.9473-1.8627 0.762-0.508 1.8203-0.71966 3.0903-0.71966s2.159 0.42333 2.7093 1.27c0.55033 0.84666 0.84667 1.905 0.84667 3.1327z"
       id="path9"
       style="fill:#000000;fill-opacity:1" />
    <path
       d="m321.28 529.43c0-2.54-1.016-4.7413-2.9633-6.6463-1.905-1.8203-4.191-2.7517-6.7733-2.7517-2.7093 0-4.9953 0.97367-6.9003 2.8787-1.905 1.905-2.8363 4.191-2.8363 6.858 0 2.7093 0.93133 4.9953 2.8363 6.858 0.889 0.889 1.905 1.5663 3.0903 2.0743s2.5823 0.762 4.2333 0.762 3.2597-0.508 4.8683-1.524 2.794-2.4553 3.5983-4.2333h-3.3867c-0.67734 0.889-1.4817 1.5663-2.4553 2.0743-0.97367 0.508-1.9897 0.762-3.048 0.762-1.6087 0-3.048-0.55033-4.318-1.5663-1.27-1.0583-2.0743-2.3707-2.3283-3.937h16.383zm-3.1327-0.93133h-13.208c0.16934-0.80433 0.46567-1.524 0.889-2.2013 1.3547-2.2013 3.2597-3.302 5.715-3.302 1.5663 0 2.9633 0.508 4.191 1.524 1.27 1.0583 2.032 2.3707 2.413 3.9793z"
       id="path10"
       style="fill:#000000;fill-opacity:1" />
    <path
       d="m281.91 549.75v-13.758c0.127 0.254 0.33867 0.46566 0.508 0.635 1.778 1.9897 3.937 2.9633 6.5193 2.9633 2.54 0 4.699-0.97367 6.477-2.9633 1.6933-1.905 2.5823-4.1487 2.5823-6.731 0-2.6247-0.889-4.8683-2.5823-6.7733-1.778-1.9897-3.937-2.9633-6.477-2.9633-2.5823 0-4.7413 0.97367-6.5193 2.9633-0.16933 0.16934-0.381 0.381-0.508 0.635v-3.175h-2.9633v29.21zm13.123-19.854c0 1.778-0.63499 3.3867-1.905 4.7413-1.27 1.3547-2.8363 2.032-4.6567 2.032-1.8627 0-3.429-0.67733-4.699-2.032-1.27-1.3547-1.8627-2.9633-1.8627-4.7413 0-1.8203 0.59267-3.429 1.8627-4.7413 1.27-1.3547 2.8363-2.032 4.699-2.032 1.8203 0 3.3867 0.67734 4.6567 2.032 1.27 1.3123 1.905 2.921 1.905 4.7413z"
       id="path11"
       style="fill:#000000;fill-opacity:1" />
  </g>
  <g
     transform="translate(-.00011334 -.10681)"
     id="g17"
     style="fill:#000000;fill-opacity:1">
    <g
       id="g16"
       style="fill:#000000;fill-opacity:1">
      <g
         stroke-width=".26458"
         id="g14"
         style="fill:#000000;fill-opacity:1">
        <path
           d="m31.173 3.8743h-30.62a0.55348 1.3837 0 0 1 0-2.7674h30.62a0.55348 1.3837 0 0 1 0 2.7674z"
           id="path12"
           style="fill:#000000;fill-opacity:1" />
        <path
           d="m7.4725 10.075a1.3834 0.55315 0 0 1-1.3842-0.55348v-6.2007a1.3842 0.55348 0 0 1 2.7685 0v6.2007a1.3834 0.55315 0 0 1-1.3842 0.55348z"
           id="path13"
           style="fill:#000000;fill-opacity:1" />
        <path
           d="m25.738 10.094a1.3834 0.55315 0 0 1-1.3842-0.55348v-6.2201a1.3842 0.55348 0 0 1 2.7685 0v6.2201a1.3834 0.55316 0 0 1-1.3842 0.55348z"
           id="path14"
           style="fill:#000000;fill-opacity:1" />
      </g>
      <path
         transform="translate(-242.41 -504.71)"
         d="m270.91 524.69c0 3.302-1.1853 6.096-3.4713 8.382-2.3283 2.3283-5.1223 3.4713-8.382 3.4713-3.2597 0-6.0537-1.143-8.382-3.4713-2.286-2.286-3.4713-5.08-3.4713-8.382 0-3.2173 1.1853-6.0113 3.4713-8.3397 2.3283-2.286 5.1223-3.4713 8.382-3.4713 3.2597 0 6.0537 1.1853 8.382 3.4713 2.286 2.3283 3.4713 5.1223 3.4713 8.3397zm2.9633 0c0-2.032-0.42333-3.937-1.1853-5.7573-0.762-1.778-1.8203-3.3443-3.175-4.699-1.3547-1.3123-2.921-2.3707-4.7413-3.1327-1.778-0.762-3.7253-1.143-5.7573-1.143-2.032 0-3.937 0.381-5.715 1.143-1.778 0.76199-3.3443 1.8203-4.699 3.1327-1.3547 1.3547-2.413 2.921-3.175 4.699-0.762 1.8203-1.1853 3.7253-1.1853 5.7573 0 2.032 0.42334 3.9793 1.1853 5.7573 0.76199 1.8203 1.8203 3.3867 3.175 4.7413 1.3547 1.3547 2.921 2.413 4.699 3.175s3.683 1.1853 5.715 1.1853c2.032 0 3.9793-0.42333 5.7573-1.1853 1.8203-0.762 3.3867-1.8203 4.7413-3.175 1.3547-1.3547 2.413-2.921 3.175-4.7413 0.762-1.778 1.1853-3.7253 1.1853-5.7573z"
         stroke="#000"
         stroke-linecap="round"
         stroke-linejoin="round"
         id="path15"
         style="fill:#000000;fill-opacity:1" />
      <path
         transform="translate(-242.41 -504.71)"
         d="m276.56 505.87c-0.381-0.33867-0.84667-0.55033-1.3547-0.55033s-0.97366 0.21166-1.3123 0.55033c-0.381 0.381-0.55033 0.84667-0.55033 1.3547 0 0.50799 0.16933 0.97366 0.55033 1.3123 0.33867 0.381 0.80433 0.55033 1.3123 0.55033s0.97367-0.16933 1.3547-0.55033c0.33866-0.33867 0.55033-0.80434 0.55033-1.3123 0-0.508-0.21167-0.97367-0.55033-1.3547z"
         stroke="#000"
         stroke-linecap="round"
         stroke-linejoin="round"
         id="path16"
         style="fill:#000000;fill-opacity:1" />
    </g>
    <path
       d="m16.643 11.909c-3.7651 0-6.8456 0.42785-6.8456 3.4228v8.1291c0 1.6258 1.3691 2.9949 2.9949 2.9949l-1.2835 1.2835v0.42785h10.268v-0.42785l-1.2835-1.2835c1.6258 0 2.9949-1.3691 2.9949-2.9949v-8.1291c0-2.9949-3.0805-3.4228-6.8456-3.4228zm-3.8506 12.835c-0.68456 0-1.2835-0.59899-1.2835-1.2835s0.59899-1.2835 1.2835-1.2835 1.2835 0.59899 1.2835 1.2835-0.59899 1.2835-1.2835 1.2835zm2.9949-5.1342h-4.2785v-4.2785h4.2785zm4.7063 5.1342c-0.68456 0-1.2835-0.59899-1.2835-1.2835s0.59899-1.2835 1.2835-1.2835 1.2835 0.59899 1.2835 1.2835-0.59899 1.2835-1.2835 1.2835zm1.2835-5.1342h-4.2785v-4.2785h4.2785z"
       stroke-width=".26458"
       id="path17"
       style="fill:#000000;fill-opacity:1" />
  </g>
</svg>
