<?xml version="1.0" encoding="UTF-8" standalone="no"?>
<!-- Created with Inkscape (http://www.inkscape.org/) -->

<svg
   width="57.463818"
   height="88.582619"
   id="svg3047"
   version="1.1"
   xmlns="http://www.w3.org/2000/svg"
   xmlns:svg="http://www.w3.org/2000/svg"
   xmlns:rdf="http://www.w3.org/1999/02/22-rdf-syntax-ns#"
   xmlns:cc="http://creativecommons.org/ns#"
   xmlns:dc="http://purl.org/dc/elements/1.1/">
  <defs
     id="defs3049" />
  <metadata
     id="metadata3052">
    <rdf:RDF>
      <cc:Work
         rdf:about="">
        <dc:format>image/svg+xml</dc:format>
        <dc:type
           rdf:resource="http://purl.org/dc/dcmitype/StillImage" />
      </cc:Work>
    </rdf:RDF>
  </metadata>
  <path
     id="path4009"
     style="fill:none;stroke:#000000;stroke-width:3.5433;stroke-linecap:square;stroke-linejoin:round;stroke-miterlimit:4;stroke-dasharray:none;stroke-opacity:1"
     d="m 1.77165,86.81097 v -7.08662 c 16.46558,-0.042 16.46558,-14.21532 0,-14.19428 16.4656,-0.021 16.4656,-14.19426 0.0586,-14.15244 16.52408,-2.6e-4 16.52408,-14.1735 0,-14.13114 16.40708,2.8e-4 16.40708,-14.17296 -0.0586,-14.194 16.46558,-0.0632 0,-0.021 0,-0.021 16.46558,-0.042 16.46558,-14.21532 0,-14.21532 V 1.77165" />
  <path
     style="fill:none;stroke:#000000;stroke-width:5.2;stroke-linecap:butt;stroke-linejoin:miter;stroke-miterlimit:4;stroke-dasharray:none;stroke-dashoffset:0;stroke-opacity:1"
     d="M 23.08167,8.86565 22.86303,79.72453"
     id="path4011" />
  <path
     id="path1307"
     style="fill:#ffffff;fill-opacity:1;fill-rule:evenodd;stroke:#000000;stroke-width:3.54331;stroke-linecap:butt;stroke-linejoin:miter;stroke-miterlimit:4;stroke-dasharray:none;stroke-dashoffset:0;stroke-opacity:1"
     d="m 40.38563,38.413487 a 5.1563855,5.1563855 0 1 1 0,-10.312771 5.1563855,5.1563855 0 1 1 0,10.312771 z" />
  <path
     id="path2184"
     style="color:#000000;display:inline;overflow:visible;visibility:visible;fill:none;stroke:#000000;stroke-width:3.5433;stroke-linecap:butt;stroke-linejoin:round;stroke-miterlimit:4;stroke-dasharray:none;stroke-dashoffset:0;stroke-opacity:1;marker:none"
     d="M 40.385594,62.295217 V 87.391098" />
  <path
     id="path3059"
     style="color:#000000;display:inline;overflow:visible;visibility:visible;fill:none;stroke:#000000;stroke-width:3.5433;stroke-linecap:butt;stroke-linejoin:round;stroke-miterlimit:4;stroke-dasharray:none;stroke-dashoffset:0;stroke-opacity:1;marker:none"
     d="M 40.385594,1.191512 V 27.352297" />
  <path
     id="path3061"
     style="color:#000000;display:inline;overflow:visible;visibility:visible;fill:none;stroke:#000000;stroke-width:3.5433;stroke-linecap:butt;stroke-linejoin:round;stroke-miterlimit:4;stroke-dasharray:none;stroke-dashoffset:0;stroke-opacity:1;marker:none"
     d="M 55.981493,33.231399 39.486223,58.431448" />
  <path
     id="path2182"
     style="fill:#ffffff;fill-opacity:1;fill-rule:evenodd;stroke:#000000;stroke-width:3.54331;stroke-linecap:butt;stroke-linejoin:miter;stroke-miterlimit:4;stroke-dasharray:none;stroke-dashoffset:0;stroke-opacity:1"
     d="m 40.38563,62.19876 a 5.1563855,5.1563855 0 1 1 0,-10.312771 5.1563855,5.1563855 0 1 1 0,10.312771 z" />
</svg>
