<svg width="1360.6" height="453.55" version="1.1" viewBox="0 0 1360.6 453.55" xml:space="preserve" xmlns="http://www.w3.org/2000/svg"><g transform="matrix(1.3333 0 0 -1.3333 0 453.55)"><g transform="scale(.1)"><g transform="scale(10)"><path transform="matrix(1 0 0 -1 26.512 54.001)" d="m88.176-20.708q6.68 0 13.694-1.002 7.014-1.336 11.356-2.672v22.378q-4.676 2.338-13.36 3.674-8.684 1.67-16.7 1.67-14.028 0-26.052-4.676-11.69-5.01-19.038-17.034t-7.348-33.734v-104.21h-25.384v-14.028l25.718-11.69 11.69-38.076h17.368v41.082h51.77v22.712h-51.77v103.54q0 16.366 7.682 24.382 8.016 7.682 20.374 7.682zm119.57-161.32q32.732 0 48.43 14.362t15.698 45.758v121.91h-21.376l-5.678-25.384h-1.336q-11.69 14.696-24.716 21.71-12.692 7.014-35.404 7.014-24.382 0-40.414-12.692-16.032-13.026-16.032-40.414 0-26.72 21.042-41.082 21.042-14.696 64.796-16.032l30.394-1.002v-10.688q0-22.378-9.686-31.062t-27.388-8.684q-14.028 0-26.72 4.342-12.692 4.008-23.714 9.352l-9.018-22.044q11.69-6.346 27.722-10.688 16.032-4.676 33.4-4.676zm8.684 95.524q-33.4 1.336-46.426 10.688-12.692 9.352-12.692 26.386 0 15.03 9.018 22.044 9.352 7.014 23.714 7.014 22.712 0 37.742-12.358 15.03-12.692 15.03-38.744v-16.032zm295.25-95.858q30.394 0 45.424 15.698 15.03 15.364 15.03 50.1v116.57h-29.058v-115.23q0-42.418-36.406-42.418-26.052 0-37.408 15.03-11.022 15.03-11.022 43.754v98.864h-29.058v-115.23q0-42.418-36.74-42.418-27.054 0-37.408 16.7t-10.354 48.096v92.852h-29.392v-179.02h23.714l4.342 24.382h1.67q8.35-14.028 22.378-20.708 14.362-7.014 30.394-7.014 42.084 0 54.776 30.06h1.67q9.018-15.364 24.382-22.712 15.698-7.348 33.066-7.348zm200.72 132.93q0 26.052-19.372 39.412t-52.104 13.36q-18.704 0-32.398-3.006-13.36-3.006-23.714-8.35v-26.72q10.688 5.344 25.718 10.02 15.364 4.342 31.062 4.342 22.378 0 32.398-7.014 10.02-7.348 10.02-19.372 0-6.68-3.674-12.024t-13.36-10.688q-9.352-5.344-27.054-12.024-17.368-6.68-29.726-13.36t-19.038-16.032-6.68-24.048q0-22.712 18.37-35.07 18.704-12.358 48.764-12.358 16.366 0 30.394 3.34 14.362 3.006 26.72 8.684l-10.02 23.38q-11.356-4.676-23.714-8.016t-25.384-3.34q-18.036 0-27.722 6.012-9.352 5.678-9.352 15.698 0 7.348 4.342 12.692 4.342 5.01 14.362 10.02 10.354 4.676 27.388 11.356 17.034 6.346 29.058 13.026t18.37 16.366q6.346 9.352 6.346 23.714z" fill="#deddde" aria-label="tams"/>
</g><path d="m1632.7 1058.1h278v198.58h-278z" fill="#deddde" fill-rule="evenodd"/><g transform="scale(10)" fill="#626262"><path transform="matrix(1 0 0 -1 90.205 99.157)" d="m34.32-8.06q2.6 0 5.33-0.39 2.73-0.52 4.42-1.04v8.71q-1.82 0.91-5.2 1.43-3.38 0.65-6.5 0.65-5.46 0-10.14-1.82-4.55-1.95-7.41-6.63t-2.86-13.13v-40.56h-9.88v-5.46l10.01-4.55 4.55-14.82h6.76v15.99h20.15v8.84h-20.15v40.3q0 6.37 2.99 9.49 3.12 2.99 7.93 2.99z" aria-label="t"/>
<path transform="matrix(1 0 0 -1 133.69 99.157)" d="m37.44-70.85q12.74 0 18.85 5.59t6.11 17.81v47.45h-8.32l-2.21-9.88h-0.52q-4.55 5.72-9.62 8.45-4.94 2.73-13.78 2.73-9.49 0-15.73-4.94-6.24-5.07-6.24-15.73 0-10.4 8.19-15.99 8.19-5.72 25.22-6.24l11.83-0.39v-4.16q0-8.71-3.77-12.09t-10.66-3.38q-5.46 0-10.4 1.69-4.94 1.56-9.23 3.64l-3.51-8.58q4.55-2.47 10.79-4.16 6.24-1.82 13-1.82zm3.38 37.18q-13 0.52-18.07 4.16-4.94 3.64-4.94 10.27 0 5.85 3.51 8.58 3.64 2.73 9.23 2.73 8.84 0 14.69-4.81 5.85-4.94 5.85-15.08v-6.24z" aria-label="a"/>
<path transform="matrix(1 0 0 -1 201.92 99.157)" d="m87.49-70.98q11.83 0 17.68 6.11 5.85 5.98 5.85 19.5v45.37h-11.31v-44.85q0-16.51-14.17-16.51-10.14 0-14.56 5.85-4.29 5.85-4.29 17.03v38.48h-11.31v-44.85q0-16.51-14.3-16.51-10.53 0-14.56 6.5t-4.03 18.72v36.14h-11.44v-69.68h9.23l1.69 9.49h0.65q3.25-5.46 8.71-8.06 5.59-2.73 11.83-2.73 16.38 0 21.32 11.7h0.65q3.51-5.98 9.49-8.84 6.11-2.86 12.87-2.86zm78.126 51.74q0 10.14-7.54 15.34t-20.28 5.2q-7.28 0-12.61-1.17-5.2-1.17-9.23-3.25v-10.4q4.16 2.08 10.01 3.9 5.98 1.69 12.09 1.69 8.71 0 12.61-2.73 3.9-2.86 3.9-7.54 0-2.6-1.43-4.68t-5.2-4.16q-3.64-2.08-10.53-4.68-6.76-2.6-11.57-5.2t-7.41-6.24-2.6-9.36q0-8.84 7.15-13.65 7.28-4.81 18.98-4.81 6.37 0 11.83 1.3 5.59 1.17 10.4 3.38l-3.9 9.1q-4.42-1.82-9.23-3.12t-9.88-1.3q-7.02 0-10.79 2.34-3.64 2.21-3.64 6.11 0 2.86 1.69 4.94 1.69 1.95 5.59 3.9 4.03 1.82 10.66 4.42 6.63 2.47 11.31 5.07t7.15 6.37q2.47 3.64 2.47 9.23z" aria-label="ms"/>
<path transform="matrix(1 0 0 -1 429.45 99.157)" d="m37.96-70.98q8.97 0 15.34 3.9 6.5 3.9 9.88 11.05 3.51 7.02 3.51 16.51v6.89h-47.71q0.26 11.83 5.98 18.07 5.85 6.11 16.25 6.11 6.63 0 11.7-1.17 5.2-1.3 10.66-3.64v10.01q-5.33 2.34-10.53 3.38-5.2 1.17-12.35 1.17-9.88 0-17.55-4.03-7.54-4.03-11.83-11.96-4.16-8.06-4.16-19.63 0-11.44 3.77-19.63 3.9-8.19 10.79-12.61 7.02-4.42 16.25-4.42zm-0.13 9.36q-8.19 0-13 5.33-4.68 5.2-5.59 14.56h35.49q-0.13-8.84-4.16-14.3-4.03-5.59-12.74-5.59zm53.037 61.62h-11.44v-98.8h11.44zm45.239-70.98q8.97 0 15.34 3.9 6.5 3.9 9.88 11.05 3.51 7.02 3.51 16.51v6.89h-47.71q0.26 11.83 5.98 18.07 5.85 6.11 16.25 6.11 6.63 0 11.7-1.17 5.2-1.3 10.66-3.64v10.01q-5.33 2.34-10.53 3.38-5.2 1.17-12.35 1.17-9.88 0-17.55-4.03-7.54-4.03-11.83-11.96-4.16-8.06-4.16-19.63 0-11.44 3.77-19.63 3.9-8.19 10.79-12.61 7.02-4.42 16.25-4.42zm-0.13 9.36q-8.19 0-13 5.33-4.68 5.2-5.59 14.56h35.49q-0.13-8.84-4.16-14.3-4.03-5.59-12.74-5.59zm52.907 14.43q0 2.08-0.26 5.46-0.13 3.38-0.26 5.85h0.52q0.78-1.04 2.34-2.99t3.12-3.9q1.69-2.08 2.86-3.38l22.23-23.53h13.39l-28.21 29.77 30.16 39.91h-13.78l-24.18-32.5-7.93 6.89v25.61h-11.31v-98.8h11.31zm76.698 39.13q2.6 0 5.33-0.39 2.73-0.52 4.42-1.04v8.71q-1.82 0.91-5.2 1.43-3.38 0.65-6.5 0.65-5.46 0-10.14-1.82-4.55-1.95-7.41-6.63t-2.86-13.13v-40.56h-9.88v-5.46l10.01-4.55 4.55-14.82h6.76v15.99h20.15v8.84h-20.15v40.3q0 6.37 2.99 9.49 3.12 2.99 7.93 2.99zm52.648-62.92q1.95 0 4.16 0.26 2.34 0.13 4.03 0.52l-1.43 10.53q-1.69-0.39-3.77-0.65-1.95-0.26-3.77-0.26-5.33 0-10.01 2.99-4.68 2.86-7.54 8.19-2.73 5.2-2.73 12.22v37.18h-11.44v-69.68h9.36l1.3 12.74h0.52q3.38-5.72 8.71-9.88t12.61-4.16zm74.243 36.01q0 17.29-8.84 26.78-8.71 9.49-23.66 9.49-9.23 0-16.51-4.16-7.15-4.29-11.31-12.35-4.16-8.19-4.16-19.76 0-17.29 8.71-26.65t23.66-9.36q9.49 0 16.64 4.29 7.28 4.16 11.31 12.22 4.16 7.93 4.16 19.5zm-52.65 0q0 12.35 4.81 19.63 4.94 7.15 15.6 7.15 10.53 0 15.47-7.15 4.94-7.28 4.94-19.63t-4.94-19.37-15.6-7.02-15.47 7.02-4.81 19.37zm96.197-36.01q12.48 0 18.85 6.11 6.37 5.98 6.37 19.5v45.37h-11.31v-44.59q0-16.77-15.6-16.77-11.57 0-15.99 6.5t-4.42 18.72v36.14h-11.44v-69.68h9.23l1.69 9.49h0.65q3.38-5.46 9.36-8.06 5.98-2.73 12.61-2.73zm44.847-24.83q2.6 0 4.55 1.82 2.08 1.69 2.08 5.46 0 3.64-2.08 5.46-1.95 1.82-4.55 1.82-2.86 0-4.81-1.82t-1.95-5.46q0-3.77 1.95-5.46 1.95-1.82 4.81-1.82zm5.59 26.13v69.68h-11.44v-69.68zm29.639 22.49q0 2.08-0.26 5.46-0.13 3.38-0.26 5.85h0.52q0.78-1.04 2.34-2.99t3.12-3.9q1.69-2.08 2.86-3.38l22.23-23.53h13.39l-28.21 29.77 30.16 39.91h-13.78l-24.18-32.5-7.93 6.89v25.61h-11.31v-98.8h11.31z" aria-label="elektronik"/>
</g><g fill="#626262" fill-rule="evenodd"><path d="m7736.6 504.27h291.98v296.12h-291.98z"/><path d="m8678.4 504.27h291.97v296.12h-291.97z"/><path d="m9620.1 504.27h291.97v296.12h-291.97z"/></g></g></g></svg>
