<?xml version="1.0" encoding="UTF-8" standalone="no"?>
<svg
   xmlns:dc="http://purl.org/dc/elements/1.1/"
   xmlns:cc="http://creativecommons.org/ns#"
   xmlns:rdf="http://www.w3.org/1999/02/22-rdf-syntax-ns#"
   xmlns:svg="http://www.w3.org/2000/svg"
   xmlns="http://www.w3.org/2000/svg"
   xmlns:xlink="http://www.w3.org/1999/xlink"
   xmlns:sodipodi="http://sodipodi.sourceforge.net/DTD/sodipodi-0.dtd"
   xmlns:inkscape="http://www.inkscape.org/namespaces/inkscape"
   version="1.1"
   viewBox="0 0 63.999998 57.800001"
   enable-background="new 0 0 410.7 63.1"
   id="svg2"
   inkscape:version="0.91 r13725"
   sodipodi:docname="decoderdb-logo-favicon.svg"
   width="64"
   height="57.799999">
  <sodipodi:namedview
     pagecolor="#ffffff"
     bordercolor="#666666"
     borderopacity="1"
     objecttolerance="10"
     gridtolerance="10"
     guidetolerance="10"
     inkscape:pageopacity="0"
     inkscape:pageshadow="2"
     inkscape:window-width="1335"
     inkscape:window-height="931"
     id="namedview14"
     showgrid="false"
     inkscape:zoom="3.4088141"
     inkscape:cx="44.554407"
     inkscape:cy="29.349999"
     inkscape:window-x="541"
     inkscape:window-y="181"
     inkscape:window-maximized="0"
     inkscape:current-layer="svg2"
     fit-margin-top="0"
     fit-margin-left="0"
     fit-margin-right="0"
     fit-margin-bottom="0" />
  <metadata
     id="metadata33">
    <rdf:RDF>
      <cc:Work
         rdf:about="">
        <dc:format>image/svg+xml</dc:format>
        <dc:type
           rdf:resource="http://purl.org/dc/dcmitype/StillImage" />
        <dc:title></dc:title>
      </cc:Work>
    </rdf:RDF>
  </metadata>
  <defs
     id="defs31">
    <clipPath
       id="SVGID_4_">
      <use
         id="use25"
         xlink:href="#SVGID_3_"
         x="0"
         y="0"
         width="100%"
         height="100%" />
    </clipPath>
    <clipPath
       id="SVGID_2_">
      <use
         id="use11"
         xlink:href="#SVGID_1_"
         x="0"
         y="0"
         width="100%"
         height="100%" />
    </clipPath>
    <rect
       height="58.099998"
       width="406.29999"
       y="2.8"
       x="1.8"
       id="SVGID_3_" />
    <rect
       height="58.099998"
       width="406.29999"
       y="2.8"
       x="1.8"
       id="SVGID_1_" />
  </defs>
  <path
     inkscape:connector-curvature="0"
     clip-path="url(#SVGID_2_)"
     id="path13"
     d="m 26.6,3.0999985 c 0,0 -12,0 -15.2,11.9999995 l -9.2,34 c 0,0 -3.2,12 8.8,12 l 34,0 c 0,0 11.8,0 15,-12 l 9,-34 c 0,0 3,-11.9999995 -9,-11.9999995 z"
     style="fill:#0080c8"
     sodipodi:nodetypes="cccscccsc"
     inkscape:export-xdpi="435.94"
     inkscape:export-ydpi="435.94"
     transform="matrix(0.94786058,0,0,1,-1.7183333,-3.0999985)" />
  <path
     inkscape:connector-curvature="0"
     clip-path="url(#SVGID_4_)"
     id="path27"
     d="m 39.6,30.1 c 1.7,0 3.5,0.6 3.5,2.7 0,1.1 -0.2,1.8 -0.4,2.7 -0.9,3.1 -2.5,5.2 -6,5.2 -2,0 -3.6,-0.6 -3.6,-2.9 0,-0.7 0.2,-1.5 0.4,-2.3 1,-3.6 2.2,-5.4 6.1,-5.4 m 23.3,-17.2 -14.2,0 -3.5,13.3 -0.1,0 c -0.2,-5.7 -3.6,-7.5 -9.7,-7.5 -6.7,0 -11.7,3 -13.9,9.6 -1.4,4.1 -2.9,8.6 -2.9,13.4 0,6 4.4,8.1 9.7,8.1 5.3,0 9.6,-2.1 12.2,-6.9 l 0.1,0 -1.8,5.9 14.1,0 z"
     sodipodi:nodetypes="cscssccccccscssccccc"
     style="fill:#ffffff"
     transform="matrix(0.94786058,0,0,1,-5.6111967,-2.219927)"
     inkscape:export-xdpi="435.94"
     inkscape:export-ydpi="435.94" />
</svg>
