<?xml version="1.0" encoding="UTF-8" standalone="no"?>
<svg
   width="504.566"
   height="272.127"
   version="1.1"
   id="svg3"
   xmlns="http://www.w3.org/2000/svg"
   xmlns:svg="http://www.w3.org/2000/svg">
  <defs
     id="defs3" />
  <path
     id="path1"
     d="M 252.30469 0 C 112.95869 0 7.8380358e-16 60.9165 0 136.0625 C 0 211.2085 112.95869 272.12695 252.30469 272.12695 C 391.59169 272.12695 504.56641 211.2085 504.56641 136.0625 C 504.56641 60.9165 391.59169 1.6907864e-15 252.30469 0 z M 252.34961 16.869141 C 387.77761 16.869141 497.54883 70.185078 497.54883 135.95508 C 497.54883 201.66408 387.77761 254.98047 252.34961 254.98047 C 116.93261 254.98047 7.1542969 201.66408 7.1542969 135.95508 C 7.1542969 70.185078 116.93261 16.869141 252.34961 16.869141 z "
     style="fill:#005292;fill-opacity:1" />
  <path
     d="M130.769 102.385l-.12 2.739.12 10.572v9.202l.128 7.832-.128 5.913.191 9.882-.191 6.105c0 5.683 1.06 9.537 3.18 11.574 3.07 2.896 7.302 4.346 12.7 4.346 4.114 0 7.141-.389 9.095-1.17 4.066-1.575 7.297-3.668 9.682-6.278 2.387-2.617 4.205-6.31 5.449-11.115 1.244-4.784 1.866-9.728 1.866-14.82 0-8.368-1.336-15.21-4.015-20.509-2.678-5.313-6.342-9.302-10.989-11.968-4.649-2.68-9.989-4.014-16.008-4.014-4.232 0-7.883.572-10.96 1.709M100.57 171.68c.624-.173 1.907-.414 3.86-.748 3.859-.668 6.393-1.552 7.598-2.683.748-.701 1.226-2.045 1.434-4.037.039-.494.183-6.827.431-18.988l-.062-6.847.062-8.274-.184-21.206v-2.5c0-1.069-.295-1.899-.874-2.486-.29-.284-1.101-.438-2.426-.438-1.085 0-2.329.128-3.739.383-1.826.081-3.467.24-4.919.495-.246.042-.646.104-1.181.183l-.062-5.485c2.448-.78 5.953-1.554 10.523-2.303 7.557-1.244 16.851-1.865 27.901-1.865 9.215 0 15.96.518 20.236 1.552 6.477 1.625 11.746 4.03 15.821 7.228 5.436 4.274 9.512 9.224 12.233 14.839s4.076 11.752 4.076 18.389c0 8.384-1.826 15.57-5.476 21.571s-8.905 10.797-15.753 14.396c-4.821 2.582-11.36 3.871-19.618 3.871l-12.77-.515-3.732-.164-5.045.115-1.497-.115-5.232.115-6.911-.061c-.248 0-2.368.125-6.353.399a147.97 147.97 0 0 1-5.23.162c-1.329 0-2.326.023-2.989.064-.082-.924-.122-2.605-.122-5.047m139.173-46.412c2.512-1.116 4.385-2.646 5.62-4.607.834-1.371 1.245-3.396 1.245-6.099 0-1.331-.404-3.323-1.18-5.977-.289-.917-1.15-1.792-2.581-2.645s-3.136-1.278-5.121-1.278c-2.063 0-3.888.645-5.46 1.934-1.573 1.279-2.35 3.04-2.35 5.287 0 1.626.562 3.308 1.679 5.047 1.451 2.279 4.166 5.07 8.148 8.338m11.045 38.059c-.335-.621-.762-1.209-1.279-1.774-.516-.551-.989-1.127-1.403-1.703l-7.333-8.857c-3.771-4.566-7.599-8.951-11.496-13.145-3.028 1.243-5.43 2.961-7.214 5.138-1.782 2.184-2.68 4.7-2.68 7.569a12.93 12.93 0 0 0 1.058 5.182c1.332 2.951 2.748 5.242 4.267 6.877 1.505 1.642 3.428 3.101 5.753 4.367 2.322 1.26 4.758 1.889 7.335 1.889 4.758 0 9.093-1.842 12.992-5.543m-25.619-29.959c-2.943-3.397-4.851-5.704-5.717-6.912-.875-1.202-1.612-2.683-2.211-4.453a16.38 16.38 0 0 1-.904-5.328c0-3.778 1.263-7.197 3.789-10.276 2.529-3.06 6.174-5.229 10.952-6.473.7-.158 1.267-.335 1.679-.494.956-.286 3.064-.438 6.336-.438 5.888 0 10.559 1.522 13.998 4.571 3.438 3.055 5.163 6.509 5.163 10.368a15.22 15.22 0 0 1-1.492 6.602c-.794 1.578-2.47 3.251-5.029 4.988-2.572 1.738-4.661 2.902-6.267 3.492-.537.159-.942.415-1.181.746.779 1.072 2.585 2.96 5.402 5.661 1.079 1.047 2.449 2.578 4.103 4.612l7.152 8.711c.698.959 1.365 1.77 1.989 2.433 2.451-2.408 4.441-5 5.97-7.79 1.161-2.105 1.736-3.683 1.736-4.719 0-.838-.345-1.675-1.061-2.523-.703-.852-1.899-1.591-3.604-2.212l.249-3.93c1.903-.414 3.146-.647 3.737-.678 2.869-.335 6.242-.612 10.148-.821l4.552-.24h3.109c.462 0 1.81-.126 4.042-.381-.081.541-.125 1.142-.149 1.809s-.091 1.291-.218 1.864l-.184 1.133c-2.995 1.403-5.161 2.578-6.509 3.511s-3.733 3.203-7.128 6.82c-2.074 2.153-5.693 6.521-10.841 13.083.127.543.62 1.234 1.494 2.064l1.618 1.795c2.199 2.502 4.267 4.368 6.189 5.612 1.936 1.244 3.711 1.865 5.339 1.865 1.067 0 1.921-.158 2.543-.494 1.371-.828 2.926-2.143 4.68-3.93 1.117-1.195 1.993-1.799 2.615-1.799a2.95 2.95 0 0 1 2.116.838c.58.559.868 1.242.868 2.022 0 1.625-.796 3.711-2.398 6.259s-3.974 4.709-7.13 6.448c-2.12 1.162-4.975 1.736-8.595 1.736-3.234 0-6.227-.621-8.959-1.865-3.572-1.61-7.503-4.352-11.775-8.211-8.306 6.76-17.395 10.148-27.28 10.148-8.55 0-14.903-1.888-19.053-5.668s-6.227-8.593-6.227-14.445c0-3.57.846-6.966 2.558-10.164 1.703-3.196 4.193-5.949 7.456-8.255 3.269-2.304 6.299-4.03 9.085-5.195 1.534-.621 2.622-1.121 3.245-1.497m78.159 43.232c0-1.246.129-2.717.386-4.424l7.864-1.373c.969-.207 2.121-.539 3.462-.99l.81-15.574-.253-12.59.071-1.498c.128-1.69.182-5.979.182-12.819l-.159-1.809.159-5.229-.126-5.42v-2.679c0-2.407-.174-5.23-.534-8.466-.03-.286-.195-.796-.465-1.499-.338-.128-.707-.208-1.11-.248a11.71 11.71 0 0 1-1.222-.191c-1.63-.286-3.379-.494-5.219-.621l-.944-.239c-1.129-.129-1.993-.302-2.583-.51-.119-1.197-.191-1.97-.191-2.303 0-.495.128-1.173.386-2.049.831-.166 1.998-.256 3.482-.256 1.501 0 2.539-.016 3.13-.055 5.063.54 8.822.829 11.283.875 1.118 0 2.247.022 3.394.092 1.153.056 2.155.092 3.034.092 1.368 0 4.718-.207 10.036-.621.876-.208 1.82-.312 2.862-.312 1.545 0 2.837.082 3.877.24l.056 1.876c0 .66-.082 1.467-.255 2.421l-11.015 1.753c-.869.414-1.309 1.013-1.309 1.799l.144 2.306.039.997-.033 2.741-.093 2.122v.494c.093.461.126.854.126 1.188l-.126 7.9c.093.749.126 1.315.126 1.682a51.97 51.97 0 0 1-.08 1.993 44.23 44.23 0 0 0-.046 2.058c0 .628.044 2.097.126 4.415 1.163.209 2.14.335 2.922.383l9.214.183h4.472l11.19.056 10.881-.31a24.64 24.64 0 0 0 4.487-.429c.081-1.412.136-4.882.184-10.398l.125-2.808-.38-10.589-.437-4.356c-.12-.286-.415-.564-.862-.806-1.464-.828-4.369-1.761-8.722-2.806-.796-.166-1.545-.374-2.246-.628.08-1.45.254-2.623.494-3.548l1.677-.055 6.042.055c3.851.509 7.774.75 11.752.75.909 0 1.632-.025 2.173-.058l8.085-.254 2.173-.127a21.45 21.45 0 0 1 4.6-.495c1.209 0 2.658.064 4.361.184-.049 1.626-.154 3.101-.312 4.424-3.802.797-6.285 1.361-7.465 1.717-1.181.344-2.372.841-3.561 1.464l-.382 1.244v1.06l.072 1.609-.08.823c-.112.861-.174 1.53-.174 1.991v1.555l.126 3.108v7.917l.056 5.978-.159 7.902c-.059 1.832.023 5.564.231 11.207v8.858l.128 7.35c0 1.371-.047 3.029-.128 4.975a33.1 33.1 0 0 0 2.417.621c3.88.83 6.812 1.683 8.791 2.56l.183 4.354-2.918.07c-1.991 0-4.266-.127-6.845-.383-3.392-.367-8.867-.551-16.411-.551-3.406 0-7.798.266-13.18.807-.586 0-1.286-.129-2.115-.371.033-1.91.137-3.258.311-4.055l4.793-1.115 5.046-.805c.493-.129 1.14-.314 1.929-.566.455-3.363.709-8.951.741-16.752l.071-5.307c-.255-2.2-.382-4.839-.382-7.902a89.73 89.73 0 0 0-4.968-.254l-28.857-.311-.563-.056-.425-.071c-.299 0-.629.025-1 .071l-2.739.056h-1.734c-.796 0-1.681.153-2.682.439l-.31 4.663v.822l.127 2.175v19.318c0 1.068.057 2.175.183 3.291l.57.384 9.196 1.428c.465.158.81.262 1.068.311.542.125.994.31 1.377.564.128.947.185 1.588.185 1.922 0 .541-.082 1.291-.255 2.248l-3.795.055a64.72 64.72 0 0 1-2.563-.055 8.04 8.04 0 0 1-1.062-.07l-8.792-.368c-2.075-.208-4.982-.312-8.735-.312l-1.302.057-3.06.195c-2.572.324-6.611.498-12.104.498"
     fill="#005292"
     id="path3" />
</svg>
