<?xml version="1.0" encoding="UTF-8" standalone="no"?>
<!-- Created with Inkscape (http://www.inkscape.org/) -->

<svg
   width="70.580292mm"
   height="52.065857mm"
   viewBox="0 0 266.76016 196.78435"
   version="1.1"
   id="svg5"
   inkscape:version="1.2.2 (b0a8486541, 2022-12-01)"
   sodipodi:docname="head.svg"
   inkscape:export-filename="logo.png"
   inkscape:export-xdpi="96"
   inkscape:export-ydpi="96"
   xmlns:inkscape="http://www.inkscape.org/namespaces/inkscape"
   xmlns:sodipodi="http://sodipodi.sourceforge.net/DTD/sodipodi-0.dtd"
   xmlns="http://www.w3.org/2000/svg"
   xmlns:svg="http://www.w3.org/2000/svg">
  <sodipodi:namedview
     id="namedview7"
     pagecolor="#ffffff"
     bordercolor="#000000"
     borderopacity="0.25"
     inkscape:showpageshadow="2"
     inkscape:pageopacity="0.0"
     inkscape:pagecheckerboard="0"
     inkscape:deskcolor="#d1d1d1"
     inkscape:document-units="mm"
     showgrid="false"
     inkscape:zoom="1.1153479"
     inkscape:cx="416.01369"
     inkscape:cy="291.3889"
     inkscape:window-width="2204"
     inkscape:window-height="1224"
     inkscape:window-x="349"
     inkscape:window-y="105"
     inkscape:window-maximized="0"
     inkscape:current-layer="layer1" />
  <defs
     id="defs2">
    <clipPath
       clipPathUnits="userSpaceOnUse"
       id="clipPath1165">
      <path
         d="M 0,800 H 800 V 0 H 0 Z"
         id="path1163" />
    </clipPath>
  </defs>
  <g
     inkscape:label="Layer 1"
     inkscape:groupmode="layer"
     id="layer1"
     transform="translate(-84.567626,-279.43926)">
    <g
       id="Layer_1"
       transform="matrix(0.40224323,0,0,0.40224323,443.45801,266.68494)" />
    <g
       id="g2864"
       transform="translate(352.21138,-100.26124)" />
    <g
       id="g2866"
       transform="translate(352.21138,-100.26124)" />
    <g
       id="g2868"
       transform="translate(352.21138,-100.26124)" />
    <g
       id="g2870"
       transform="translate(352.21138,-100.26124)" />
    <g
       id="g2872"
       transform="translate(352.21138,-100.26124)" />
    <g
       id="g2874"
       transform="translate(352.21138,-100.26124)" />
    <g
       id="g2876"
       transform="translate(352.21138,-100.26124)" />
    <g
       id="g2878"
       transform="translate(352.21138,-100.26124)" />
    <g
       id="g2880"
       transform="translate(352.21138,-100.26124)" />
    <g
       id="g2882"
       transform="translate(352.21138,-100.26124)" />
    <g
       id="g2884"
       transform="translate(352.21138,-100.26124)" />
    <g
       id="g2886"
       transform="translate(352.21138,-100.26124)" />
    <g
       id="g2888"
       transform="translate(352.21138,-100.26124)" />
    <g
       id="g2890"
       transform="translate(352.21138,-100.26124)" />
    <g
       id="g2892"
       transform="translate(352.21138,-100.26124)" />
    <g
       id="g1159"
       transform="matrix(0.39237977,0,0,-0.39237977,75.545638,531.01198)">
      <g
         id="g1161"
         clip-path="url(#clipPath1165)">
        <path
           d="m 681.33,362.63 c 3.283,7.308 3.986,15.809 1.556,23.49 l -12.878,-6.41 z"
           style="fill:#6ec9cd;fill-opacity:1;fill-rule:nonzero;stroke:none"
           id="path1167" />
        <path
           d="m 688.923,383.372 c 1.701,-1.646 2.181,-4.035 2.604,-6.271 2.02,2.125 3.082,5 4.04,7.708 0.888,2.666 1.162,5.415 1.113,8.176 l -13.295,-6.617 c 2.072,-0.51 4.092,-1.399 5.538,-2.996"
           style="fill:#6ec9cd;fill-opacity:1;fill-rule:nonzero;stroke:none"
           id="path1169" />
        <path
           d="m 668.012,529.947 c 0.435,0.598 0.855,1.209 1.254,1.841 2.763,4.514 4.088,9.992 3.291,15.304 -0.248,2.062 -0.733,4.07 -1.393,6.021 l -22.84,-6.004 z"
           style="fill:#c32500;fill-opacity:1;fill-rule:nonzero;stroke:none"
           id="path1171" />
        <path
           d="m 671.164,553.113 c -1.178,3.476 -2.921,6.771 -4.926,9.866 -2.068,3.321 -4.494,6.334 -7.045,9.252 l -10.869,-25.122 z"
           style="fill:#c10600;fill-opacity:1;fill-rule:nonzero;stroke:none"
           id="path1173" />
        <path
           d="m 682.886,386.12 c -0.041,0.13 -0.079,0.261 -0.122,0.391 0.207,-0.044 0.414,-0.092 0.621,-0.143 l 13.295,6.617 c -0.047,2.687 -0.399,5.385 -0.792,8.031 -0.48,2.388 1.166,4.513 1.804,6.749 2.605,7.756 4.73,15.887 5.153,24.123 v 4.09 c -0.159,4.679 -1.271,9.458 -3.611,13.499 -0.32,0.526 -0.668,1.042 -1.039,1.544 L 670.008,379.71 Z"
           style="fill:#abc38c;fill-opacity:1;fill-rule:nonzero;stroke:none"
           id="path1175" />
        <path
           d="m 659.193,572.231 c -1.125,1.287 -2.273,2.555 -3.427,3.823 1.327,10.888 4.146,21.678 4.041,32.733 0.16,8.874 -1.916,17.693 -5.797,25.609 -4.721,-1.436 -9.278,-3.326 -13.654,-5.569 l 7.968,-81.718 z"
           style="fill:#c60800;fill-opacity:1;fill-rule:nonzero;stroke:none"
           id="path1177" />
        <path
           d="m 698.195,451.021 c -2.697,3.657 -6.658,6.559 -11.238,7.115 -4.943,0.693 -9.991,-0.903 -14.081,-3.612 -1.591,7.332 -3.292,14.666 -5.951,21.735 -1.943,5.233 -4.318,10.543 -7.494,15.224 l -8.753,0.215 c 1.32,-6.622 2.701,-13.246 3.226,-20.009 0.481,-6.214 -0.262,-12.54 -1.7,-18.602 -0.424,-0.902 -1.326,-1.43 -1.966,-2.125 -2.754,-2.717 -5.734,-5.178 -8.877,-7.412 l 28.647,-63.84 z"
           style="fill:#c8c46d;fill-opacity:1;fill-rule:nonzero;stroke:none"
           id="path1179" />
        <path
           d="m 625.693,478.543 c -0.002,-0.021 -0.004,-0.042 -0.005,-0.063 l 3.281,-7.311 c 3.398,6.759 6.949,13.477 8.667,20.85 l -14.105,0.345 c 2.272,-4.133 2.749,-9.157 2.162,-13.821"
           style="fill:#c8c46d;fill-opacity:1;fill-rule:nonzero;stroke:none"
           id="path1181" />
        <path
           d="m 667.775,371.58 c 2.319,-1.577 4.473,-3.392 6.219,-5.638 2.18,-2.708 3.291,-6.109 3.666,-9.561 1.45,1.935 2.677,4.038 3.67,6.249 l -11.322,17.08 z"
           style="fill:#189fe2;fill-opacity:1;fill-rule:nonzero;stroke:none"
           id="path1183" />
        <path
           d="m 620.904,495.285 c 0.143,0.054 0.285,0.105 0.428,0.159 0.869,-0.948 1.597,-1.983 2.199,-3.08 l 14.105,-0.345 c 0.117,0.5 0.227,1.002 0.327,1.508 0.853,5.264 0.269,10.999 -2.813,15.52 3.291,1.59 6.853,2.603 10.096,4.25 8.532,3.995 17.151,8.949 22.766,16.65 l -19.688,17.162 z"
           style="fill:#ce630c;fill-opacity:1;fill-rule:nonzero;stroke:none"
           id="path1185" />
        <path
           d="m 648.809,501.979 c 0.523,-3.439 1.187,-6.86 1.869,-10.281 l 8.753,-0.215 c -2.822,4.158 -6.275,7.821 -10.622,10.496"
           style="fill:#ce630c;fill-opacity:1;fill-rule:nonzero;stroke:none"
           id="path1187" />
        <path
           d="m 592.719,424.147 c -1.942,-0.534 -3.883,-1.07 -5.822,-1.613 -12.391,-3.51 -24.638,-8.128 -35.223,-15.557 l 16.564,-45.482 z"
           style="fill:#dae263;fill-opacity:1;fill-rule:nonzero;stroke:none"
           id="path1189" />
        <path
           d="m 549.285,413.532 c 0.141,5.288 1.262,10.501 2.49,15.648 2.07,8.02 4.945,15.887 8.764,23.275 3.124,6.183 6.979,12.101 11.621,17.277 l -36.881,-17.743 z"
           style="fill:#dae263;fill-opacity:1;fill-rule:nonzero;stroke:none"
           id="path1191" />
        <path
           d="m 592.307,186.382 c 5.207,5.938 10.387,11.904 15.582,17.86 3.769,4.332 7.536,8.647 11.259,12.996 l -37.033,-18.516 z"
           style="fill:#008ad9;fill-opacity:1;fill-rule:nonzero;stroke:none"
           id="path1193" />
        <path
           d="m 568.238,361.495 34.406,-27.75 c 1.969,2.317 4.229,4.401 6.522,6.373 11.742,9.458 25.346,16.263 38.365,23.804 2.549,-1.965 4.145,-4.937 5.048,-8.02 1.118,-4.409 1.278,-8.929 2.181,-13.395 1.326,1.653 2.333,3.563 3.395,5.368 4.416,7.763 7.923,16.846 6.111,25.879 1.191,-0.682 2.37,-1.4 3.509,-2.174 l 2.233,8.13 z"
           style="fill:#75e0e0;fill-opacity:1;fill-rule:nonzero;stroke:none"
           id="path1195" />
        <path
           d="m 624.734,463.614 c 0.903,0.264 1.063,1.222 1.487,1.909 0.875,1.896 1.806,3.772 2.748,5.646 l -3.281,7.311 c -0.379,-4.971 -1.327,-9.895 -0.954,-14.866"
           style="fill:#afdf7c;fill-opacity:1;fill-rule:nonzero;stroke:none"
           id="path1197" />
        <path
           d="m 670.008,379.71 -28.647,63.84 c -6.317,-4.489 -13.302,-8.047 -20.507,-10.815 -9.213,-3.393 -18.682,-5.983 -28.135,-8.588 l -24.481,-62.652 z"
           style="fill:#afdf7c;fill-opacity:1;fill-rule:nonzero;stroke:none"
           id="path1199" />
        <path
           d="m 578.669,600.175 c -3.085,-0.758 -6.159,-1.571 -9.2,-2.497 -8.395,-2.23 -16.582,-5.048 -24.762,-7.813 -5.473,-2.125 -10.894,-4.304 -16.311,-6.429 -1.66,-0.762 -3.322,-1.515 -4.984,-2.269 l 1.17,-38.973 z"
           style="fill:#df2200;fill-opacity:1;fill-rule:nonzero;stroke:none"
           id="path1201" />
        <path
           d="m 619.148,217.238 c 1.893,2.212 3.779,4.43 5.641,6.669 -0.088,10.922 -1.879,21.732 -4.687,32.297 l -37.987,-57.482 z"
           style="fill:#009be2;fill-opacity:1;fill-rule:nonzero;stroke:none"
           id="path1203" />
        <path
           d="m 582.115,198.722 37.987,57.482 c -2.233,8.398 -5.107,16.641 -8.283,24.663 -3.499,8.816 -7.262,17.491 -10.951,26.222 l -79.756,16.243 z"
           style="fill:#16b5ec;fill-opacity:1;fill-rule:nonzero;stroke:none"
           id="path1205" />
        <path
           d="m 648.324,547.109 -7.968,81.718 c -5.969,-3.061 -11.603,-6.786 -16.844,-10.957 -4.409,-3.291 -8.235,-7.277 -12.436,-10.784 -5.847,-1.382 -11.847,-2.236 -17.693,-3.507 -4.889,-1.141 -9.819,-2.202 -14.714,-3.404 l -54.087,-57.981 z"
           style="fill:#dc2b00;fill-opacity:1;fill-rule:nonzero;stroke:none"
           id="path1207" />
        <path
           d="m 524.582,542.194 92.273,-48.387 c 1.352,0.478 2.703,0.968 4.049,1.478 l 27.42,51.824 z"
           style="fill:#df5e00;fill-opacity:1;fill-rule:nonzero;stroke:none"
           id="path1209" />
        <path
           d="m 521.112,323.332 79.756,-16.243 c -0.96,2.272 -1.917,4.548 -2.86,6.831 -1.917,4.25 -1.598,9.353 0.472,13.499 1.087,2.316 2.526,4.4 4.164,6.326 l -34.406,27.75 z"
           style="fill:#68d7ef;fill-opacity:1;fill-rule:nonzero;stroke:none"
           id="path1211" />
        <path
           d="m 579.842,172.321 c 4.185,4.658 8.335,9.35 12.465,14.061 l -10.192,12.34 z"
           style="fill:#0074d4;fill-opacity:1;fill-rule:nonzero;stroke:none"
           id="path1213" />
        <path
           d="m 535.279,451.989 36.881,17.743 c 3.654,4.076 7.795,7.693 12.453,10.617 5.688,3.346 11.854,5.742 17.908,8.185 4.704,1.987 9.528,3.57 14.334,5.273 l -92.273,48.387 z"
           style="fill:#e88200;fill-opacity:1;fill-rule:nonzero;stroke:none"
           id="path1215" />
        <path
           d="m 491.622,385.781 76.616,-24.286 -16.564,45.482 c -0.306,-0.215 -0.61,-0.43 -0.912,-0.65 -1.006,1.014 -1.381,2.5 -1.43,3.882 -0.064,1.111 -0.076,2.219 -0.047,3.323 l -14.006,38.457 z"
           style="fill:#dcf07d;fill-opacity:1;fill-rule:nonzero;stroke:none"
           id="path1217" />
        <path
           d="m 446.809,220.695 135.306,-21.973 -61.003,124.61 z"
           style="fill:#33bded;fill-opacity:1;fill-rule:nonzero;stroke:none"
           id="path1219" />
        <path
           d="m 545.346,139.631 c 4.569,0.312 7.334,4.353 10.519,7.117 8.219,8.315 16.164,16.882 23.977,25.573 l 2.273,26.401 -65.049,-55.276 c 7.87,-1.633 15.743,-3.15 23.76,-3.815 z"
           style="fill:#0069d5;fill-opacity:1;fill-rule:nonzero;stroke:none"
           id="path1221" />
        <path
           d="m 446.809,220.695 8.972,-60.924 c 20.053,-5.787 40.097,-11.666 60.498,-16.161 0.263,-0.055 0.526,-0.109 0.787,-0.164 l 65.049,55.276 z"
           style="fill:#0382dd;fill-opacity:1;fill-rule:nonzero;stroke:none"
           id="path1223" />
        <path
           d="m 437.557,266.376 9.252,-45.681 74.303,102.637 z"
           style="fill:#8cebdb;fill-opacity:1;fill-rule:nonzero;stroke:none"
           id="path1225" />
        <path
           d="m 535.279,451.989 -10.697,90.205 -37.008,-73.147 z"
           style="fill:#f38900;fill-opacity:1;fill-rule:nonzero;stroke:none"
           id="path1227" />
        <path
           d="m 568.238,361.495 -76.616,24.286 29.49,-62.449 z"
           style="fill:#b8f3bc;fill-opacity:1;fill-rule:nonzero;stroke:none"
           id="path1229" />
        <path
           d="m 488.607,562.899 c -2.107,-1.297 -4.201,-2.617 -6.283,-3.955 -2.778,1.132 -5.574,2.218 -8.385,3.266 l 4.094,-33.605 z"
           style="fill:#ef3500;fill-opacity:1;fill-rule:nonzero;stroke:none"
           id="path1231" />
        <path
           d="m 524.582,542.194 -1.17,38.973 c -5.522,-2.503 -11.04,-5.01 -16.43,-7.828 -6.256,-3.223 -12.368,-6.74 -18.375,-10.44 l -10.574,-34.294 z"
           style="fill:#f43800;fill-opacity:1;fill-rule:nonzero;stroke:none"
           id="path1233" />
        <path
           d="m 524.582,542.194 -46.549,-13.589 9.541,-59.558 z"
           style="fill:#f77700;fill-opacity:1;fill-rule:nonzero;stroke:none"
           id="path1235" />
        <path
           d="m 491.622,385.781 43.657,66.208 -47.705,17.058 z"
           style="fill:#f2da4c;fill-opacity:1;fill-rule:nonzero;stroke:none"
           id="path1237" />
        <path
           d="m 478.033,528.605 -4.094,33.605 c -14.339,5.346 -29.087,9.598 -44.062,12.622 -9.145,1.806 -18.497,2.924 -27.844,2.813 -4.093,-0.223 -8.142,-0.751 -12.188,-1.391 l -10.69,-15.557 z"
           style="fill:#fb6100;fill-opacity:1;fill-rule:nonzero;stroke:none"
           id="path1239" />
        <path
           d="m 521.112,323.332 -29.49,62.449 -89.048,-29.201 z"
           style="fill:#d8f891;fill-opacity:1;fill-rule:nonzero;stroke:none"
           id="path1241" />
        <path
           d="m 437.557,266.376 83.555,56.956 -118.538,33.248 z"
           style="fill:#c5f5c2;fill-opacity:1;fill-rule:nonzero;stroke:none"
           id="path1243" />
        <path
           d="m 389.845,576.254 c -0.737,-0.117 -1.475,-0.236 -2.213,-0.359 -3.105,-0.582 -6.208,-1.18 -9.306,-1.793 l 0.829,-13.405 z"
           style="fill:#f55a00;fill-opacity:1;fill-rule:nonzero;stroke:none"
           id="path1245" />
        <path
           d="m 410.701,173.605 c 13.221,-4.186 26.472,-8.273 39.737,-12.295 1.782,-0.512 3.562,-1.026 5.343,-1.539 l -8.972,60.924 z"
           style="fill:#6db0c4;fill-opacity:1;fill-rule:nonzero;stroke:none"
           id="path1247" />
        <path
           d="M 487.574,469.047 371.638,489.863 402.574,356.58 Z"
           style="fill:#ffd100;fill-opacity:1;fill-rule:nonzero;stroke:none"
           id="path1249" />
        <path
           d="m 402.574,356.58 89.048,29.201 -4.048,83.266 z"
           style="fill:#f9ed2f;fill-opacity:1;fill-rule:nonzero;stroke:none"
           id="path1251" />
        <path
           d="m 487.574,469.047 -9.541,59.558 -106.395,-38.742 z"
           style="fill:#fd9d00;fill-opacity:1;fill-rule:nonzero;stroke:none"
           id="path1253" />
        <path
           d="m 478.033,528.605 -98.878,32.092 -7.517,-70.834 z"
           style="fill:#ff9300;fill-opacity:1;fill-rule:nonzero;stroke:none"
           id="path1255" />
        <path
           d="m 393.611,272.736 43.946,-6.36 -34.983,90.204 z"
           style="fill:#cbf388;fill-opacity:1;fill-rule:nonzero;stroke:none"
           id="path1257" />
        <path
           d="m 378.288,209.998 -0.281,-25.783 c 10.871,-3.623 21.772,-7.152 32.694,-10.61 l 36.108,47.09 z"
           style="fill:#8ccfa3;fill-opacity:1;fill-rule:nonzero;stroke:none"
           id="path1259" />
        <path
           d="m 393.611,272.736 53.198,-52.041 -9.252,45.681 z"
           style="fill:#97eaa3;fill-opacity:1;fill-rule:nonzero;stroke:none"
           id="path1261" />
        <path
           d="m 378.288,209.998 68.521,10.697 -53.198,52.041 z"
           style="fill:#9be293;fill-opacity:1;fill-rule:nonzero;stroke:none"
           id="path1263" />
        <path
           d="M 371.638,489.863 304.852,384.047 402.574,356.58 Z"
           style="fill:#ffce00;fill-opacity:1;fill-rule:nonzero;stroke:none"
           id="path1265" />
        <path
           d="M 304.852,384.047 277.097,276.784 393.611,272.736 Z"
           style="fill:#f0d03e;fill-opacity:1;fill-rule:nonzero;stroke:none"
           id="path1267" />
        <path
           d="m 304.852,384.047 88.759,-111.311 8.963,83.844 z"
           style="fill:#f6e63c;fill-opacity:1;fill-rule:nonzero;stroke:none"
           id="path1269" />
        <path
           d="m 379.155,560.697 -0.829,13.405 c -10.212,-2.022 -20.385,-4.226 -30.496,-6.713 -1.381,-0.264 -2.763,-0.798 -4.201,-0.903 -7.916,0.958 -15.832,2.34 -23.268,5.159 -2.902,0.972 -5.733,2.15 -8.471,3.512 L 290.974,550 Z"
           style="fill:#fb6800;fill-opacity:1;fill-rule:nonzero;stroke:none"
           id="path1271" />
        <path
           d="m 277.097,276.784 101.191,-66.786 15.323,62.738 z"
           style="fill:#c7df70;fill-opacity:1;fill-rule:nonzero;stroke:none"
           id="path1273" />
        <path
           d="m 371.638,489.863 -120.562,-30.646 53.776,-75.17 z"
           style="fill:#feb200;fill-opacity:1;fill-rule:nonzero;stroke:none"
           id="path1275" />
        <path
           d="m 311.89,575.157 c -6.237,3.106 -11.983,7.182 -16.929,12.056 -3.574,3.426 -6.679,7.202 -9.482,11.197 L 290.974,550 Z"
           style="fill:#f35c00;fill-opacity:1;fill-rule:nonzero;stroke:none"
           id="path1277" />
        <path
           d="m 350.539,191.605 c 4.252,-0.87 8.502,-1.741 12.755,-2.611 4.465,-1.277 8.874,-2.867 13.284,-4.305 0.476,-0.159 0.953,-0.315 1.429,-0.474 l 0.281,25.783 z"
           style="fill:#b5b995;fill-opacity:1;fill-rule:nonzero;stroke:none"
           id="path1279" />
        <path
           d="m 255.413,214.624 1.249,-3.765 c 31.297,-6.436 62.577,-12.846 93.877,-19.254 l 27.749,18.393 z"
           style="fill:#c2b267;fill-opacity:1;fill-rule:nonzero;stroke:none"
           id="path1281" />
        <path
           d="m 255.413,214.624 122.875,-4.626 -101.191,66.786 z"
           style="fill:#d3bf54;fill-opacity:1;fill-rule:nonzero;stroke:none"
           id="path1283" />
        <path
           d="M 379.155,560.697 290.974,550 371.638,489.863 Z"
           style="fill:#ff8500;fill-opacity:1;fill-rule:nonzero;stroke:none"
           id="path1285" />
        <path
           d="m 290.974,550 -39.898,-90.783 120.562,30.646 z"
           style="fill:#fe9400;fill-opacity:1;fill-rule:nonzero;stroke:none"
           id="path1287" />
        <path
           d="m 285.479,598.41 c -7.328,10.444 -12.591,22.384 -18.738,33.493 -1.701,3.188 -3.77,6.111 -5.583,9.243 h -0.208 c 0,-0.744 -0.424,-1.431 -0.639,-2.125 -6.694,-14.721 -10.576,-30.665 -11.422,-46.76 -0.137,-3.615 -0.104,-7.262 0.112,-10.906 L 290.974,550 Z"
           style="fill:#f04f00;fill-opacity:1;fill-rule:nonzero;stroke:none"
           id="path1289" />
        <path
           d="m 249.001,581.355 c 0.638,-10.749 2.895,-21.466 7.267,-31.272 L 290.974,550 Z"
           style="fill:#f64e00;fill-opacity:1;fill-rule:nonzero;stroke:none"
           id="path1291" />
        <path
           d="m 239.401,550.123 c -11.031,6.691 -20.977,15.133 -29.731,24.598 -13.124,14.401 -23.914,30.768 -35.393,46.496 -0.208,0.27 -0.471,0.479 -0.743,0.75 -0.583,-14.402 -2.443,-28.644 -3.451,-43.045 -0.333,-2.482 -0.452,-4.983 -0.518,-7.486 l 0.269,-21.147 z"
           style="fill:#f64e00;fill-opacity:1;fill-rule:nonzero;stroke:none"
           id="path1293" />
        <path
           d="m 199.324,384.625 77.773,-107.841 27.755,107.263 z"
           style="fill:#fb9b00;fill-opacity:1;fill-rule:nonzero;stroke:none"
           id="path1295" />
        <path
           d="m 251.076,459.217 -51.752,-74.592 105.528,-0.578 z"
           style="fill:#ffa300;fill-opacity:1;fill-rule:nonzero;stroke:none"
           id="path1297" />
        <path
           d="m 251.076,459.217 39.898,90.783 -34.706,0.083 c 1.681,-3.771 3.673,-7.408 6.008,-10.858 -4.784,1.493 -9.298,3.721 -13.762,5.902 -3.115,1.529 -6.153,3.2 -9.113,4.996 l -69.567,0.166 z"
           style="fill:#fd7700;fill-opacity:1;fill-rule:nonzero;stroke:none"
           id="path1299" />
        <path
           d="M 199.324,384.625 158.777,283.401 c 6.753,-0.043 13.46,0.537 20.125,1.612 -1.807,-1.101 -3.683,-2.064 -5.61,-2.912 l 103.805,-5.317 z"
           style="fill:#f56500;fill-opacity:1;fill-rule:nonzero;stroke:none"
           id="path1301" />
        <path
           d="m 253.309,211.55 c 1.118,-0.231 2.236,-0.46 3.353,-0.691 l -1.249,3.765 z"
           style="fill:#bc5126;fill-opacity:1;fill-rule:nonzero;stroke:none"
           id="path1303" />
        <path
           d="m 277.097,276.784 -103.805,5.317 c -2.96,-1.303 -6.041,-2.331 -9.18,-3.159 l 33.641,-23.699 c 3.392,0.58 6.772,1.254 10.167,1.717 -2.925,-0.933 -5.867,-1.82 -8.823,-2.663 l 56.316,-39.673 z"
           style="fill:#e07000;fill-opacity:1;fill-rule:nonzero;stroke:none"
           id="path1305" />
        <path
           d="m 167.521,450.544 31.803,-65.919 51.752,74.592 z"
           style="fill:#ff8800;fill-opacity:1;fill-rule:nonzero;stroke:none"
           id="path1307" />
        <path
           d="m 251.076,459.217 -81.242,91.072 -0.063,-2.748 c 0.077,-0.842 0.176,-1.682 0.312,-2.519 1.167,-10.311 3.667,-20.623 8.875,-29.705 1.277,-2.763 3.347,-5.159 4.888,-7.762 0.688,-11.639 -0.583,-23.485 -4.944,-34.379 -2.717,-7.009 -6.593,-13.488 -11.304,-19.303 l -0.077,-3.329 z"
           style="fill:#fd7400;fill-opacity:1;fill-rule:nonzero;stroke:none"
           id="path1309" />
        <path
           d="m 247.873,212.668 c 1.812,-0.373 3.624,-0.745 5.436,-1.118 l 2.104,3.074 z"
           style="fill:#c22c00;fill-opacity:1;fill-rule:nonzero;stroke:none"
           id="path1311" />
        <path
           d="m 199.097,254.297 c -12.712,-3.628 -25.69,-6.387 -38.823,-7.939 l 1.074,-22.827 c 0.642,-0.233 1.285,-0.464 1.93,-0.686 17.062,-5.742 35.13,-8.082 53.086,-8.187 4.84,-0.583 9.728,-0.159 14.561,-0.263 2.868,-0.16 5.742,0.798 8.555,0 2.798,-0.577 5.595,-1.151 8.393,-1.727 l 7.54,1.956 z"
           style="fill:#d54200;fill-opacity:1;fill-rule:nonzero;stroke:none"
           id="path1313" />
        <path
           d="m 158.799,277.729 1.063,-22.608 c 5.952,-0.877 11.958,-1.373 17.977,-1.459 2.979,0.104 6.007,-0.056 8.979,0.423 3.679,0.029 7.313,0.54 10.935,1.158 l -33.641,23.699 c -1.757,-0.463 -3.53,-0.864 -5.313,-1.213"
           style="fill:#d54200;fill-opacity:1;fill-rule:nonzero;stroke:none"
           id="path1315" />
        <path
           d="m 169.604,549.944 c 0.038,-0.802 0.092,-1.603 0.167,-2.403 l 0.063,2.748 z"
           style="fill:#fa6200;fill-opacity:1;fill-rule:nonzero;stroke:none"
           id="path1317" />
        <path
           d="m 167.598,453.873 c -0.807,-0.997 -1.638,-1.975 -2.493,-2.931 l 2.416,-0.398 z"
           style="fill:#fa6200;fill-opacity:1;fill-rule:nonzero;stroke:none"
           id="path1319" />
        <path
           d="m 169.565,571.436 c -0.091,-3.501 -0.076,-7.008 -0.384,-10.478 0.348,-3.501 0.259,-7.026 0.402,-10.528 l 0.251,-0.141 z"
           style="fill:#f03600;fill-opacity:1;fill-rule:nonzero;stroke:none"
           id="path1321" />
        <path
           d="m 167.521,450.544 -42.11,-33.398 c 9.723,-7.265 21.203,-12.279 33.298,-13.526 3.187,-0.743 6.645,0.264 9.778,-1.015 -7.812,-2.284 -15.249,-5.838 -23.006,-8.338 -1.848,-0.674 -3.701,-1.342 -5.558,-2 l 59.401,-7.642 z"
           style="fill:#ff7200;fill-opacity:1;fill-rule:nonzero;stroke:none"
           id="path1323" />
        <path
           d="m 139.923,392.267 c -10.485,-3.714 -21.11,-7.131 -31.906,-9.837 l 21.912,-43.17 c 4.495,0.417 8.906,1.343 13.317,2.025 4.944,0.743 9.617,2.66 14.561,3.243 -7.698,-4.929 -16.181,-8.541 -24.986,-10.966 l 25.459,-50.158 c 0.165,-0.002 0.331,-0.003 0.497,-0.003 l 40.547,101.224 z"
           style="fill:#fc6300;fill-opacity:1;fill-rule:nonzero;stroke:none"
           id="path1325" />
        <path
           d="m 124.706,331.669 c -2.66,-0.481 -5.319,-0.848 -7.972,-1.383 -1.221,-0.103 -2.499,-0.049 -3.722,-0.208 -3.45,-0.799 -7.068,-0.111 -10.575,-0.854 -0.714,-0.021 -1.428,-0.032 -2.142,-0.041 l -0.075,-33.951 c 18.302,-6.621 37.392,-11.094 56.844,-11.809 0.405,-0.009 0.811,-0.015 1.216,-0.019 l -25.459,50.158 c -2.68,-0.739 -5.388,-1.372 -8.115,-1.893"
           style="fill:#f23700;fill-opacity:1;fill-rule:nonzero;stroke:none"
           id="path1327" />
        <path
           d="m 100.409,380.652 -0.09,-40.619 c 3.813,-0.743 7.667,-0.922 11.527,-1.4 4.937,0.104 9.937,-0.375 14.825,0.424 1.092,0.03 2.177,0.102 3.258,0.203 l -21.912,43.17 c -2.527,-0.633 -5.062,-1.228 -7.608,-1.778"
           style="fill:#f23700;fill-opacity:1;fill-rule:nonzero;stroke:none"
           id="path1329" />
        <path
           d="m 133.261,276.354 c -11.139,0.366 -22.117,2.157 -33.074,4.005 l -0.005,-2.384 c 4.32,-2.705 8.672,-5.378 13.249,-7.63 l 21.161,5.866 c -0.444,0.042 -0.887,0.089 -1.331,0.143"
           style="fill:#f23700;fill-opacity:1;fill-rule:nonzero;stroke:none"
           id="path1331" />
        <path
           d="m 155.578,277.152 c -6.947,-0.855 -13.987,-1.605 -20.986,-0.941 l -21.161,-5.866 c 0.143,-0.071 0.285,-0.143 0.428,-0.213 14.377,-7.512 29.991,-12.652 46.003,-15.011 l -1.063,22.608 c -1.072,-0.208 -2.146,-0.402 -3.221,-0.577"
           style="fill:#db2f00;fill-opacity:1;fill-rule:nonzero;stroke:none"
           id="path1333" />
        <path
           d="m 155.578,245.85 c -2.979,-0.32 -6.062,-0.16 -9.034,-0.583 -8.235,-0.104 -16.422,0.478 -24.553,1.596 2.979,-2.075 5.527,-4.735 8.555,-6.749 9.341,-7.078 19.818,-12.593 30.802,-16.583 l -1.074,22.827 c -1.563,-0.185 -3.128,-0.359 -4.696,-0.508"
           style="fill:#db2f00;fill-opacity:1;fill-rule:nonzero;stroke:none"
           id="path1335" />
        <path
           d="m 165.105,450.942 c -1.269,-1.42 -2.586,-2.796 -3.951,-4.125 -11.478,-11.263 -25.665,-19.394 -40.33,-25.768 0.639,-1.118 1.806,-1.701 2.764,-2.5 0.6,-0.477 1.208,-0.945 1.823,-1.403 l 42.11,33.398 z"
           style="fill:#fa6800;fill-opacity:1;fill-rule:nonzero;stroke:none"
           id="path1337" />
        <path
           d="m 169.583,550.43 c 0.007,-0.162 0.013,-0.325 0.021,-0.486 l 0.23,0.345 z"
           style="fill:#f64d00;fill-opacity:1;fill-rule:nonzero;stroke:none"
           id="path1339" />
        <path
           d="m 53.442,332.994 c -10.145,1.652 -20.296,3.083 -30.449,4.735 3.195,-2.075 6.111,-4.624 9.249,-6.749 12.69,-8.995 26.149,-17.011 40.148,-23.883 l -17.664,25.721 c -0.428,0.062 -0.856,0.121 -1.284,0.176"
           style="fill:#e21c00;fill-opacity:1;fill-rule:nonzero;stroke:none"
           id="path1341" />
        <path
           d="m 94.944,281.243 c 1.75,-1.077 3.492,-2.176 5.238,-3.268 l 0.005,2.384 c -1.748,0.295 -3.495,0.591 -5.243,0.884"
           style="fill:#f24600;fill-opacity:1;fill-rule:nonzero;stroke:none"
           id="path1343" />
        <path
           d="m 91.758,329.224 c -3.507,0.639 -7.124,0.215 -10.68,0.584 -2.444,0.638 -4.944,0.11 -7.388,0.694 -3.77,0.367 -7.547,1.062 -11.374,1.222 -0.049,0.103 -0.159,0.319 -0.208,0.423 -2.488,-0.088 -4.936,0.321 -7.382,0.671 L 72.39,307.097 c 3.291,-1.616 6.611,-3.168 9.959,-4.656 5.86,-2.598 11.823,-5.02 17.871,-7.209 l 0.075,33.951 c -2.846,-0.039 -5.69,-0.003 -8.537,0.041"
           style="fill:#f24600;fill-opacity:1;fill-rule:nonzero;stroke:none"
           id="path1345" />
        <path
           d="m 84.848,377.9 c -9.033,-1.278 -18.122,-1.278 -27.205,-1.007 -3.139,0.631 -6.374,0.264 -9.513,1.111 -7.493,1.063 -14.77,3.139 -21.79,5.951 13.978,-10.624 26.678,-23.005 41.878,-31.88 9.513,-5.582 19.978,-9.887 30.928,-11.796 0.39,-0.09 0.781,-0.17 1.173,-0.246 l 0.09,40.619 C 95.263,379.54 90.078,378.608 84.848,377.9"
           style="fill:#f24600;fill-opacity:1;fill-rule:nonzero;stroke:none"
           id="path1347" />
      </g>
    </g>
  </g>
  <script
     id="mesh_polyfill"
     type="text/javascript">
!function(){const t=&quot;http://www.w3.org/2000/svg&quot;,e=&quot;http://www.w3.org/1999/xlink&quot;,s=&quot;http://www.w3.org/1999/xhtml&quot;,r=2;if(document.createElementNS(t,&quot;meshgradient&quot;).x)return;const n=(t,e,s,r)=&gt;{let n=new x(.5*(e.x+s.x),.5*(e.y+s.y)),o=new x(.5*(t.x+e.x),.5*(t.y+e.y)),i=new x(.5*(s.x+r.x),.5*(s.y+r.y)),a=new x(.5*(n.x+o.x),.5*(n.y+o.y)),h=new x(.5*(n.x+i.x),.5*(n.y+i.y)),l=new x(.5*(a.x+h.x),.5*(a.y+h.y));return[[t,o,a,l],[l,h,i,r]]},o=t=&gt;{let e=t[0].distSquared(t[1]),s=t[2].distSquared(t[3]),r=.25*t[0].distSquared(t[2]),n=.25*t[1].distSquared(t[3]),o=e&gt;s?e:s,i=r&gt;n?r:n;return 18*(o&gt;i?o:i)},i=(t,e)=&gt;Math.sqrt(t.distSquared(e)),a=(t,e)=&gt;t.scale(2/3).add(e.scale(1/3)),h=t=&gt;{let e,s,r,n,o,i,a,h=new g;return t.match(/(\w+\(\s*[^)]+\))+/g).forEach(t=&gt;{let l=t.match(/[\w.-]+/g),d=l.shift();switch(d){case&quot;translate&quot;:2===l.length?e=new g(1,0,0,1,l[0],l[1]):(console.error(&quot;mesh.js: translate does not have 2 arguments!&quot;),e=new g(1,0,0,1,0,0)),h=h.append(e);break;case&quot;scale&quot;:1===l.length?s=new g(l[0],0,0,l[0],0,0):2===l.length?s=new g(l[0],0,0,l[1],0,0):(console.error(&quot;mesh.js: scale does not have 1 or 2 arguments!&quot;),s=new g(1,0,0,1,0,0)),h=h.append(s);break;case&quot;rotate&quot;:if(3===l.length&amp;&amp;(e=new g(1,0,0,1,l[1],l[2]),h=h.append(e)),l[0]){r=l[0]*Math.PI/180;let t=Math.cos(r),e=Math.sin(r);Math.abs(t)&lt;1e-16&amp;&amp;(t=0),Math.abs(e)&lt;1e-16&amp;&amp;(e=0),a=new g(t,e,-e,t,0,0),h=h.append(a)}else console.error(&quot;math.js: No argument to rotate transform!&quot;);3===l.length&amp;&amp;(e=new g(1,0,0,1,-l[1],-l[2]),h=h.append(e));break;case&quot;skewX&quot;:l[0]?(r=l[0]*Math.PI/180,n=Math.tan(r),o=new g(1,0,n,1,0,0),h=h.append(o)):console.error(&quot;math.js: No argument to skewX transform!&quot;);break;case&quot;skewY&quot;:l[0]?(r=l[0]*Math.PI/180,n=Math.tan(r),i=new g(1,n,0,1,0,0),h=h.append(i)):console.error(&quot;math.js: No argument to skewY transform!&quot;);break;case&quot;matrix&quot;:6===l.length?h=h.append(new g(...l)):console.error(&quot;math.js: Incorrect number of arguments for matrix!&quot;);break;default:console.error(&quot;mesh.js: Unhandled transform type: &quot;+d)}}),h},l=t=&gt;{let e=[],s=t.split(/[ ,]+/);for(let t=0,r=s.length-1;t&lt;r;t+=2)e.push(new x(parseFloat(s[t]),parseFloat(s[t+1])));return e},d=(t,e)=&gt;{for(let s in e)t.setAttribute(s,e[s])},c=(t,e,s,r,n)=&gt;{let o,i,a=[0,0,0,0];for(let h=0;h&lt;3;++h)e[h]&lt;t[h]&amp;&amp;e[h]&lt;s[h]||t[h]&lt;e[h]&amp;&amp;s[h]&lt;e[h]?a[h]=0:(a[h]=.5*((e[h]-t[h])/r+(s[h]-e[h])/n),o=Math.abs(3*(e[h]-t[h])/r),i=Math.abs(3*(s[h]-e[h])/n),a[h]&gt;o?a[h]=o:a[h]&gt;i&amp;&amp;(a[h]=i));return a},u=[[1,0,0,0,0,0,0,0,0,0,0,0,0,0,0,0],[0,0,0,0,1,0,0,0,0,0,0,0,0,0,0,0],[-3,3,0,0,-2,-1,0,0,0,0,0,0,0,0,0,0],[2,-2,0,0,1,1,0,0,0,0,0,0,0,0,0,0],[0,0,0,0,0,0,0,0,1,0,0,0,0,0,0,0],[0,0,0,0,0,0,0,0,0,0,0,0,1,0,0,0],[0,0,0,0,0,0,0,0,-3,3,0,0,-2,-1,0,0],[0,0,0,0,0,0,0,0,2,-2,0,0,1,1,0,0],[-3,0,3,0,0,0,0,0,-2,0,-1,0,0,0,0,0],[0,0,0,0,-3,0,3,0,0,0,0,0,-2,0,-1,0],[9,-9,-9,9,6,3,-6,-3,6,-6,3,-3,4,2,2,1],[-6,6,6,-6,-3,-3,3,3,-4,4,-2,2,-2,-2,-1,-1],[2,0,-2,0,0,0,0,0,1,0,1,0,0,0,0,0],[0,0,0,0,2,0,-2,0,0,0,0,0,1,0,1,0],[-6,6,6,-6,-4,-2,4,2,-3,3,-3,3,-2,-1,-2,-1],[4,-4,-4,4,2,2,-2,-2,2,-2,2,-2,1,1,1,1]],f=t=&gt;{let e=[];for(let s=0;s&lt;16;++s){e[s]=0;for(let r=0;r&lt;16;++r)e[s]+=u[s][r]*t[r]}return e},p=(t,e,s)=&gt;{const r=e*e,n=s*s,o=e*e*e,i=s*s*s;return t[0]+t[1]*e+t[2]*r+t[3]*o+t[4]*s+t[5]*s*e+t[6]*s*r+t[7]*s*o+t[8]*n+t[9]*n*e+t[10]*n*r+t[11]*n*o+t[12]*i+t[13]*i*e+t[14]*i*r+t[15]*i*o},y=t=&gt;{let e=[],s=[],r=[];for(let s=0;s&lt;4;++s)e[s]=[],e[s][0]=n(t[0][s],t[1][s],t[2][s],t[3][s]),e[s][1]=[],e[s][1].push(...n(...e[s][0][0])),e[s][1].push(...n(...e[s][0][1])),e[s][2]=[],e[s][2].push(...n(...e[s][1][0])),e[s][2].push(...n(...e[s][1][1])),e[s][2].push(...n(...e[s][1][2])),e[s][2].push(...n(...e[s][1][3]));for(let t=0;t&lt;8;++t){s[t]=[];for(let r=0;r&lt;4;++r)s[t][r]=[],s[t][r][0]=n(e[0][2][t][r],e[1][2][t][r],e[2][2][t][r],e[3][2][t][r]),s[t][r][1]=[],s[t][r][1].push(...n(...s[t][r][0][0])),s[t][r][1].push(...n(...s[t][r][0][1])),s[t][r][2]=[],s[t][r][2].push(...n(...s[t][r][1][0])),s[t][r][2].push(...n(...s[t][r][1][1])),s[t][r][2].push(...n(...s[t][r][1][2])),s[t][r][2].push(...n(...s[t][r][1][3]))}for(let t=0;t&lt;8;++t){r[t]=[];for(let e=0;e&lt;8;++e)r[t][e]=[],r[t][e][0]=s[t][0][2][e],r[t][e][1]=s[t][1][2][e],r[t][e][2]=s[t][2][2][e],r[t][e][3]=s[t][3][2][e]}return r};class x{constructor(t,e){this.x=t||0,this.y=e||0}toString(){return`(x=${this.x}, y=${this.y})`}clone(){return new x(this.x,this.y)}add(t){return new x(this.x+t.x,this.y+t.y)}scale(t){return void 0===t.x?new x(this.x*t,this.y*t):new x(this.x*t.x,this.y*t.y)}distSquared(t){let e=this.x-t.x,s=this.y-t.y;return e*e+s*s}transform(t){let e=this.x*t.a+this.y*t.c+t.e,s=this.x*t.b+this.y*t.d+t.f;return new x(e,s)}}class g{constructor(t,e,s,r,n,o){void 0===t?(this.a=1,this.b=0,this.c=0,this.d=1,this.e=0,this.f=0):(this.a=t,this.b=e,this.c=s,this.d=r,this.e=n,this.f=o)}toString(){return`affine: ${this.a} ${this.c} ${this.e} \n       ${this.b} ${this.d} ${this.f}`}append(t){t instanceof g||console.error(&quot;mesh.js: argument to Affine.append is not affine!&quot;);let e=this.a*t.a+this.c*t.b,s=this.b*t.a+this.d*t.b,r=this.a*t.c+this.c*t.d,n=this.b*t.c+this.d*t.d,o=this.a*t.e+this.c*t.f+this.e,i=this.b*t.e+this.d*t.f+this.f;return new g(e,s,r,n,o,i)}}class w{constructor(t,e){this.nodes=t,this.colors=e}paintCurve(t,e){if(o(this.nodes)&gt;r){const s=n(...this.nodes);let r=[[],[]],o=[[],[]];for(let t=0;t&lt;4;++t)r[0][t]=this.colors[0][t],r[1][t]=(this.colors[0][t]+this.colors[1][t])/2,o[0][t]=r[1][t],o[1][t]=this.colors[1][t];let i=new w(s[0],r),a=new w(s[1],o);i.paintCurve(t,e),a.paintCurve(t,e)}else{let s=Math.round(this.nodes[0].x);if(s&gt;=0&amp;&amp;s&lt;e){let r=4*(~~this.nodes[0].y*e+s);t[r]=Math.round(this.colors[0][0]),t[r+1]=Math.round(this.colors[0][1]),t[r+2]=Math.round(this.colors[0][2]),t[r+3]=Math.round(this.colors[0][3])}}}}class m{constructor(t,e){this.nodes=t,this.colors=e}split(){let t=[[],[],[],[]],e=[[],[],[],[]],s=[[[],[]],[[],[]]],r=[[[],[]],[[],[]]];for(let s=0;s&lt;4;++s){const r=n(this.nodes[0][s],this.nodes[1][s],this.nodes[2][s],this.nodes[3][s]);t[0][s]=r[0][0],t[1][s]=r[0][1],t[2][s]=r[0][2],t[3][s]=r[0][3],e[0][s]=r[1][0],e[1][s]=r[1][1],e[2][s]=r[1][2],e[3][s]=r[1][3]}for(let t=0;t&lt;4;++t)s[0][0][t]=this.colors[0][0][t],s[0][1][t]=this.colors[0][1][t],s[1][0][t]=(this.colors[0][0][t]+this.colors[1][0][t])/2,s[1][1][t]=(this.colors[0][1][t]+this.colors[1][1][t])/2,r[0][0][t]=s[1][0][t],r[0][1][t]=s[1][1][t],r[1][0][t]=this.colors[1][0][t],r[1][1][t]=this.colors[1][1][t];return[new m(t,s),new m(e,r)]}paint(t,e){let s,n=!1;for(let t=0;t&lt;4;++t)if((s=o([this.nodes[0][t],this.nodes[1][t],this.nodes[2][t],this.nodes[3][t]]))&gt;r){n=!0;break}if(n){let s=this.split();s[0].paint(t,e),s[1].paint(t,e)}else{new w([...this.nodes[0]],[...this.colors[0]]).paintCurve(t,e)}}}class b{constructor(t){this.readMesh(t),this.type=t.getAttribute(&quot;type&quot;)||&quot;bilinear&quot;}readMesh(t){let e=[[]],s=[[]],r=Number(t.getAttribute(&quot;x&quot;)),n=Number(t.getAttribute(&quot;y&quot;));e[0][0]=new x(r,n);let o=t.children;for(let t=0,r=o.length;t&lt;r;++t){e[3*t+1]=[],e[3*t+2]=[],e[3*t+3]=[],s[t+1]=[];let r=o[t].children;for(let n=0,o=r.length;n&lt;o;++n){let o=r[n].children;for(let r=0,i=o.length;r&lt;i;++r){let i=r;0!==t&amp;&amp;++i;let h,d=o[r].getAttribute(&quot;path&quot;),c=&quot;l&quot;;null!=d&amp;&amp;(c=(h=d.match(/\s*([lLcC])\s*(.*)/))[1]);let u=l(h[2]);switch(c){case&quot;l&quot;:0===i?(e[3*t][3*n+3]=u[0].add(e[3*t][3*n]),e[3*t][3*n+1]=a(e[3*t][3*n],e[3*t][3*n+3]),e[3*t][3*n+2]=a(e[3*t][3*n+3],e[3*t][3*n])):1===i?(e[3*t+3][3*n+3]=u[0].add(e[3*t][3*n+3]),e[3*t+1][3*n+3]=a(e[3*t][3*n+3],e[3*t+3][3*n+3]),e[3*t+2][3*n+3]=a(e[3*t+3][3*n+3],e[3*t][3*n+3])):2===i?(0===n&amp;&amp;(e[3*t+3][3*n+0]=u[0].add(e[3*t+3][3*n+3])),e[3*t+3][3*n+1]=a(e[3*t+3][3*n],e[3*t+3][3*n+3]),e[3*t+3][3*n+2]=a(e[3*t+3][3*n+3],e[3*t+3][3*n])):(e[3*t+1][3*n]=a(e[3*t][3*n],e[3*t+3][3*n]),e[3*t+2][3*n]=a(e[3*t+3][3*n],e[3*t][3*n]));break;case&quot;L&quot;:0===i?(e[3*t][3*n+3]=u[0],e[3*t][3*n+1]=a(e[3*t][3*n],e[3*t][3*n+3]),e[3*t][3*n+2]=a(e[3*t][3*n+3],e[3*t][3*n])):1===i?(e[3*t+3][3*n+3]=u[0],e[3*t+1][3*n+3]=a(e[3*t][3*n+3],e[3*t+3][3*n+3]),e[3*t+2][3*n+3]=a(e[3*t+3][3*n+3],e[3*t][3*n+3])):2===i?(0===n&amp;&amp;(e[3*t+3][3*n+0]=u[0]),e[3*t+3][3*n+1]=a(e[3*t+3][3*n],e[3*t+3][3*n+3]),e[3*t+3][3*n+2]=a(e[3*t+3][3*n+3],e[3*t+3][3*n])):(e[3*t+1][3*n]=a(e[3*t][3*n],e[3*t+3][3*n]),e[3*t+2][3*n]=a(e[3*t+3][3*n],e[3*t][3*n]));break;case&quot;c&quot;:0===i?(e[3*t][3*n+1]=u[0].add(e[3*t][3*n]),e[3*t][3*n+2]=u[1].add(e[3*t][3*n]),e[3*t][3*n+3]=u[2].add(e[3*t][3*n])):1===i?(e[3*t+1][3*n+3]=u[0].add(e[3*t][3*n+3]),e[3*t+2][3*n+3]=u[1].add(e[3*t][3*n+3]),e[3*t+3][3*n+3]=u[2].add(e[3*t][3*n+3])):2===i?(e[3*t+3][3*n+2]=u[0].add(e[3*t+3][3*n+3]),e[3*t+3][3*n+1]=u[1].add(e[3*t+3][3*n+3]),0===n&amp;&amp;(e[3*t+3][3*n+0]=u[2].add(e[3*t+3][3*n+3]))):(e[3*t+2][3*n]=u[0].add(e[3*t+3][3*n]),e[3*t+1][3*n]=u[1].add(e[3*t+3][3*n]));break;case&quot;C&quot;:0===i?(e[3*t][3*n+1]=u[0],e[3*t][3*n+2]=u[1],e[3*t][3*n+3]=u[2]):1===i?(e[3*t+1][3*n+3]=u[0],e[3*t+2][3*n+3]=u[1],e[3*t+3][3*n+3]=u[2]):2===i?(e[3*t+3][3*n+2]=u[0],e[3*t+3][3*n+1]=u[1],0===n&amp;&amp;(e[3*t+3][3*n+0]=u[2])):(e[3*t+2][3*n]=u[0],e[3*t+1][3*n]=u[1]);break;default:console.error(&quot;mesh.js: &quot;+c+&quot; invalid path type.&quot;)}if(0===t&amp;&amp;0===n||r&gt;0){let e=window.getComputedStyle(o[r]).stopColor.match(/^rgb\s*\(\s*(\d+)\s*,\s*(\d+)\s*,\s*(\d+)\s*\)$/i),a=window.getComputedStyle(o[r]).stopOpacity,h=255;a&amp;&amp;(h=Math.floor(255*a)),e&amp;&amp;(0===i?(s[t][n]=[],s[t][n][0]=Math.floor(e[1]),s[t][n][1]=Math.floor(e[2]),s[t][n][2]=Math.floor(e[3]),s[t][n][3]=h):1===i?(s[t][n+1]=[],s[t][n+1][0]=Math.floor(e[1]),s[t][n+1][1]=Math.floor(e[2]),s[t][n+1][2]=Math.floor(e[3]),s[t][n+1][3]=h):2===i?(s[t+1][n+1]=[],s[t+1][n+1][0]=Math.floor(e[1]),s[t+1][n+1][1]=Math.floor(e[2]),s[t+1][n+1][2]=Math.floor(e[3]),s[t+1][n+1][3]=h):3===i&amp;&amp;(s[t+1][n]=[],s[t+1][n][0]=Math.floor(e[1]),s[t+1][n][1]=Math.floor(e[2]),s[t+1][n][2]=Math.floor(e[3]),s[t+1][n][3]=h))}}e[3*t+1][3*n+1]=new x,e[3*t+1][3*n+2]=new x,e[3*t+2][3*n+1]=new x,e[3*t+2][3*n+2]=new x,e[3*t+1][3*n+1].x=(-4*e[3*t][3*n].x+6*(e[3*t][3*n+1].x+e[3*t+1][3*n].x)+-2*(e[3*t][3*n+3].x+e[3*t+3][3*n].x)+3*(e[3*t+3][3*n+1].x+e[3*t+1][3*n+3].x)+-1*e[3*t+3][3*n+3].x)/9,e[3*t+1][3*n+2].x=(-4*e[3*t][3*n+3].x+6*(e[3*t][3*n+2].x+e[3*t+1][3*n+3].x)+-2*(e[3*t][3*n].x+e[3*t+3][3*n+3].x)+3*(e[3*t+3][3*n+2].x+e[3*t+1][3*n].x)+-1*e[3*t+3][3*n].x)/9,e[3*t+2][3*n+1].x=(-4*e[3*t+3][3*n].x+6*(e[3*t+3][3*n+1].x+e[3*t+2][3*n].x)+-2*(e[3*t+3][3*n+3].x+e[3*t][3*n].x)+3*(e[3*t][3*n+1].x+e[3*t+2][3*n+3].x)+-1*e[3*t][3*n+3].x)/9,e[3*t+2][3*n+2].x=(-4*e[3*t+3][3*n+3].x+6*(e[3*t+3][3*n+2].x+e[3*t+2][3*n+3].x)+-2*(e[3*t+3][3*n].x+e[3*t][3*n+3].x)+3*(e[3*t][3*n+2].x+e[3*t+2][3*n].x)+-1*e[3*t][3*n].x)/9,e[3*t+1][3*n+1].y=(-4*e[3*t][3*n].y+6*(e[3*t][3*n+1].y+e[3*t+1][3*n].y)+-2*(e[3*t][3*n+3].y+e[3*t+3][3*n].y)+3*(e[3*t+3][3*n+1].y+e[3*t+1][3*n+3].y)+-1*e[3*t+3][3*n+3].y)/9,e[3*t+1][3*n+2].y=(-4*e[3*t][3*n+3].y+6*(e[3*t][3*n+2].y+e[3*t+1][3*n+3].y)+-2*(e[3*t][3*n].y+e[3*t+3][3*n+3].y)+3*(e[3*t+3][3*n+2].y+e[3*t+1][3*n].y)+-1*e[3*t+3][3*n].y)/9,e[3*t+2][3*n+1].y=(-4*e[3*t+3][3*n].y+6*(e[3*t+3][3*n+1].y+e[3*t+2][3*n].y)+-2*(e[3*t+3][3*n+3].y+e[3*t][3*n].y)+3*(e[3*t][3*n+1].y+e[3*t+2][3*n+3].y)+-1*e[3*t][3*n+3].y)/9,e[3*t+2][3*n+2].y=(-4*e[3*t+3][3*n+3].y+6*(e[3*t+3][3*n+2].y+e[3*t+2][3*n+3].y)+-2*(e[3*t+3][3*n].y+e[3*t][3*n+3].y)+3*(e[3*t][3*n+2].y+e[3*t+2][3*n].y)+-1*e[3*t][3*n].y)/9}}this.nodes=e,this.colors=s}paintMesh(t,e){let s=(this.nodes.length-1)/3,r=(this.nodes[0].length-1)/3;if(&quot;bilinear&quot;===this.type||s&lt;2||r&lt;2){let n;for(let o=0;o&lt;s;++o)for(let s=0;s&lt;r;++s){let r=[];for(let t=3*o,e=3*o+4;t&lt;e;++t)r.push(this.nodes[t].slice(3*s,3*s+4));let i=[];i.push(this.colors[o].slice(s,s+2)),i.push(this.colors[o+1].slice(s,s+2)),(n=new m(r,i)).paint(t,e)}}else{let n,o,a,h,l,d,u;const x=s,g=r;s++,r++;let w=new Array(s);for(let t=0;t&lt;s;++t){w[t]=new Array(r);for(let e=0;e&lt;r;++e)w[t][e]=[],w[t][e][0]=this.nodes[3*t][3*e],w[t][e][1]=this.colors[t][e]}for(let t=0;t&lt;s;++t)for(let e=0;e&lt;r;++e)0!==t&amp;&amp;t!==x&amp;&amp;(n=i(w[t-1][e][0],w[t][e][0]),o=i(w[t+1][e][0],w[t][e][0]),w[t][e][2]=c(w[t-1][e][1],w[t][e][1],w[t+1][e][1],n,o)),0!==e&amp;&amp;e!==g&amp;&amp;(n=i(w[t][e-1][0],w[t][e][0]),o=i(w[t][e+1][0],w[t][e][0]),w[t][e][3]=c(w[t][e-1][1],w[t][e][1],w[t][e+1][1],n,o));for(let t=0;t&lt;r;++t){w[0][t][2]=[],w[x][t][2]=[];for(let e=0;e&lt;4;++e)n=i(w[1][t][0],w[0][t][0]),o=i(w[x][t][0],w[x-1][t][0]),w[0][t][2][e]=n&gt;0?2*(w[1][t][1][e]-w[0][t][1][e])/n-w[1][t][2][e]:0,w[x][t][2][e]=o&gt;0?2*(w[x][t][1][e]-w[x-1][t][1][e])/o-w[x-1][t][2][e]:0}for(let t=0;t&lt;s;++t){w[t][0][3]=[],w[t][g][3]=[];for(let e=0;e&lt;4;++e)n=i(w[t][1][0],w[t][0][0]),o=i(w[t][g][0],w[t][g-1][0]),w[t][0][3][e]=n&gt;0?2*(w[t][1][1][e]-w[t][0][1][e])/n-w[t][1][3][e]:0,w[t][g][3][e]=o&gt;0?2*(w[t][g][1][e]-w[t][g-1][1][e])/o-w[t][g-1][3][e]:0}for(let s=0;s&lt;x;++s)for(let r=0;r&lt;g;++r){let n=i(w[s][r][0],w[s+1][r][0]),o=i(w[s][r+1][0],w[s+1][r+1][0]),c=i(w[s][r][0],w[s][r+1][0]),x=i(w[s+1][r][0],w[s+1][r+1][0]),g=[[],[],[],[]];for(let t=0;t&lt;4;++t){(d=[])[0]=w[s][r][1][t],d[1]=w[s+1][r][1][t],d[2]=w[s][r+1][1][t],d[3]=w[s+1][r+1][1][t],d[4]=w[s][r][2][t]*n,d[5]=w[s+1][r][2][t]*n,d[6]=w[s][r+1][2][t]*o,d[7]=w[s+1][r+1][2][t]*o,d[8]=w[s][r][3][t]*c,d[9]=w[s+1][r][3][t]*x,d[10]=w[s][r+1][3][t]*c,d[11]=w[s+1][r+1][3][t]*x,d[12]=0,d[13]=0,d[14]=0,d[15]=0,u=f(d);for(let e=0;e&lt;9;++e){g[t][e]=[];for(let s=0;s&lt;9;++s)g[t][e][s]=p(u,e/8,s/8),g[t][e][s]&gt;255?g[t][e][s]=255:g[t][e][s]&lt;0&amp;&amp;(g[t][e][s]=0)}}h=[];for(let t=3*s,e=3*s+4;t&lt;e;++t)h.push(this.nodes[t].slice(3*r,3*r+4));l=y(h);for(let s=0;s&lt;8;++s)for(let r=0;r&lt;8;++r)(a=new m(l[s][r],[[[g[0][s][r],g[1][s][r],g[2][s][r],g[3][s][r]],[g[0][s][r+1],g[1][s][r+1],g[2][s][r+1],g[3][s][r+1]]],[[g[0][s+1][r],g[1][s+1][r],g[2][s+1][r],g[3][s+1][r]],[g[0][s+1][r+1],g[1][s+1][r+1],g[2][s+1][r+1],g[3][s+1][r+1]]]])).paint(t,e)}}}transform(t){if(t instanceof x)for(let e=0,s=this.nodes.length;e&lt;s;++e)for(let s=0,r=this.nodes[0].length;s&lt;r;++s)this.nodes[e][s]=this.nodes[e][s].add(t);else if(t instanceof g)for(let e=0,s=this.nodes.length;e&lt;s;++e)for(let s=0,r=this.nodes[0].length;s&lt;r;++s)this.nodes[e][s]=this.nodes[e][s].transform(t)}scale(t){for(let e=0,s=this.nodes.length;e&lt;s;++e)for(let s=0,r=this.nodes[0].length;s&lt;r;++s)this.nodes[e][s]=this.nodes[e][s].scale(t)}}document.querySelectorAll(&quot;rect,circle,ellipse,path,text&quot;).forEach((r,n)=&gt;{let o=r.getAttribute(&quot;id&quot;);o||(o=&quot;patchjs_shape&quot;+n,r.setAttribute(&quot;id&quot;,o));const i=r.style.fill.match(/^url\(\s*&quot;?\s*#([^\s&quot;]+)&quot;?\s*\)/),a=r.style.stroke.match(/^url\(\s*&quot;?\s*#([^\s&quot;]+)&quot;?\s*\)/);if(i&amp;&amp;i[1]){const a=document.getElementById(i[1]);if(a&amp;&amp;&quot;meshgradient&quot;===a.nodeName){const i=r.getBBox();let l=document.createElementNS(s,&quot;canvas&quot;);d(l,{width:i.width,height:i.height});const c=l.getContext(&quot;2d&quot;);let u=c.createImageData(i.width,i.height);const f=new b(a);&quot;objectBoundingBox&quot;===a.getAttribute(&quot;gradientUnits&quot;)&amp;&amp;f.scale(new x(i.width,i.height));const p=a.getAttribute(&quot;gradientTransform&quot;);null!=p&amp;&amp;f.transform(h(p)),&quot;userSpaceOnUse&quot;===a.getAttribute(&quot;gradientUnits&quot;)&amp;&amp;f.transform(new x(-i.x,-i.y)),f.paintMesh(u.data,l.width),c.putImageData(u,0,0);const y=document.createElementNS(t,&quot;image&quot;);d(y,{width:i.width,height:i.height,x:i.x,y:i.y});let g=l.toDataURL();y.setAttributeNS(e,&quot;xlink:href&quot;,g),r.parentNode.insertBefore(y,r),r.style.fill=&quot;none&quot;;const w=document.createElementNS(t,&quot;use&quot;);w.setAttributeNS(e,&quot;xlink:href&quot;,&quot;#&quot;+o);const m=&quot;patchjs_clip&quot;+n,M=document.createElementNS(t,&quot;clipPath&quot;);M.setAttribute(&quot;id&quot;,m),M.appendChild(w),r.parentElement.insertBefore(M,r),y.setAttribute(&quot;clip-path&quot;,&quot;url(#&quot;+m+&quot;)&quot;),u=null,l=null,g=null}}if(a&amp;&amp;a[1]){const o=document.getElementById(a[1]);if(o&amp;&amp;&quot;meshgradient&quot;===o.nodeName){const i=parseFloat(r.style.strokeWidth.slice(0,-2))*(parseFloat(r.style.strokeMiterlimit)||parseFloat(r.getAttribute(&quot;stroke-miterlimit&quot;))||1),a=r.getBBox(),l=Math.trunc(a.width+i),c=Math.trunc(a.height+i),u=Math.trunc(a.x-i/2),f=Math.trunc(a.y-i/2);let p=document.createElementNS(s,&quot;canvas&quot;);d(p,{width:l,height:c});const y=p.getContext(&quot;2d&quot;);let g=y.createImageData(l,c);const w=new b(o);&quot;objectBoundingBox&quot;===o.getAttribute(&quot;gradientUnits&quot;)&amp;&amp;w.scale(new x(l,c));const m=o.getAttribute(&quot;gradientTransform&quot;);null!=m&amp;&amp;w.transform(h(m)),&quot;userSpaceOnUse&quot;===o.getAttribute(&quot;gradientUnits&quot;)&amp;&amp;w.transform(new x(-u,-f)),w.paintMesh(g.data,p.width),y.putImageData(g,0,0);const M=document.createElementNS(t,&quot;image&quot;);d(M,{width:l,height:c,x:0,y:0});let S=p.toDataURL();M.setAttributeNS(e,&quot;xlink:href&quot;,S);const k=&quot;pattern_clip&quot;+n,A=document.createElementNS(t,&quot;pattern&quot;);d(A,{id:k,patternUnits:&quot;userSpaceOnUse&quot;,width:l,height:c,x:u,y:f}),A.appendChild(M),o.parentNode.appendChild(A),r.style.stroke=&quot;url(#&quot;+k+&quot;)&quot;,g=null,p=null,S=null}}})}();
</script>
</svg>
