<svg id="svg" width="18" height="18" display="block" version="1.1" viewBox="0 0 18 18" xmlns="http://www.w3.org/2000/svg">
 <path d="m5.6507 1-0.26018 7.25e-4h-0.29804l-0.31571 0.0015c-0.19852 1.95e-4 -0.39702 4.55e-4 -0.59554 7.25e-4l-0.76411 0.0025-2.4171 0.005806v8.924h1.7371v7.0648h1.3714c0.09143-0.09296 0.09151-0.09297 0.1025-0.3653l-7.13e-4 -0.36965c4.3e-5 -0.21392-5.5e-5 -0.42789-7.13e-4 -0.64181-4.94e-4 -0.15326-7.22e-4 -0.30644-8.96e-4 -0.4597-2.38e-4 -0.40081-7.95e-4 -0.80165-0.0018-1.2025-1e-3 -0.41568-0.0017-0.83145-0.0021-1.2471-8.96e-4 -0.80845-0.0025-1.6168-0.0043-2.4253l-5.49e-4 -0.26054c0.19352-0.0093 0.38704-0.01861 0.58054-0.0285l0.23661-0.01216 0.23554-0.01108 0.22411-0.0118c0.12321-0.0061 0.2464-0.01493 0.36893-0.02941 0.10188-0.10358 0.10181-0.10353 0.10375-0.65797l-5.39e-4 -0.24619c5.12e-4 -0.27135 9.45e-4 -0.54276 7.13e-4 -0.81411-2.1e-4 -0.19451-2.38e-4 -0.38902-1.83e-4 -0.58353 2.38e-4 -0.40398 3.29e-4 -0.80792 0-1.2119-5.48e-4 -0.52738-8.78e-4 -1.0547-3.56e-4 -1.5821 4.29e-4 -0.41043 4.93e-4 -0.8209 3.56e-4 -1.2313-1.19e-4 -0.19555-1.19e-4 -0.39106-1.83e-4 -0.58662 3.11e-4 -0.28274 5.85e-4 -0.5655 1.83e-4 -0.84824l-5.39e-4 -0.25781c6.3e-4 -0.27116-0.0026-0.54008-0.01177-0.8112-0.09143-0.09296-0.09147-0.09304-0.28643-0.10421zm3.2121 0.13907c-0.44715 0.09472-0.69699 0.35219-0.78893 0.80812l-5.39e-4 0.32517c-0.0023 0.19181-0.0039 0.38335-0.0027 0.57518 1e-3 0.14041 0.0013 0.2808 7.13e-4 0.42122-0.0026 0.38274-0.0036 0.76543-0.0023 1.1482 0.0015 0.40708 0.0014 0.81407 7.13e-4 1.2212-0.0012 0.68171-8.23e-4 1.3635 0.0013 2.0453 0.0025 0.79381 0.0032 1.5875 7.13e-4 2.3813-0.0022 0.68674-0.0032 1.3734-0.0023 2.0601 7.13e-4 0.40894 0.0017 0.81784 5.39e-4 1.2268-0.0014 0.39066-0.0023 0.7813-1.83e-4 1.172 9.94e-4 0.14401 0.0019 0.28809 0.0025 0.43211-0.0014 0.2005-0.0029 0.40082-0.0011 0.60132l0.0021 0.18192c5.22e-4 0.32508 5.12e-4 0.32513 0.05804 0.6104 0.23784 0.29519 0.36107 0.44444 0.73143 0.52289 0.27429-0.0581 0.2742-0.05819 0.51607-0.24111 0.25106-0.32873 0.27052-0.49083 0.27875-0.89399l-2e-3 -0.23748c0.0036-0.25596 0.0068-0.51182 0.0071-0.76781 4.4e-5 -0.26276 2e-3 -0.52539 0.0046-0.78814 0.0019-0.16885 0.0037-0.3377 0.0054-0.50655 3.71e-4 -0.29995 0.0014-0.59933 0.01286-0.89908 0.16837-2.0225 0.96948-4.0663 2.4629-5.4555l0.28-0.21496c0.95806-0.86468 2.0101-1.299 3.2686-1.4641 0.38504-0.04163 0.73207-0.05368 1.0761-0.24292 0.21722-0.24408 0.21722-0.24408 0.22687-0.80285-0.10286-0.21496-0.10286-0.21496-0.27429-0.37183-0.4453-0.22598-0.4453-0.22598-1.3296-0.13617-2.0174 0.2758-3.8632 1.3981-5.11 3.03l-0.21607 0.29685c-0.0732 0.10017-0.14647 0.20029-0.21964 0.30048l-0.16464 0.22713c-0.0012-0.70841-0.0043-1.4168-0.01018-2.1251-0.0032-0.36141-0.0066-0.72284-0.0075-1.0843-3.66e-4 -0.3538-0.0014-0.7076-5e-3 -1.0614-0.0016-0.1348-0.0029-0.26952-0.0041-0.40433 4.11e-4 -0.13108 7.58e-4 -0.26218 0.0011-0.39326l-0.0054-0.36638c-0.0018-0.32214-0.0019-0.32221-0.06035-0.60749-0.23796-0.29494-0.36117-0.44446-0.73143-0.52289zm-5.4373 1.7297c0.2441-0.0048 0.48733 0.08377 0.77446 0.28051 0.22269 0.36085 0.3078 0.62478 0.22857 1.04-0.11617 0.36424-0.2506 0.5478-0.59428 0.72623-0.37081 0.05857-0.695 0.05816-1.04-0.09877-0.21572-0.2615-0.32008-0.50633-0.42286-0.83081 0.0209-0.36837 0.07162-0.52754 0.27428-0.83662 0.29076-0.17738 0.53572-0.27567 0.77982-0.28051zm0.01803 3.1154c0.19918 0.0027 0.40534 0.0535 0.60786 0.14561 0.21436 0.25985 0.31927 0.5093 0.42286 0.83081-0.0164 0.35857-0.12114 0.57938-0.36572 0.83662-0.30032 0.19678-0.47506 0.28186-0.83428 0.26725-0.42856-0.13261-0.57433-0.26462-0.8-0.66232-0.12411-0.42063-0.09703-0.60182 0.08-0.9993 0.24465-0.29397 0.55731-0.42314 0.88928-0.41867z"/>
</svg>
