<?xml version="1.0" encoding="UTF-8" standalone="no"?>
<svg
   width="35.2mm"
   height="35.227mm"
   version="1.1"
   viewBox="0 0 35.2 35.227"
   id="svg6"
   xmlns="http://www.w3.org/2000/svg"
   xmlns:svg="http://www.w3.org/2000/svg">
  <defs
     id="defs6" />
  <path
     d="M 31.172997,3.76749 H 0.55299735 a 0.55348,1.3837 0 0 1 0,-2.7674 H 31.172997 a 0.55348,1.3837 0 0 1 0,2.7674 z"
     id="path1"
     style="stroke-width:0.26458;fill:#000000;fill-opacity:1" />
  <path
     d="M 7.4724973,9.96819 A 1.3834,0.55315 0 0 1 6.0882974,9.41471 v -6.2007 a 1.38425,0.55349999 0 0 1 2.7684999,0 v 6.2007 a 1.3834,0.55315 0 0 1 -1.3842,0.55348 z"
     id="path2"
     style="stroke-width:0.26458;fill:#000000;fill-opacity:1" />
  <path
     d="m 25.737997,9.98719 a 1.3834,0.55315 0 0 1 -1.3842,-0.55348 v -6.2201 a 1.38425,0.55349999 0 0 1 2.7685,0 v 6.2201 a 1.3834,0.55316 0 0 1 -1.3842,0.55348 z"
     id="path3"
     style="stroke-width:0.26458;fill:#000000;fill-opacity:1" />
  <path
     d="m 28.499997,19.87319 c 0,3.302 -1.1853,6.096 -3.4713,8.382 -2.3283,2.3283 -5.1223,3.4713 -8.382,3.4713 -3.2597,0 -6.0537,-1.143 -8.3819996,-3.4713 -2.286,-2.286 -3.4713,-5.08 -3.4713,-8.382 0,-3.2173 1.1853,-6.0113 3.4713,-8.3397 2.3282996,-2.286 5.1222996,-3.4713 8.3819996,-3.4713 3.2597,0 6.0537,1.1853 8.382,3.4713 2.286,2.3283 3.4713,5.1223 3.4713,8.3397 z m 2.9633,0 c 0,-2.032 -0.42333,-3.937 -1.1853,-5.7573 -0.762,-1.778 -1.8203,-3.3443 -3.175,-4.699 -1.3547,-1.3123 -2.921,-2.3707 -4.7413,-3.1327 -1.778,-0.762 -3.7253,-1.143 -5.7573,-1.143 -2.032,0 -3.937,0.381 -5.715,1.143 -1.7779997,0.76199 -3.3442997,1.8203 -4.6989997,3.1327 -1.3547,1.3547 -2.413,2.921 -3.175,4.699 -0.762,1.8203 -1.1853,3.7253 -1.1853,5.7573 0,2.032 0.42334,3.9793 1.1853,5.7573 0.76199,1.8203 1.8203,3.3867 3.175,4.7413 1.3547,1.3547 2.921,2.413 4.6989997,3.175 1.778,0.762 3.683,1.1853 5.715,1.1853 2.032,0 3.9793,-0.42333 5.7573,-1.1853 1.8203,-0.762 3.3867,-1.8203 4.7413,-3.175 1.3547,-1.3547 2.413,-2.921 3.175,-4.7413 0.762,-1.778 1.1853,-3.7253 1.1853,-5.7573 z"
     stroke="#000000"
     stroke-linecap="round"
     stroke-linejoin="round"
     id="path4"
     style="fill:#000000;fill-opacity:1" />
  <path
     d="m 34.149997,1.05319 c -0.381,-0.33867 -0.84667,-0.55033 -1.3547,-0.55033 -0.50803,0 -0.97366,0.21166 -1.3123,0.55033 -0.381,0.381 -0.55033,0.84667 -0.55033,1.3547 0,0.50799 0.16933,0.97366 0.55033,1.3123 0.33867,0.381 0.80433,0.55033 1.3123,0.55033 0.50797,0 0.97367,-0.16933 1.3547,-0.55033 0.33866,-0.33867 0.55033,-0.80434 0.55033,-1.3123 0,-0.508 -0.21167,-0.97367 -0.55033,-1.3547 z"
     stroke="#000000"
     stroke-linecap="round"
     stroke-linejoin="round"
     id="path5"
     style="fill:#000000;fill-opacity:1" />
  <path
     d="m 16.642997,11.80219 c -3.7651,0 -6.8455997,0.42785 -6.8455997,3.4228 v 8.1291 c 0,1.6258 1.3690997,2.9949 2.9948997,2.9949 l -1.2835,1.2835 v 0.42785 h 10.268 v -0.42785 l -1.2835,-1.2835 c 1.6258,0 2.9949,-1.3691 2.9949,-2.9949 v -8.1291 c 0,-2.9949 -3.0805,-3.4228 -6.8456,-3.4228 z m -3.8506,12.835 c -0.68456,0 -1.2835,-0.59899 -1.2835,-1.2835 0,-0.68451 0.59899,-1.2835 1.2835,-1.2835 0.68451,0 1.2835,0.59899 1.2835,1.2835 0,0.68451 -0.59899,1.2835 -1.2835,1.2835 z m 2.9949,-5.1342 h -4.2785 v -4.2785 h 4.2785 z m 4.7063,5.1342 c -0.68456,0 -1.2835,-0.59899 -1.2835,-1.2835 0,-0.68451 0.59899,-1.2835 1.2835,-1.2835 0.68451,0 1.2835,0.59899 1.2835,1.2835 0,0.68451 -0.59899,1.2835 -1.2835,1.2835 z m 1.2835,-5.1342 h -4.2785 v -4.2785 h 4.2785 z"
     stroke-width="0.26458"
     id="path6"
     style="fill:#000000;fill-opacity:1" />
</svg>
