<svg width="35.2mm" height="35.227mm" version="1.1" viewBox="0 0 35.2 35.227" xmlns="http://www.w3.org/2000/svg">
 <g transform="translate(-2.65e-6 -.10681)">
  <g>
   <g stroke-width=".26458">
    <path d="m31.173 3.8743h-30.62a0.55348 1.3837 0 0 1 0-2.7674h30.62a0.55348 1.3837 0 0 1 0 2.7674z"/>
    <path d="m7.4725 10.075a1.3834 0.55315 0 0 1-1.3842-0.55348v-6.2007a1.3842 0.55348 0 0 1 2.7685 0v6.2007a1.3834 0.55315 0 0 1-1.3842 0.55348z"/>
    <path d="m25.738 10.094a1.3834 0.55315 0 0 1-1.3842-0.55348v-6.2201a1.3842 0.55348 0 0 1 2.7685 0v6.2201a1.3834 0.55316 0 0 1-1.3842 0.55348z"/>
   </g>
   <path transform="translate(-242.41 -504.71)" d="m270.91 524.69c0 3.302-1.1853 6.096-3.4713 8.382-2.3283 2.3283-5.1223 3.4713-8.382 3.4713-3.2597 0-6.0537-1.143-8.382-3.4713-2.286-2.286-3.4713-5.08-3.4713-8.382 0-3.2173 1.1853-6.0113 3.4713-8.3397 2.3283-2.286 5.1223-3.4713 8.382-3.4713 3.2597 0 6.0537 1.1853 8.382 3.4713 2.286 2.3283 3.4713 5.1223 3.4713 8.3397zm2.9633 0c0-2.032-0.42333-3.937-1.1853-5.7573-0.762-1.778-1.8203-3.3443-3.175-4.699-1.3547-1.3123-2.921-2.3707-4.7413-3.1327-1.778-0.762-3.7253-1.143-5.7573-1.143-2.032 0-3.937 0.381-5.715 1.143-1.778 0.76199-3.3443 1.8203-4.699 3.1327-1.3547 1.3547-2.413 2.921-3.175 4.699-0.762 1.8203-1.1853 3.7253-1.1853 5.7573 0 2.032 0.42334 3.9793 1.1853 5.7573 0.76199 1.8203 1.8203 3.3867 3.175 4.7413 1.3547 1.3547 2.921 2.413 4.699 3.175s3.683 1.1853 5.715 1.1853c2.032 0 3.9793-0.42333 5.7573-1.1853 1.8203-0.762 3.3867-1.8203 4.7413-3.175 1.3547-1.3547 2.413-2.921 3.175-4.7413 0.762-1.778 1.1853-3.7253 1.1853-5.7573z" stroke="#000" stroke-linecap="round" stroke-linejoin="round"/>
   <path transform="translate(-242.41 -504.71)" d="m276.56 505.87c-0.381-0.33867-0.84667-0.55033-1.3547-0.55033s-0.97366 0.21166-1.3123 0.55033c-0.381 0.381-0.55033 0.84667-0.55033 1.3547 0 0.50799 0.16933 0.97366 0.55033 1.3123 0.33867 0.381 0.80433 0.55033 1.3123 0.55033s0.97367-0.16933 1.3547-0.55033c0.33866-0.33867 0.55033-0.80434 0.55033-1.3123 0-0.508-0.21167-0.97367-0.55033-1.3547z" stroke="#000" stroke-linecap="round" stroke-linejoin="round"/>
  </g>
  <path d="m16.643 11.909c-3.7651 0-6.8456 0.42785-6.8456 3.4228v8.1291c0 1.6258 1.3691 2.9949 2.9949 2.9949l-1.2835 1.2835v0.42785h10.268v-0.42785l-1.2835-1.2835c1.6258 0 2.9949-1.3691 2.9949-2.9949v-8.1291c0-2.9949-3.0805-3.4228-6.8456-3.4228zm-3.8506 12.835c-0.68456 0-1.2835-0.59899-1.2835-1.2835s0.59899-1.2835 1.2835-1.2835 1.2835 0.59899 1.2835 1.2835-0.59899 1.2835-1.2835 1.2835zm2.9949-5.1342h-4.2785v-4.2785h4.2785zm4.7063 5.1342c-0.68456 0-1.2835-0.59899-1.2835-1.2835s0.59899-1.2835 1.2835-1.2835 1.2835 0.59899 1.2835 1.2835-0.59899 1.2835-1.2835 1.2835zm1.2835-5.1342h-4.2785v-4.2785h4.2785z" stroke-width=".26458"/>
 </g>
</svg>
