<?xml version="1.0" encoding="UTF-8" standalone="no"?>
<!-- Created with Inkscape (http://www.inkscape.org/) -->

<svg
   width="35.200176mm"
   height="35.226662mm"
   viewBox="0 0 35.200176 35.226662"
   version="1.1"
   id="svg1"
   xmlns="http://www.w3.org/2000/svg"
   xmlns:svg="http://www.w3.org/2000/svg">
  <defs
     id="defs1" />
  <g
     id="layer2"
     transform="translate(-2.65e-6,-0.10681)">
    <path
       d="M 31.173011,3.8743254 H 0.55347836 a 0.55347571,1.3836893 0 0 1 0,-2.7673786 H 31.173011 a 0.55347571,1.3836893 0 0 1 0,2.7673786 z"
       fill="#000000"
       id="path36"
       style="fill:#000000;fill-opacity:1;stroke-width:0.264584" />
    <path
       d="M 7.4724666,10.07498 A 1.3834289,0.55315469 0 0 1 6.0882355,9.5215044 V 3.3208496 a 1.3842317,0.55347571 0 0 1 2.7684633,0 V 9.5215044 A 1.3834289,0.55315469 0 0 1 7.4724666,10.07498 Z"
       fill="#000000"
       id="path39"
       style="fill:#000000;fill-opacity:1;stroke-width:0.264584" />
    <path
       d="M 25.738249,10.09444 A 1.3834267,0.55315469 0 0 1 24.35402,9.5409646 v -6.220115 a 1.3842297,0.55347577 0 0 1 2.768459,0 v 6.220115 a 1.3834405,0.55316023 0 0 1 -1.38423,0.5534754 z"
       fill="#000000"
       id="path40"
       style="fill:#000000;fill-opacity:1;stroke-width:0.264584" />
    <path
       style="font-size:42.3333px;font-family:'Glacial Indifference';-inkscape-font-specification:'Glacial Indifference';fill:#000000;fill-opacity:1;stroke:#000000;stroke-linecap:round;stroke-linejoin:round;stroke-opacity:1"
       d="m 270.90689,524.68722 c 0,3.302 -1.18533,6.096 -3.47133,8.382 -2.32833,2.32833 -5.12233,3.47133 -8.38199,3.47133 -3.25967,0 -6.05366,-1.143 -8.382,-3.47133 -2.28599,-2.286 -3.47133,-5.08 -3.47133,-8.382 0,-3.21733 1.18534,-6.01132 3.47133,-8.33966 2.32834,-2.28599 5.12233,-3.47133 8.382,-3.47133 3.25966,0 6.05366,1.18534 8.38199,3.47133 2.286,2.32834 3.47133,5.12233 3.47133,8.33966 z m 2.96333,0 c 0,-2.03199 -0.42333,-3.93699 -1.18533,-5.75732 -0.762,-1.778 -1.82033,-3.34433 -3.175,-4.699 -1.35466,-1.31233 -2.92099,-2.37067 -4.74133,-3.13266 -1.77799,-0.762 -3.72533,-1.143 -5.75732,-1.143 -2.032,0 -3.937,0.381 -5.715,1.143 -1.778,0.76199 -3.34433,1.82033 -4.699,3.13266 -1.35466,1.35467 -2.413,2.921 -3.17499,4.699 -0.762,1.82033 -1.18534,3.72533 -1.18534,5.75732 0,2.032 0.42334,3.97934 1.18534,5.75733 0.76199,1.82034 1.82033,3.38667 3.17499,4.74133 1.35467,1.35467 2.921,2.413 4.699,3.175 1.778,0.762 3.683,1.18533 5.715,1.18533 2.03199,0 3.97933,-0.42333 5.75732,-1.18533 1.82034,-0.762 3.38667,-1.82033 4.74133,-3.175 1.35467,-1.35466 2.413,-2.92099 3.175,-4.74133 0.762,-1.77799 1.18533,-3.72533 1.18533,-5.75733 z"
       id="text2"
       transform="translate(-242.41017,-504.71274)" />
    <path
       style="font-size:42.3333px;font-family:'Glacial Indifference';-inkscape-font-specification:'Glacial Indifference';fill:#000000;fill-opacity:1;stroke:#000000;stroke-linecap:round;stroke-linejoin:round;stroke-opacity:1"
       d="m 276.56002,505.86988 c -0.381,-0.33867 -0.84667,-0.55033 -1.35467,-0.55033 -0.508,0 -0.97366,0.21166 -1.31233,0.55033 -0.381,0.381 -0.55033,0.84667 -0.55033,1.35467 0,0.50799 0.16933,0.97366 0.55033,1.31233 0.33867,0.381 0.80433,0.55033 1.31233,0.55033 0.508,0 0.97367,-0.16933 1.35467,-0.55033 0.33866,-0.33867 0.55033,-0.80434 0.55033,-1.31233 0,-0.508 -0.21167,-0.97367 -0.55033,-1.35467 z"
       id="path22-7"
       transform="translate(-242.41017,-504.71274)" />
    <path
       d="m 16.643395,11.908863 c -3.765067,0 -6.845577,0.427849 -6.845577,3.422788 v 8.129123 c 0,1.625825 1.369115,2.99494 2.99494,2.99494 l -1.283546,1.283546 v 0.427848 H 21.777578 V 27.73926 l -1.283546,-1.283546 c 1.625825,0 2.99494,-1.369115 2.99494,-2.99494 v -8.129123 c 0,-2.994939 -3.08051,-3.422788 -6.845577,-3.422788 z M 12.792758,24.74432 c -0.684558,0 -1.283546,-0.598988 -1.283546,-1.283546 0,-0.684558 0.598988,-1.283546 1.283546,-1.283546 0.684558,0 1.283546,0.598988 1.283546,1.283546 0,0.684558 -0.598988,1.283546 -1.283546,1.283546 z m 2.99494,-5.134183 h -4.278486 v -4.278486 h 4.278486 z m 4.706334,5.134183 c -0.684558,0 -1.283546,-0.598988 -1.283546,-1.283546 0,-0.684558 0.598988,-1.283546 1.283546,-1.283546 0.684558,0 1.283546,0.598988 1.283546,1.283546 0,0.684558 -0.598988,1.283546 -1.283546,1.283546 z m 1.283546,-5.134183 h -4.278486 v -4.278486 h 4.278486 z"
       id="path1"
       style="stroke-width:0.264583" />
  </g>
</svg>
