<svg width="24px" height="24px" version="1.1" viewBox="0 0 24 24" xmlns="http://www.w3.org/2000/svg">
 <path d="m5 3c-1.1 0-2 0.9-2 2v14c0 1.1 0.9 2 2 2h14c1.1 0 2-0.9 2-2v-14c0-1.1-0.9-2-2-2h-14zm0 2h14v14h-14v-14z"/>
 <path d="m15.059 12.738q0 2.0159-0.75755 3.043-0.75113 1.0208-2.2919 1.0208-1.5151 0-2.2855-0.99509-0.76397-1.0015-0.78323-2.9596v-1.6178q0-2.0159 0.75113-3.0238 0.75755-1.0079 2.3048-1.0079 1.5344 0 2.2855 0.98225 0.75755 0.98225 0.77681 2.9403zm-1.56-1.7462q0-1.3161-0.35952-1.926-0.35952-0.61631-1.1427-0.61631-0.76397 0-1.1235 0.58421-0.35952 0.57779-0.37878 1.8104v2.1186q0 1.3097 0.36594 1.9517 0.36594 0.64199 1.1492 0.64199 0.75113 0 1.1106-0.59063 0.35952-0.59705 0.37878-1.8618z" stroke="#000" stroke-linecap="square" stroke-width=".45" aria-label="0"/>
</svg>
