<svg width="24px" height="24px" version="1.1" viewBox="0 0 24 24" xmlns="http://www.w3.org/2000/svg">
 <path d="m5 3c-1.1 0-2 0.9-2 2v14c0 1.1 0.9 2 2 2h14c1.1 0 2-0.9 2-2v-14c0-1.1-0.9-2-2-2zm0 2h14v14h-14zm0 0v14h14v-14zm6.9961 1.9727c1.0709 2e-7 1.9192 0.35675 2.4648 1.0703 0.54862 0.71135 0.80915 1.7402 0.82226 3.0742v1.6211c0 1.3721-0.25401 2.4345-0.80078 3.1758-0.54428 0.73969-1.3958 1.1133-2.4727 1.1133-1.0593 0-1.9056-0.36218-2.4629-1.082l-0.00195-2e-3c-0.55165-0.72316-0.815-1.7595-0.82813-3.0938l-0.00195-2e-3v-1.6191c0-1.3719 0.25317-2.4286 0.79688-3.1582 0.54923-0.7307 1.404-1.0976 2.4844-1.0976zm0 1.7012c-0.45196 0-0.72924 0.14962-0.93164 0.47852-0.20227 0.32507-0.3327 0.89378-0.3457 1.6914v2.1191c0 0.85218 0.12653 1.469 0.33789 1.8398 0.20976 0.36799 0.49242 0.5293 0.95312 0.5293 0.44178 0 0.71451-0.14812 0.91797-0.48242 0.20394-0.33868 0.3327-0.92647 0.3457-1.7461v-2.1113c-1e-6 -0.85691-0.1244-1.4669-0.32813-1.8125-0.20385-0.34945-0.48612-0.50586-0.94922-0.50586z"/>
</svg>
