<svg id="svg" width="18" height="18" display="block" version="1.1" viewBox="0 0 18 18" xmlns="http://www.w3.org/2000/svg">
 <path d="m7.5206 3.0021c0.1183-1.89e-4 0.23659-3.78e-4 0.35847-5.77e-4 0.24803-2.88e-4 0.49605 1.2e-4 0.74408 1e-3 0.31373 0.0011 0.62744 4.78e-4 0.94117-7.07e-4 0.30504-9e-4 0.61006-2.69e-4 0.9151 2.29e-4 0.11044-3.98e-4 0.22087-8.25e-4 0.33465-0.0012 1.6631 0.0098 3.0802 0.2714 4.3726 1.5205 0.07293 0.0603 0.14586 0.1206 0.221 0.18272 0.82516 0.78186 1.4457 2.1129 1.5722 3.3007 0.01422 0.32773 0.01659 0.65474 0.01681 0.98281 0.0011 0.08557 0.0022 0.17114 0.0033 0.25931 0.0031 1.5049-0.56344 2.8174-1.4547 3.9332-0.57892 0.62576-1.2379 1.0312-1.9725 1.3933-0.06631 0.03308-0.13261 0.06617-0.20093 0.10026-0.89707 0.35824-1.9528 0.3277-2.8924 0.32428-0.1183 2e-4 -0.23659 3.98e-4 -0.35847 5.98e-4 -0.24803 2.98e-4 -0.49605-1e-4 -0.74408-1e-3 -0.31373-0.0011-0.62744-4.98e-4 -0.94117 6.97e-4 -0.30503 9e-4 -0.61006 2.98e-4 -0.9151-2e-4 -0.11044 3.98e-4 -0.22087 8.25e-4 -0.33465 0.0012-1.6631-0.0098-3.0802-0.27143-4.3726-1.5206-0.07293-0.0603-0.14586-0.1206-0.221-0.18272-0.82516-0.78186-1.4457-2.1129-1.5722-3.3007-0.01422-0.32773-0.01659-0.65474-0.01681-0.98281-0.0011-0.08557-0.0022-0.17114-0.0033-0.25931-0.0031-1.5049 0.56344-2.8174 1.4547-3.9332 0.57892-0.62576 1.2379-1.0312 1.9725-1.3933 0.09946-0.04963 0.09946-0.04963 0.20093-0.10026 0.89707-0.35824 1.9528-0.3277 2.8924-0.32428zm-3.7209 3.4103c-0.07952 0.08621-0.15904 0.17243-0.24096 0.26125-0.53684 0.76615-0.73409 1.7228-0.69873 2.6755 0.12147 0.97999 0.47389 1.7618 1.119 2.4376 0.11928 0.1324 0.11928 0.1324 0.24096 0.26747 0.87235 0.74808 1.8239 0.79361 2.8748 0.75888 0.13332-0.0025 0.26665-0.0048 0.39997-0.0068 0.32253-0.0054 0.64492-0.01396 0.96736-0.0243-0.26533-0.30296-0.52804-0.57878-0.83637-0.82652-0.07177-0.05812-0.14355-0.11624-0.2175-0.17611-0.07385-0.05915-0.14771-0.11829-0.2238-0.17922-0.5684-0.45785-1.1294-0.92339-1.6811-1.4058 0.14446-0.33054 0.31242-0.62078 0.50434-0.92061 0.05663-0.08878 0.11327-0.17756 0.17162-0.26903 0.06484-0.10084 0.06484-0.10084 0.13099-0.20372 0.28937 0.06011 0.46168 0.16433 0.68997 0.36855 0.06337 0.0559 0.12675 0.11181 0.19204 0.16941 0.06769 0.06058 0.13539 0.12117 0.20513 0.1836 0.56414 0.49657 1.1343 0.97879 1.7204 1.4431 0.58295 0.46236 1.1552 0.93637 1.72 1.4256 0.53243 0.45455 0.90916 0.4732 1.5694 0.39071 0.95462-0.29196 1.6666-0.90507 2.2415-1.7914 0.44745-0.95978 0.61219-1.9265 0.38071-3.0009-0.30111-0.95553-0.80941-1.8311-1.6234-2.3322-0.56488-0.28697-1.0127-0.45168-1.6379-0.4585-0.09716-0.0012-0.09716-0.0012-0.19629-0.0025-0.21459-0.0025-0.42918-0.0041-0.64378-0.0055-0.07359-5.28e-4 -0.14718-1e-3 -0.223-0.0016-0.39016-0.0026-0.78033-0.0046-1.1705-6e-3 -0.32134-0.0014-0.64262-4e-3 -0.96394-0.0082-0.38925-5e-3 -0.77844-0.0074-1.1677-0.0081-0.14752-6.67e-4 -0.29503-0.0022-0.44253-0.0046-1.2615-0.01935-2.2483 0.20166-3.1607 1.25z"/>
</svg>
