<svg id="svg" width="18" height="18" display="block" version="1.1" viewBox="0 0 18 18" xmlns="http://www.w3.org/2000/svg">
 <path d="m8.9504 2.8692c0.2441-0.0048 0.48733 0.08377 0.77446 0.28051 0.22269 0.36085 0.3078 0.62478 0.22857 1.04-0.11617 0.36424-0.2506 0.5478-0.59428 0.72623-0.37081 0.05857-0.695 0.05816-1.04-0.09877-0.21572-0.2615-0.32008-0.50633-0.42286-0.83081 0.0209-0.36837 0.07162-0.52754 0.27428-0.83662 0.29076-0.17738 0.53572-0.27567 0.77982-0.28051zm0.018 3.1154c0.19918 0.0027 0.40534 0.0535 0.60786 0.14561 0.21436 0.25985 0.31927 0.5093 0.42286 0.83081-0.0164 0.35857-0.12114 0.57938-0.36572 0.83662-0.30032 0.19678-0.47506 0.28186-0.83428 0.26725-0.42856-0.13261-0.57433-0.26462-0.8-0.66232-0.12411-0.42063-0.09703-0.60182 0.08-0.9993 0.24465-0.29397 0.55731-0.42314 0.88928-0.41867zm1.6486-4.9846-0.31445 0.00195c-0.19852 1.95e-4 -0.39718 0.00168-0.5957 0.00195l-0.76367 0.00195-2.418 0.00586v8.9238h1.7363v7.0645h1.373c0.09143-0.09296 0.090572-0.0929 0.10156-0.36523v-0.36914c4.3e-5 -0.21392-0.0013-0.42866-0.00195-0.64258-4.94e-4 -0.15326 1.74e-4 -0.30572 0-0.45898-2.38e-4 -0.40081-9.482e-4 -0.80228-0.00195-1.2031-1e-3 -0.41568-0.00155-0.83044-0.00195-1.2461-8.96e-4 -0.80845-0.00211-1.6173-0.00391-2.4258l-0.00195-0.26172c0.19352-0.0093 0.38853-0.01745 0.58203-0.02734l0.23633-0.01172 0.23438-0.01172 0.22461-0.01172c0.12321-0.0061 0.24661-0.01482 0.36914-0.0293 0.10188-0.10358 0.10158-0.10376 0.10352-0.6582v-0.24609c5.12e-4 -0.27135 2.32e-4 -0.5431 0-0.81445-2.1e-4 -0.19451-5.5e-5 -0.38947 0-0.58398 2.38e-4 -0.40398 3.29e-4 -0.80696 0-1.2109-5.48e-4 -0.52738-5.22e-4 -1.0546 0-1.582 4.29e-4 -0.41043 1.37e-4 -0.82202 0-1.2324-1.19e-4 -0.19555 6.4e-5 -0.39038 0-0.58594 3.11e-4 -0.28274 4.02e-4 -0.56492 0-0.84766v-0.2578c6.3e-4 -0.27116-0.0025-0.54138-0.01172-0.8125-0.09143-0.09296-0.09215-0.092346-0.28711-0.10352h-0.5586zm-0.14258 1v0.17578c3.96e-4 0.2805 3.1e-4 0.56175 0 0.84375v2e-3c6.4e-5 0.19534-1.19e-4 0.39194 0 0.58789 1.37e-4 0.41007 4.28e-4 0.81868 0 1.2285-5.23e-4 0.52848-5.48e-4 1.0563 0 1.584 3.28e-4 0.40329 2.38e-4 0.8072 0 1.2109-5.5e-5 0.19479-2.11e-4 0.3908 0 0.58594 2.19e-4 0.25672 4.78e-4 0.51346 0 0.77148l-0.2207 0.01172-2.7363-0.0019 0.00781-6.9903 1.4199-0.0039 0.76172-0.0019c0.19849-2.7e-4 0.3974-0.0018 0.5957-2e-3h0.0019l0.16992-0.00202z"/>
</svg>
