<svg id="svg" width="18" height="18" display="block" version="1.1" viewBox="0 0 18 18" xmlns="http://www.w3.org/2000/svg">
 <path d="m10.617 1-0.31445 0.00195c-0.19852 1.95e-4 -0.39718 0.00168-0.5957 0.00195l-0.76367 0.00195-2.418 0.00586v8.9238h1.7363v7.0645h1.373c0.09143-0.09296 0.090573-0.0929 0.10156-0.36523v-0.36914c4.3e-5 -0.21392-0.0013-0.42866-0.00195-0.64258-4.94e-4 -0.15326 1.74e-4 -0.30572 0-0.45898-2.38e-4 -0.40081-9.482e-4 -0.80228-0.00195-1.2031-1e-3 -0.41568-0.00155-0.83044-0.00195-1.2461-8.96e-4 -0.80845-0.00211-1.6173-0.00391-2.4258l-0.00195-0.26172c0.19351-0.0093 0.38852-0.017454 0.58202-0.027344l0.23633-0.011719 0.23438-0.011719 0.22461-0.011719c0.12321-0.0061 0.24661-0.014817 0.36914-0.029297 0.10188-0.10358 0.10158-0.10376 0.10352-0.6582v-0.24609c5.12e-4 -0.27135 2.32e-4 -0.5431 0-0.81445-2.1e-4 -0.19451-5.5e-5 -0.38947 0-0.58398 2.38e-4 -0.40398 3.29e-4 -0.80696 0-1.2109-5.48e-4 -0.52738-5.22e-4 -1.0546 0-1.582 4.29e-4 -0.41043 1.37e-4 -0.82202 0-1.2324-1.19e-4 -0.19555 6.4e-5 -0.39038 0-0.58594 3.11e-4 -0.28274 4.02e-4 -0.56492 0-0.84766v-0.25781c6.3e-4 -0.27116-0.0025-0.54138-0.01172-0.8125-0.091428-0.09296-0.092148-0.092346-0.28711-0.10352h-0.25976zm-1.666 1.8691c0.2441-0.0048 0.48631 0.082557 0.77344 0.2793 0.22269 0.36085 0.30775 0.6258 0.22852 1.041-0.11617 0.36424-0.25007 0.54813-0.59375 0.72656-0.37081 0.05857-0.69406 0.057321-1.0391-0.099609-0.21572-0.2615-0.32105-0.5056-0.42383-0.83008 0.0209-0.36837 0.072731-0.52881 0.27539-0.83789 0.29076-0.17738 0.5352-0.27446 0.7793-0.2793zm0.017578 3.1152c0.19918 0.0027 0.4049 0.052421 0.60742 0.14453 0.21436 0.25985 0.32024 0.51052 0.42383 0.83203-0.0164 0.35857-0.12065 0.5787-0.36523 0.83594-0.30032 0.19678-0.47672 0.28219-0.83594 0.26758-0.42856-0.13261-0.57316-0.26441-0.79883-0.66211-0.12411-0.42063-0.096952-0.60252 0.080078-1 0.24465-0.29397 0.5567-0.42244 0.88867-0.41797z"/>
</svg>
