<svg width="24" height="24" preserveAspectRatio="xMidYMid" version="1.0" viewBox="-1.5 -1.5 24 24" xmlns="http://www.w3.org/2000/svg">
 <path d="m0 0.053222c0 0.24471 2.4069 8.1242 2.5038 8.2384 0.048462 0.048941 0.64615-0.48941 1.3408-1.1746l1.2438-1.2562 3.2308 3.2627h-5.8962v2.4471l2.9077 0.03263 2.9077 0.04894-1.6477 1.664-1.6638 1.664-1.1631-1.1256c-0.64615-0.63624-1.2115-1.142-1.2438-1.142-0.11308 0-2.52 7.8795-2.52 8.2547 0 0.11419 0.84-0.081579 2.0677-0.45678 1.1308-0.34259 2.9885-0.89725 4.1515-1.2235 1.1631-0.32627 2.1323-0.61992 2.1646-0.65255 0.048463-0.032615-0.51692-0.66886-1.2438-1.403l-1.3246-1.3377 2.1485-2.1697c1.3408-1.354 2.2615-2.1534 2.4554-2.1371 0.19385 0 1.2438 0.89725 2.5038 2.1045l2.1808 2.1208-2.6815 2.7081 4.2323 1.2725c2.31 0.68518 4.2485 1.2398 4.2808 1.2072 0.04847-0.04894-2.1485-7.6022-2.4554-8.4505-0.06463-0.17945-0.43616 0.13051-1.2762 1.0441l-1.1954 1.2888-1.4215-1.3051c-0.77539-0.73412-1.5669-1.4682-1.7285-1.664l-0.30692-0.34259h5.8638v-2.4471l-2.9238-0.032637-2.94-0.048939 1.5831-1.6151 1.5669-1.6151 1.3408 1.354c0.72692 0.73412 1.3731 1.2725 1.4215 1.2072 0.03231-0.081567 0.56538-1.7619 1.1631-3.7358 0.58154-1.974 1.1308-3.8011 1.2277-4.0621 0.08077-0.26101 0.14539-0.50572 0.14539-0.52203 0-0.16314-0.71077 0.016314-3.8931 0.99514-1.89 0.58729-3.7315 1.142-4.0869 1.2398l-0.63 0.17945 2.4715 2.496-2.0838 2.1045c-1.5023 1.5172-2.1646 2.0718-2.3908 2.0229-0.17769-0.01631-1.26-0.94619-2.3908-2.0555l-2.0838-2.0066 1.2762-1.2888c0.69462-0.7178 1.2438-1.3214 1.1954-1.3704-0.19385-0.19576-8.3838-2.4634-8.3838-2.3165z"/>
</svg>
