<svg width="18" height="18" data-name="Layer 2" version="1.1" viewBox="0 0 18 18" xmlns="http://www.w3.org/2000/svg">
 <path d="m8.7016 1.017a2.6745 2.6748 0 0 0-1.5898 0.76172l-5.332 5.334a2.6745 2.6747 0 0 0 0 3.7754l5.332 5.332a2.6777 2.6779 0 0 0 3.7773 0l5.332-5.332a2.6745 2.6747 0 0 0 0-3.7754l-5.332-5.334a2.6745 2.6748 0 0 0-2.1875-0.76172zm-2.459 5.0664a0.53325 0.5333 0 0 1 0.53516 0.5332v0.54883h1.6895v-0.54883a0.53325 0.5333 0 1 1 1.0664 0v0.54883h1.6914v-0.54883a0.53325 0.5333 0 0 1 1.0664 0v0.54883h0.85742a0.53325 0.5333 0 0 1 0 1.0664h-0.85742v1.5371h0.85742a0.53325 0.5333 0 0 1 0 1.0664h-0.85742v0.54883a0.53325 0.5333 0 0 1-1.0664 0v-0.54883h-1.6914v0.54883a0.53325 0.5333 0 1 1-1.0664 0v-0.54883h-1.6895v0.54883a0.5342 0.53425 0 0 1-1.0684 0v-0.54883h-0.85742a0.53325 0.5333 0 0 1 0-1.0664h0.85742v-1.5371h-0.85742a0.53325 0.5333 0 0 1 0-1.0664h0.85742v-0.54883a0.53325 0.5333 0 0 1 0.5332-0.5332zm0.53516 2.1484v1.5371h1.6895v-1.5371zm2.7559 0v1.5371h1.6895v-1.5371z"/>
</svg>
