<svg width="18" height="18" data-name="Layer 2" version="1.1" viewBox="0 0 18 18" xmlns="http://www.w3.org/2000/svg">
 <path d="m8.7024 1.017a2.6705 2.6704 0 0 0-1.5879 0.76172l-5.334 5.334a2.6705 2.6705 0 0 0 0 3.7734l5.334 5.334a2.6705 2.6705 0 0 0 3.7734 0l5.334-5.334a2.6705 2.6705 0 0 0 0-3.7734l-5.334-5.334a2.6705 2.6704 0 0 0-2.1855-0.76172zm0.048828 1.0684a1.6029 1.6029 0 0 1 1.3809 0.44727l5.3359 5.3359a1.6027 1.6027 0 0 1 0 2.2617l-5.3359 5.3359a1.6037 1.6037 0 0 1-2.2617 0l-5.3359-5.3359a1.6027 1.6027 0 0 1 0-2.2617l5.3359-5.3359a1.6029 1.6029 0 0 1 0.88086-0.44727zm-2.5098 3.9922a0.53342 0.53342 0 0 0-0.5332 0.53516v0.55273h-0.85938a0.53341 0.53341 0 0 0 0 1.0664h0.85938v1.5352h-0.85938a0.53341 0.53341 0 0 0 0 1.0664h0.85938v0.55273a0.53342 0.53342 0 0 0 1.0664 0v-0.55273h1.6934v0.55273a0.53343 0.53343 0 0 0 1.0664 0v-0.55273h1.6934v0.55273a0.53342 0.53342 0 0 0 1.0664 0v-0.55273h0.85938a0.53341 0.53341 0 0 0 0-1.0664h-0.85938v-1.5352h0.85938a0.53341 0.53341 0 0 0 0-1.0664h-0.85938v-0.55273a0.53342 0.53342 0 1 0-1.0664 0v0.55273h-1.6934v-0.55273a0.53343 0.53343 0 0 0-1.0664 0v0.55273h-1.6934v-0.55273a0.53342 0.53342 0 0 0-0.5332-0.53516zm0.5332 2.1543h1.6934v1.5352h-1.6934zm2.7598 0h1.6934v1.5352h-1.6934z"/>
</svg>
