<svg width="18" height="18" data-name="Layer 2" version="1.1" viewBox="0 0 18 18" xmlns="http://www.w3.org/2000/svg">
 <path d="m16.089 7.6903a0.91082 0.91082 0 0 0 0-1.8216h-1.4668v-0.94109a0.91083 0.91083 0 1 0-1.8216 0v0.94109h-2.8899v-0.94109a0.91085 0.91085 0 1 0-1.8217 0v0.94109h-2.8899v-0.94109a0.91083 0.91083 0 1 0-1.8216 0v0.94109h-1.4668a0.91082 0.91082 0 0 0 0 1.8216h1.4668v2.6231h-1.4668a0.91082 0.91082 0 0 0 0 1.8216h1.4668v0.94109a0.91083 0.91083 0 0 0 1.8216 0v-0.94109h2.8899v0.94109a0.91085 0.91085 0 0 0 1.8217 0v-0.94109h2.8899v0.94109a0.91083 0.91083 0 0 0 1.8216 0v-0.94109h1.4668a0.91082 0.91082 0 0 0 0-1.8216h-1.4668v-2.6231zm-8 2.6231h-2.8899v-2.6231h2.8899zm4.7116 0h-2.8899v-2.6231h2.8899z"/>
</svg>
