<svg width="18" height="18" version="1.1" viewBox="0 0 18 18" xmlns="http://www.w3.org/2000/svg">
 <path d="m1.5246 1.0899c-0.42243 0.15138-0.52459 0.46951-0.52459 1.6333 0 1.5281 0.05836 1.5829 1.6864 1.5829h1.2067l-0.07344-3.2384-1.0492-0.02413c-0.57705-0.01333-1.1377 0.0075-1.2459 0.04635m3.9344 1.5632v1.653h7.0898l-0.07344-3.2384-3.5082-0.03378-3.5082-0.03391v1.6531m8.5903-1.3752c-0.0421 0.16382-0.05941 0.89786-0.03843 1.6313l0.0383 1.3335 1.2648 0.03619c1.6544 0.047379 1.686 0.018297 1.686-1.5449 0-1.6136-0.03882-1.6545-1.623-1.71-1.2201-0.0428-1.253-0.03645-1.3277 0.25399m-12.832 6.3084c-0.16879 0.18059-0.21705 0.49135-0.21705 1.397 0 1.5899 0.1082 1.696 1.6771 1.6457l1.1426-0.03657 0.03672-1.6192 0.03672-1.6192h-1.2295c-1.0245 0-1.2657 0.03873-1.4466 0.23228m4.242 1.4187v1.6551l3.5082-0.03391 3.5082-0.03378v-3.1749l-3.5082-0.03378-3.5082-0.03391v1.6551m8.5815-1.4845c-0.03633 0.09156-0.04918 0.82027-0.02872 1.6192l0.03738 1.4527 1.1625 0.03696c1.71 0.05422 1.7883-0.016136 1.7883-1.6077 0-1.6245-0.04367-1.6677-1.6866-1.6677-0.87462 0-1.225 0.04585-1.2729 0.16649m-12.823 6.4156c-0.168 0.17983-0.21705 0.4897-0.21705 1.3727 0 1.5862 0.04616 1.6334 1.5958 1.6334h1.2239l0.07344-3.2384h-1.2295c-1.0245 0-1.2657 0.03873-1.4466 0.23228m4.2708 1.3869 0.03672 1.6192h6.9508l0.07344-3.2384h-7.0977l0.03672 1.6192m8.5832-1.5345c-0.12879 0.12458-0.10269 2.8704 0.02911 3.0717 0.08498 0.13004 0.40748 0.16103 1.3201 0.127 1.5348-0.057148 1.5797-0.10566 1.5797-1.7111 0-1.5383-0.03515-1.5722-1.6269-1.5722-0.66807 0-1.254 0.0381-1.302 0.08471" stroke-width=".12906"/>
</svg>
