<svg width="18" height="18" version="1.1" viewBox="0 0 18 18" xmlns="http://www.w3.org/2000/svg">
 <path d="m5.0429 0.99869a0.65215 0.4565 0 0 0-0.65062 0.45687v1.1309h-2.7401c-0.36066-2.209e-4 -0.65348 0.20476-0.65316 0.45722v2.3817c-3.155e-4 0.25246 0.2925 0.45708 0.65316 0.45685h2.7401v1.4694h-2.7401c-0.35991-2.139e-4 -0.65242 0.20385-0.65316 0.45578v2.3831c7.493e-4 0.25192 0.29326 0.45565 0.65316 0.45542h2.7401v1.4694h-2.7401c-0.36066-2.21e-4 -0.65348 0.20438-0.65316 0.45684v2.382c-3.155e-4 0.25246 0.2925 0.45707 0.65316 0.45685h2.7401v1.1309a0.65215 0.4565 0 0 0 0.65062 0.45686 0.65215 0.4565 0 0 0 0.65316-0.45686v-1.1309h6.6086v1.1309a0.65215 0.4565 0 0 0 0.65266 0.45686 0.65215 0.4565 0 0 0 0.65112-0.45686v-1.1309h2.7401c0.35991-5.11e-4 0.65093-0.20492 0.65062-0.45685v-2.382c3.15e-4 -0.25193-0.29071-0.45633-0.65062-0.45684h-2.7401v-1.4694h2.7401c0.35915-5.11e-4 0.64987-0.20402 0.65062-0.45542v-2.3831c-7.4e-4 -0.2514-0.29147-0.45526-0.65062-0.45578h-2.7401v-1.4694h2.7401c0.35991-5.176e-4 0.65093-0.20492 0.65062-0.45685v-2.3817c3.15e-4 -0.25194-0.29071-0.45669-0.65062-0.45722h-2.7401v-1.1309a0.65215 0.4565 0 0 0-0.65112-0.45687 0.65215 0.4565 0 0 0-0.65266 0.45687v1.1309h-6.6086v-1.1309a0.65215 0.4565 0 0 0-0.65316-0.45687zm0.65316 4.8835h6.6086v1.4694h-6.6086zm0 4.7636h6.6086v1.4694h-6.6086z" stroke-linecap="round" stroke-linejoin="round"/>
</svg>
