<svg id="svg" width="18" height="18" display="block" version="1.1" viewBox="0 0 18 18" xmlns="http://www.w3.org/2000/svg">
 <path d="m5.3285 1.1334c-0.44715 0.09472-0.69699 0.35219-0.78893 0.80812l-5.39e-4 0.32517c-0.0023 0.19181-0.0039 0.38335-0.0027 0.57518 1e-3 0.14041 0.0013 0.2808 7.13e-4 0.42122-0.0026 0.38274-0.0036 0.76543-0.0023 1.1482 0.0015 0.40708 0.0014 0.81407 7.13e-4 1.2212-0.0012 0.68171-8.23e-4 1.3635 0.0013 2.0453 0.0025 0.79381 0.0032 1.5875 7.13e-4 2.3813-0.0022 0.68674-0.0032 1.3734-0.0023 2.0601 7.13e-4 0.40894 0.0017 0.81784 5.39e-4 1.2268-0.0014 0.39066-0.0023 0.7813-1.83e-4 1.172 9.94e-4 0.14401 0.0019 0.28809 0.0025 0.43211-0.0014 0.2005-0.0029 0.40082-0.0011 0.60132l0.0021 0.18192c5.22e-4 0.32508 5.12e-4 0.32513 0.05804 0.6104 0.23784 0.29519 0.36107 0.44444 0.73143 0.52289 0.27429-0.0581 0.2742-0.05819 0.51607-0.24111 0.25106-0.32873 0.27052-0.49083 0.27875-0.89399l-2e-3 -0.23748c0.0036-0.25596 0.0068-0.51182 0.0071-0.76781 4.4e-5 -0.26276 2e-3 -0.52539 0.0046-0.78814 0.0019-0.16885 0.0037-0.3377 0.0054-0.50655 3.71e-4 -0.29995 0.0014-0.59933 0.01286-0.89908 0.16837-2.0225 0.96948-4.0663 2.4629-5.4555l0.28-0.21496c0.95806-0.86468 2.0101-1.299 3.2686-1.4641 0.38504-0.04163 0.73207-0.05368 1.0761-0.24292 0.21722-0.24408 0.21722-0.24408 0.22687-0.80285-0.10286-0.21496-0.10286-0.21496-0.27429-0.37183-0.4453-0.22598-0.4453-0.22598-1.3296-0.13617-2.0174 0.2758-3.8632 1.3981-5.11 3.03l-0.21607 0.29685c-0.0732 0.10017-0.14647 0.20029-0.21964 0.30048l-0.16464 0.22713c-0.0012-0.70841-0.0043-1.4168-0.01018-2.1251-0.0032-0.36141-0.0066-0.72284-0.0075-1.0843-3.66e-4 -0.3538-0.0014-0.7076-5e-3 -1.0614-0.0016-0.1348-0.0029-0.26952-0.0041-0.40433 4.11e-4 -0.13108 7.58e-4 -0.26218 0.0011-0.39326l-0.0054-0.36638c-0.0018-0.32214-0.0019-0.32221-0.06035-0.60749-0.23796-0.29494-0.36117-0.44446-0.73143-0.52289z"/>
</svg>
