<?xml version="1.0" encoding="UTF-8" standalone="no"?>
<!-- Generator: https://ezgif.com/png-to-svg -->

<svg
   version="1.1"
   width="458.39774"
   height="429"
   id="svg9"
   xmlns="http://www.w3.org/2000/svg"
   xmlns:svg="http://www.w3.org/2000/svg">
  <defs
     id="defs9" />
  <path
     d="m 57,0 c 1.1,0.94 2.21,1.88 3.31,2.82 0.92,0.78 0.92,0.78 1.86,1.58 2.72,2.38 5.28,4.91 7.83,7.48 l 1.58,1.58 c 3.4,3.44 6.64,6.99 9.78,10.68 1.8,2.04 3.7,3.95 5.64,5.86 3.19,3.15 6.17,6.41 9.09,9.81 2.22,2.55 4.5,5.02 6.79,7.5 4.07,4.47 7.92,9.05 11.71,13.75 2.71,3.3 5.49,6.53 8.29,9.75 5.93,6.89 11.57,13.98 17.12,21.19 0.61,0.79 1.23,1.59 1.86,2.4 8.74,11.31 17.21,22.72 25.14,34.6 1.35,2.01 2.7,4.03 4.05,6.04 2.79,4.16 5.57,8.32 8.35,12.49 0.57,0.86 1.15,1.72 1.74,2.61 2.34,3.59 4.59,7.23 6.86,10.86 0.5,-65.34 0.5,-65.34 1,-132 h 80 l 1,132 12,-19 c 2.6,-3.86 5.2,-7.7 7.88,-11.5 1,-1.43 1,-1.43 2.02,-2.9 12.05,-17.13 24.62,-33.81 37.94,-49.97 1.43,-1.74 2.85,-3.48 4.26,-5.23 8.9,-10.98 18.16,-21.63 27.79,-31.97 2.68,-2.87 5.3,-5.77 7.86,-8.74 2.94,-3.41 6.09,-6.55 9.3,-9.71 1.82,-1.85 3.52,-3.75 5.2,-5.73 C 389.17,10.52 394.62,5.3 400,0 c 6.7,5.5 12.74,11.61 18.84,17.74 1.13,1.14 -9.43318,0.697932 -8.30318,1.837932 2.96,2.96 22.6014,22.087369 25.5614,25.057369 3.03,3.04 1.08178,-8.505301 4.11178,-5.475301 5.93,5.95 11.86,11.89 17.79,17.84 -0.94,1.1 -1.88,2.21 -2.81,3.31 -0.53,0.62 -1.05,1.23 -1.59,1.86 -2.38,2.72 -4.95,5.24 -7.54,7.77 -4.01,3.95 -7.83,7.98 -11.49,12.27 -1.62,1.84 -3.32,3.57 -5.07,5.29 -3.04,2.99 -5.85,6.12 -8.62,9.34 -2.05,2.36 -4.15,4.67 -6.26,6.97 -3.89,4.32 -7.59,8.76 -11.24,13.28 -2.11,2.58 -4.25,5.12 -6.42,7.65 -5.43,6.35 -10.62,12.85 -15.65,19.52 -1.36,1.81 -2.74,3.61 -4.11,5.41 C 314.58,232.06 274.02,324.61 270,429 L 247.51344,420.79031 210.30782,419.65493 205.44218,429 H 188 l -1,-26 c -0.35,-4.52 -0.71,-8.95 -1.25,-13.44 -0.13,-1.1 -0.26,-2.2 -0.39,-3.33 C 172.66,282.84 117.87,191.69 51.44,113.69 50.01,112.01 48.58,110.32 47.16,108.62 40.01,100.16 32.52,92.06 24.9,84.02 22.39,81.36 19.91,78.68 17.42,75.99 11.73,69.87 5.98,63.84 0,58 5.5,51.3 11.61,45.26 17.74,39.16 c 1.14,-1.13 2.27,-2.27 3.41,-3.4 2.96,-2.96 5.93,-5.92 8.9,-8.88 3.04,-3.03 6.08,-6.06 9.11,-9.09 C 45.11,11.86 51.05,5.93 57,0 Z"
     fill="#343332"
     id="path1"
     style="fill:#000000;fill-opacity:1" />
  <path
     d="M 437.64332,36.59115 C 442.35147,41.083822 446.8,45.67 451.44,50.38 c 0.63,0.64 1.27,1.28 1.93,1.94 1.54,1.56 3.09,3.12 4.63,4.68 -3.79,4.54 -7.71,8.81 -11.94,12.94 -4.01,3.95 -7.83,7.98 -11.49,12.27 -1.62,1.84 -3.32,3.57 -5.07,5.29 -3.04,2.99 -5.85,6.12 -8.62,9.34 -2.05,2.36 -4.15,4.67 -6.26,6.97 -3.89,4.32 -7.59,8.76 -11.24,13.28 -2.11,2.58 -4.25,5.12 -6.42,7.65 -5.43,6.35 -10.62,12.85 -15.65,19.52 -1.36,1.81 -2.74,3.61 -4.11,5.41 -58.77,77.33 -103.38,168.48 -106.76,267.02 -0.15,4.06 -0.29,8.12 -0.44,12.31 h -29 c -1.7,-99.26 39.65,-194.13 96,-274 0.53,-0.75 1.06,-1.5 1.6,-2.27 13.73,-19.41 28.54,-37.93 43.95,-56.03 1.47,-1.72 2.93,-3.45 4.4,-5.18 6.36,-7.5 12.91,-14.79 19.62,-21.98 9.4761,-11.753891 21.93046,-20.971073 31.07332,-32.94885 z"
     fill="#646764"
     id="path2"
     style="fill:#626262;fill-opacity:1" />
  <path
     d="m 420.83135,19.736376 c 4.47,1.76 6.62865,6.313624 9.97865,9.643624 0.61,0.57 1.22,1.15 1.85,1.74 0.57,0.57 1.15,1.13 1.73,1.72 0.79,0.76 0.79,0.76 1.59,1.54 1.02,1.62 2.44877,1.117666 2.42877,2.977666 C 435.90802,40.138883 433.31,43.04 430.9,45.36 c -0.52,0.51 -1.03,1.02 -1.56,1.54 -1.65,1.62 -3.31,3.24 -4.96,4.85 -2.17,2.12 -4.33,4.24 -6.48,6.36 -0.52,0.51 -1.04,1.03 -1.58,1.55 -3.44,3.41 -6.7,6.91 -9.83,10.6 -2.37,2.76 -4.87,5.4 -7.37,8.05 -4.44,4.78 -8.64,9.68 -12.73,14.77 -2.27,2.78 -4.61,5.47 -6.99,8.17 -7.03,7.98 -13.53,16.28 -19.92,24.79 -1.34,1.77 -2.69,3.54 -4.06,5.29 C 303.7,197.75 263.62,274.87 248,358 c -0.18,0.95 -0.37,1.89 -0.55,2.87 -4.26,22.47 -5.13,45.33 -6.45,68.13 h -24 c -0.54134,-71.76996 16.30018,-140.76922 57.96451,-218.31557 7.63369,-14.20797 16.38885,-28.59905 25.94746,-43.36131 11.51457,-17.78303 24.19505,-36.10468 37.48553,-55.29365 0.48,-0.63 0.97,-1.25 1.47,-1.9 5.79,-7.49 11.76,-14.81 17.91,-22.01 2.43,-2.85 5.3825,-5.76947 7.7225,-8.67947 4.13,-5.08 8.51,-9.89 12.96,-14.68 1.99,-2.16 3.94,-4.34 5.85,-6.57 8.4,-9.67 17.3,-18.88 26.41,-27.87 1.89,-1.92 3.64,-3.86 5.34,-5.94 1.94,-2.38 3.17277,-3.211327 4.77135,-4.643624 z"
     fill="#1DFC00"
     id="path3"
     style="display:inline;fill:#ffffff;fill-opacity:1" />
  <path
     d="m 409.55668,8.5491229 c 1.11,0.93 2.10427,2.0367861 3.09868,3.0125711 0.61,0.52 1.12712,1.114389 1.70228,1.68595 2.75027,2.751775 4.20418,4.212785 7.10235,7.11814 C 416.16253,25.436277 416.15262,25.456721 412,29.44 401,41 404.8,37.25 401,41 c -4.22,4.18 -8.34,8.36 -12.17,12.89 -1.99,2.3 -4.05,4.51 -6.13,6.73 -4.98,5.34 -9.74,10.76 -14.31,16.46 -2.27,2.77 -4.61,5.47 -6.99,8.17 -6.35,7.22 -12.29,14.67 -18.08,22.36 -2.83,3.77 -5.73,7.48 -8.65,11.18 -6.41,8.13 -12.46,16.42 -18.21,25.03 -1.59,2.37 -3.19,4.74 -4.8,7.11 -36.49,54.08 -65.71,112.45 -81.6,175.95 -0.18,0.74 -0.37,1.48 -0.56,2.24 -8.19,32.99 -11.16,66.02 -12.5,99.88 h -16 c -0.69,-19.56 1.31,-38.54 3.74,-57.9 0.25,-2.05 0.49,-4.09 0.71,-6.14 1.14,-9.92 2.97,-19.54 5.17,-29.27 0.18,-0.78 0.35,-1.56 0.53,-2.36 7.93,-35.12 20.02,-68.59 34.85,-101.33 0.67,-1.49 0.67,-1.49 1.36,-3 27.02,-59.21 65.71,-113.24 108.17,-162.29 1.46,-1.7 2.91,-3.42 4.36,-5.13 6.61,-7.82 13.48,-15.33 20.52,-22.77 3.09,-3.27 6.13,-6.59 9.15,-9.93 6.25,-6.86 13.39668,-13.820877 19.99668,-20.3308771 z"
     fill="#646764"
     id="path4"
     style="fill:#626262;fill-opacity:1" />
  <path
     d="m 448.99091,47.965617 c 2.44909,2.414383 3.99154,3.966757 6.47026,6.487542 0.86923,0.871856 0.66499,0.66699 1.68452,1.682348 0.58,0.72 0.66206,0.605211 1.25206,1.345211 -0.51,0.5 -1.41775,1.529282 -1.93775,2.049282 -2.34,2.32 -4.68,4.64 -7.02,6.97 -0.8,0.79 -1.6,1.58 -2.43,2.4 -4.33,4.31 -8.51,8.68 -12.47,13.34 -1.61,1.84 -3.3,3.55 -5.04,5.26 -3.04,2.99 -5.85,6.12 -8.62,9.34 -2.05,2.36 -4.15,4.67 -6.26,6.97 -3.89,4.32 -7.59,8.76 -11.24,13.28 -2.11,2.58 -4.25,5.12 -6.42,7.65 -5.43,6.35 -10.62,12.85 -15.65,19.52 -1.36,1.81 -2.74,3.61 -4.11,5.41 -58.77,77.33 -103.39,168.48 -106.76,267.02 -0.05,1.19 -0.09,2.38 -0.13,3.6 -0.11,2.91 -0.21,5.81 -0.31,8.71 h -13 c -3.08,-66.68 19.26,-133.25 49,-192 0.48,-0.95 0.95,-1.91 1.44,-2.89 11.2,-22.34 24.4,-43.53 38.56,-64.11 0.52,-0.75 1.03,-1.5 1.57,-2.28 10.95,-15.88 22.75,-31.06 34.99,-45.96 1.28,-1.57 2.56,-3.14 3.83,-4.71 8.69,-10.71 17.67,-21.15 27.04,-31.27 2.3,-2.49 4.57,-5 6.82,-7.53 8.97,-9.99 19.11091,-20.924383 28.74091,-30.284383 z"
     fill="#353433"
     id="path5"
     style="fill:#000000;fill-opacity:1" />
  <path
     d="m 19.585719,37.319283 c 1.88342,1.509804 4.1635,3.819467 6.28975,5.584467 4.5625,4.63375 8.6725,8.72375 13.1225,13.09375 5,4.92 9.86,9.86 14.42,15.18 2.26,2.6 4.61,5.11 6.96,7.63 4.25,4.61 8.26,9.35 12.19,14.24 2.29,2.78 4.65,5.49 7.03,8.2 6.98,7.93 13.44,16.16 19.78,24.61 1.600001,2.11 3.210001,4.2 4.840001,6.29 16.72,21.56 32.16,44.21 45.78,67.85 0.51,0.89 1.02,1.78 1.55,2.69 37.61,65.57 37.61,65.57 37.57,82.61 v 3.28 c -0.01,1.16 -0.01,2.33 -0.02,3.53 v 3.62 c -0.01,3.82 -0.02,7.64 -0.04,11.46 0,2.59 -0.01,5.18 -0.01,7.76 -0.01,6.35 -0.03,12.7 -0.05,19.05 -1.67,-3.16 -2.61,-6.19 -3.44,-9.68 -10.42,-43.43 -31.37,-85.33 -54.56,-123.32 -0.63,-1.03 -1.26,-2.07 -1.91,-3.13 -7.29,-11.94 -14.78,-23.61 -23.09,-34.87 -1.25,-1.75 -2.49,-3.51 -3.74,-5.28 -8.750001,-12.37 -18.170001,-24.17 -27.770001,-35.9 -1.3,-1.59 -2.6,-3.19 -3.89,-4.79 -8.68,-10.69 -17.65,-21.1 -27,-31.21 -2.48,-2.69 -4.92,-5.4 -7.35,-8.13 -3.09,-3.45 -6.27,-6.74 -9.58,-9.98 -1.76,-1.8 -3.4,-3.67 -5.04,-5.58 -3.97,-4.62 -8.823872,-9.324897 -13.1738721,-13.584897 1.9800001,-2.35 4.2543261,-4.46541 6.4901741,-6.598734 0.783207,-0.780922 1.610485,-1.604575 2.441322,-2.431232 1.682853,-1.676137 1.141399,-1.135412 2.200126,-2.193354 z"
     fill="#656665"
     id="path6"
     style="fill:#626262;fill-opacity:1" />
  <path
     d="m 201,29 c 5.28,0 10.56,0 16,0 0.21,30.61 0.37,61.21 0.46,91.82 0.01,3.63 0.02,7.26 0.03,10.89 0.01,0.72 0.01,1.44 0.01,2.19 0.04,11.63 0.11,23.27 0.19,34.9 0.09,11.97 0.14,23.95 0.16,35.92 0.01,6.71 0.04,13.42 0.1,20.13 0.49,52.05 0.49,52.05 -8.83,73.32 -2.12,5.36 -3.36,10.98 -4.68,16.58 -0.26,1.07 -0.52,2.14 -0.79,3.24 -0.56,2.34 -1.11,4.67 -1.65,7.01 -0.33,0 -0.66,0 -1,0 0,-97.68 0,-195.36 0,-296 z"
     fill="#656665"
     id="path7"
     style="fill:#626262;fill-opacity:1" />
  <path
     d="m 48,9 c 5.07,4.25 9.84,8.68 14.5,13.38 0.63,0.62 1.25,1.24 1.89,1.88 3.78,3.78 7.36,7.69 10.86,11.74 2.94,3.36 6.04,6.57 9.13,9.81 5.08,5.38 9.91,10.84 14.52,16.63 2.23,2.72 4.58,5.29 6.98,7.87 4.18,4.55 8.03,9.27 11.81,14.16 2.95,3.82 5.97,7.57 9.05,11.3 6.93,8.4 13.38,17.09 19.67,25.98 1.57,2.22 3.14,4.43 4.72,6.64 10.69,15.01 20.88,30.3 30.32,46.13 1.5,2.49 1.5,2.49 3.26,4.72 5.75,7.96 4.98,15.99 4.67,25.38 -0.04,1.6 -0.06,3.19 -0.09,4.78 -0.06,3.87 -0.17,7.73 -0.29,11.6 -2.22,-2.82 -3.98,-5.66 -5.64,-8.83 -0.51,-0.95 -1.01,-1.9 -1.53,-2.88 -0.54,-1.03 -1.09,-2.05 -1.64,-3.1 C 166.33,180.35 150.42,155.58 133,132 c -0.45,-0.61 -0.89,-1.21 -1.36,-1.84 C 121,115.78 110.17,101.52 98.51,87.94 96.14,85.17 93.85,82.34 91.56,79.5 87.18,74.11 82.5,69.05 77.77,63.98 75.67,61.73 73.63,59.46 71.62,57.12 60.68,44.52 48.404693,32.143049 36.534693,20.413049 c 0.94,-1.11 1.974317,-1.97221 3.016615,-3.013056 0.867425,-0.864637 0.811985,-0.809372 1.705451,-1.700084 C 43.346759,13.309909 45.72,11.21 48,9 Z"
     fill="#656665"
     id="path8"
     style="fill:#626262;fill-opacity:1" />
  <path
     d="m 241,29 c 5.28,0 10.56,0 16,0 0.35,19.97 0.62,39.94 0.78,59.91 0.07,9.27 0.18,18.55 0.35,27.82 0.15,8.1 0.25,16.2 0.28,24.3 0.02,4.28 0.06,8.55 0.18,12.83 0.6,24.13 -3.27,40.75 -16.59,61.14 -0.33,0 -0.66,0 -1,0 0,-61.38 0,-122.76 0,-186 z"
     fill="#656665"
     id="path9"
     style="fill:#626262;fill-opacity:1" />
</svg>
