<?xml version="1.0" encoding="UTF-8" standalone="no"?>
<!-- Generator: https://ezgif.com/png-to-svg -->

<svg
   version="1.1"
   width="458"
   height="429"
   id="svg9"
   xmlns="http://www.w3.org/2000/svg"
   xmlns:svg="http://www.w3.org/2000/svg">
  <defs
     id="defs9" />
  <path
     d="m 57,0 c 1.1,0.94 2.21,1.88 3.31,2.82 0.92,0.78 0.92,0.78 1.86,1.58 2.72,2.38 5.28,4.91 7.83,7.48 l 1.58,1.58 c 3.4,3.44 6.64,6.99 9.78,10.68 1.8,2.04 3.7,3.95 5.64,5.86 3.19,3.15 6.17,6.41 9.09,9.81 2.22,2.55 4.5,5.02 6.79,7.5 4.07,4.47 7.92,9.05 11.71,13.75 2.71,3.3 5.49,6.53 8.29,9.75 5.93,6.89 11.57,13.98 17.12,21.19 0.61,0.79 1.23,1.59 1.86,2.4 8.74,11.31 17.21,22.72 25.14,34.6 1.35,2.01 2.7,4.03 4.05,6.04 2.79,4.16 5.57,8.32 8.35,12.49 0.57,0.86 1.15,1.72 1.74,2.61 2.34,3.59 4.59,7.23 6.86,10.86 0.5,-65.34 0.5,-65.34 1,-132 h 16.71646 l 7.29881,8.559039 34.60027,-0.216758 L 269,29 l 1,132 12,-19 c 2.6,-3.86 5.2,-7.7 7.88,-11.5 1,-1.43 1,-1.43 2.02,-2.9 12.05,-17.13 24.62,-33.81 37.94,-49.97 1.43,-1.74 2.85,-3.48 4.26,-5.23 8.9,-10.98 18.16,-21.63 27.79,-31.97 2.68,-2.87 5.3,-5.77 7.86,-8.74 2.94,-3.41 6.09,-6.55 9.3,-9.71 1.82,-1.85 3.52,-3.75 5.2,-5.73 C 389.17,10.52 394.62,5.3 400,0 c 6.7,5.5 12.74,11.61 18.84,17.74 1.13,1.14 2.27,2.27 3.4,3.41 2.96,2.96 5.92,5.93 8.88,8.9 3.03,3.04 6.06,6.08 9.09,9.11 5.93,5.95 11.86,11.89 17.79,17.84 -0.94,1.1 -1.88,2.21 -2.81,3.31 -0.53,0.62 -1.05,1.23 -1.59,1.86 -2.38,2.72 -4.95,5.24 -7.54,7.77 -4.01,3.95 -7.83,7.98 -11.49,12.27 -1.62,1.84 -3.32,3.57 -5.07,5.29 -3.04,2.99 -5.85,6.12 -8.62,9.34 -2.05,2.36 -4.15,4.67 -6.26,6.97 -3.89,4.32 -7.59,8.76 -11.24,13.28 -2.11,2.58 -4.25,5.12 -6.42,7.65 -5.43,6.35 -10.62,12.85 -15.65,19.52 -1.36,1.81 -2.74,3.61 -4.11,5.41 C 314.58,232.06 274.02,324.61 270,429 l -23.57828,-5.45857 -32.31474,0.0873 L 203.61848,429 H 188 l -1,-26 c -0.35,-4.52 -0.71,-8.95 -1.25,-13.44 -0.13,-1.1 -0.26,-2.2 -0.39,-3.33 C 172.66,282.84 117.87,191.69 51.44,113.69 50.01,112.01 48.58,110.32 47.16,108.62 40.01,100.16 32.52,92.06 24.9,84.02 22.39,81.36 19.91,78.68 17.42,75.99 11.73,69.87 5.98,63.84 0,58 5.5,51.3 11.61,45.26 17.74,39.16 c 1.14,-1.13 2.27,-2.27 3.41,-3.4 2.96,-2.96 5.93,-5.92 8.9,-8.88 3.04,-3.03 6.08,-6.06 9.11,-9.09 C 45.11,11.86 51.05,5.93 57,0 Z"
     fill="#343332"
     id="path1"
     style="fill:#000000;fill-opacity:1" />
  <path
     d="m 400,0 c 6.7,5.5 12.74,11.61 18.84,17.74 1.13,1.14 2.27,2.27 3.4,3.41 2.96,2.96 5.92,5.93 8.88,8.9 3.03,3.04 6.06,6.08 9.09,9.11 5.93,5.95 11.86,11.89 17.79,17.84 -0.94,1.1 -1.88,2.21 -2.81,3.31 -0.53,0.62 -1.05,1.23 -1.59,1.86 -2.38,2.72 -4.95,5.24 -7.54,7.77 -4.01,3.95 -7.83,7.98 -11.49,12.27 -1.62,1.84 -3.32,3.57 -5.07,5.29 -3.04,2.99 -5.85,6.12 -8.62,9.34 -2.05,2.36 -4.15,4.67 -6.26,6.97 -3.89,4.32 -7.59,8.76 -11.24,13.28 -2.11,2.58 -4.25,5.12 -6.42,7.65 -5.43,6.35 -10.62,12.85 -15.65,19.52 -1.36,1.81 -2.74,3.61 -4.11,5.41 C 318.43,227 273.82,318.15 270.44,416.69 270.29,420.75 270.15,424.81 270,429 H 241 V 29 h 28 l 1,132 12,-19 c 2.6,-3.86 5.2,-7.7 7.88,-11.5 0.66,-0.96 1.33,-1.91 2.02,-2.9 12.05,-17.13 24.62,-33.81 37.94,-49.97 1.43,-1.74 2.85,-3.48 4.26,-5.23 8.9,-10.98 18.16,-21.63 27.79,-31.97 2.68,-2.87 5.3,-5.77 7.86,-8.74 2.94,-3.41 6.09,-6.55 9.3,-9.71 1.82,-1.85 3.52,-3.75 5.2,-5.73 C 389.17,10.52 394.62,5.3 400,0 Z"
     fill="#343332"
     id="path2"
     style="fill:#000000;fill-opacity:1" />
  <path
     d="m 217,29 c 7.92,0 15.84,0 24,0 0,132 0,264 0,400 -7.92,0 -15.84,0 -24,0 0,-132 0,-264 0,-400 z"
     fill="#1DFF00"
     id="path3"
     style="display:inline;fill:#ffffff;fill-opacity:1" />
  <path
     d="m 241,29 c 5.28,0 10.56,0 16,0 0,132 0,264 0,400 -5.28,0 -10.56,0 -16,0 0,-132 0,-264 0,-400 z"
     fill="#666766"
     id="path4"
     style="fill:#626262;fill-opacity:1" />
  <path
     d="m 201,29 c 5.28,0 10.56,0 16,0 0,132 0,264 0,400 -5.28,0 -10.56,0 -16,0 0,-132 0,-264 0,-400 z"
     fill="#666766"
     id="path5"
     style="fill:#626262;fill-opacity:1" />
  <path
     d="m 437.51141,36.459024 c 2.69859,2.700976 4.3664,4.374166 7.14609,7.161913 1.11187,1.114869 1.38984,1.393571 2.50172,2.508334 0.55594,0.55736 1.11187,1.114711 1.94578,1.950729 -8.28909,9.150699 -9.265,10.14 -14.225,14.98 -2.83,2.82 -5.41,5.82 -8.03,8.84 -3.14,3.56 -6.44,6.98 -9.73,10.41 -5.29,5.58 -10.34,11.21 -15.12,17.23 -2.04,2.51 -4.18,4.89 -6.38,7.27 -3.98,4.38 -7.64,8.93 -11.26,13.6 -2.97,3.84 -6.01,7.62 -9.1,11.36 -6.86,8.32 -13.27,16.91 -19.49,25.72 -1.23,1.75 -2.47,3.49 -3.71,5.23 -8.8,12.36 -17.11,24.87 -24.73,38 -1.24,2.13 -2.51,4.25 -3.8,6.35 -7.84,12.95 -14.71,26.42 -21.53,39.93 -0.43,0.84 -0.85,1.67 -1.29,2.54 -13.25,26.14 -23.12,54.2 -30.71,82.46 h -1 c -0.26,-6.97 -0.43,-13.93 -0.55,-20.9 -0.05,-2.36 -0.12,-4.72 -0.2,-7.07 -0.67,-18.36 2.59,-31.65 10.75,-48.03 0.65,-1.4 1.29,-2.8 1.93,-4.21 1.57,-3.46 3.21,-6.88 4.88,-10.29 0.29,-0.6 0.58,-1.19 0.88,-1.8 24.7,-50.67 56.74,-97.02 93.24,-139.87 2.81,-3.32 5.55,-6.68 8.26,-10.08 4.7,-5.79 9.81,-11.17 14.96,-16.56 3.23,-3.39 6.41,-6.8 9.47,-10.33 2.98,-3.45 6.12,-6.68 9.38,-9.86 4.56,-4.49 8.86,-9.11 13,-14 z"
     fill="#656665"
     id="path6"
     style="fill:#626262;fill-opacity:1" />
  <path
     d="M 20.054006,36.851222 C 26.751607,43.552 32.578749,49.68165 38.997969,55.9975 c 5,4.92 9.86,9.86 14.42,15.18 2.26,2.6 4.61,5.11 6.96,7.63 4.25,4.61 8.26,9.35 12.19,14.24 2.29,2.78 4.65,5.49 7.03,8.2 6.98,7.93 13.44,16.16 19.78,24.61 1.600001,2.11 3.210001,4.2 4.840001,6.29 16.72,21.56 32.16,44.21 45.78,67.85 0.51,0.89 1.02,1.78 1.55,2.69 37.61,65.57 37.61,65.57 37.57,82.61 v 3.28 c -0.01,1.16 -0.01,2.33 -0.02,3.53 v 3.62 c -0.01,3.82 -0.02,7.64 -0.04,11.46 0,2.59 -0.01,5.18 -0.01,7.76 -0.01,6.35 -0.03,12.7 -0.05,19.05 -1.67,-3.16 -2.61,-6.19 -3.44,-9.68 -10.42,-43.43 -31.37,-85.33 -54.56,-123.32 -0.63,-1.03 -1.26,-2.07 -1.91,-3.13 -7.29,-11.94 -14.78,-23.61 -23.09,-34.87 -1.25,-1.75 -2.49,-3.51 -3.74,-5.28 -8.750001,-12.37 -18.170001,-24.17 -27.770001,-35.9 -1.3,-1.59 -2.6,-3.19 -3.89,-4.79 -8.68,-10.69 -17.65,-21.1 -27,-31.21 -2.48,-2.69 -4.92,-5.4 -7.35,-8.13 -3.09,-3.45 -6.27,-6.74 -9.58,-9.98 -1.76,-1.8 -3.4,-3.67 -5.04,-5.58 -3.97,-4.62 -8.736519,-9.416163 -13.0865193,-13.676163 2.2149453,-2.286594 4.1628003,-4.262204 6.3641783,-6.468897 0.869434,-0.866895 1.565937,-1.560356 2.404501,-2.394721 1.309893,-1.303309 1.105776,-1.100827 2.743877,-2.736497 z"
     fill="#656665"
     id="path7"
     style="fill:#626262;fill-opacity:1" />
  <path
     d="m 409.645,8.63375 c 0.29135,0.2797206 0.58227,0.5598892 1.16291,1.1215161 0.8682,0.8454619 0.8682,0.8454619 1.73349,1.6942259 0.57546,0.567498 1.14995,1.136193 1.7236,1.705977 1.43135,1.428518 2.86036,2.861482 4.2891,4.297204 1.71989,1.726302 1.71945,1.726747 3.15556,3.163608 C 413.9,28.36 416.33,26.01 413.9,28.36 c -0.52,0.51 -1.03,1.02 -1.56,1.54 -1.65,1.62 -3.31,3.24 -4.96,4.85 -2.17,2.12 -4.33,4.24 -6.48,6.36 -0.52,0.51 -1.04,1.03 -1.58,1.55 -3.44,3.41 -6.7,6.91 -9.83,10.6 -2.37,2.76 -4.87,5.4 -7.37,8.05 -4.53,4.87 -8.8,9.88 -12.97,15.07 -2.17,2.64 -4.41,5.16 -6.71,7.68 C 358.06,88.88 354,93.87 350,99 l -3.12,3.96 C 317.64,140.21 292.25,179.2 270,221 h -1 c -2.43,-24.12 0.27,-39.37 14.77,-58.96 3.59,-4.89 6.88,-9.98 10.23,-15.04 18.86,-28.04 39.42,-54.75 61.53,-80.29 1.46,-1.7 2.91,-3.42 4.36,-5.13 6.61,-7.82 13.48,-15.33 20.52,-22.77 3.09,-3.27 6.13,-6.59 9.15,-9.93 6.25,-6.86 13.485,-13.73625 20.085,-20.24625 z"
     fill="#656665"
     id="path8"
     style="fill:#626262;fill-opacity:1" />
  <path
     d="m 48,9 c 5.07,4.25 9.84,8.68 14.5,13.38 0.63,0.62 1.25,1.24 1.89,1.88 3.78,3.78 7.36,7.69 10.86,11.74 2.94,3.36 6.04,6.57 9.13,9.81 5.08,5.38 9.91,10.84 14.52,16.63 2.23,2.72 4.58,5.29 6.98,7.87 4.18,4.55 8.03,9.27 11.81,14.16 2.95,3.82 5.97,7.57 9.05,11.3 6.93,8.4 13.38,17.09 19.67,25.98 1.57,2.22 3.14,4.43 4.72,6.64 11.13,15.63 21.57,31.56 31.31,48.1 1.46,2.47 1.46,2.47 3.08,4.36 5.34,6.75 4.01,15.5 3.79,23.65 -0.02,1.6 -0.05,3.2 -0.07,4.8 -0.05,3.9 -0.14,7.8 -0.24,11.7 -2.22,-2.82 -3.98,-5.66 -5.64,-8.83 -0.51,-0.95 -1.01,-1.9 -1.53,-2.88 -0.54,-1.03 -1.09,-2.05 -1.64,-3.1 C 166.33,180.35 150.42,155.58 133,132 c -0.45,-0.61 -0.89,-1.21 -1.36,-1.84 C 121,115.78 110.17,101.52 98.51,87.94 96.14,85.17 93.85,82.34 91.56,79.5 87.18,74.11 82.5,69.05 77.77,63.98 75.67,61.73 73.63,59.46 71.62,57.12 60.68,44.52 48.365765,32.181913 36.495765,20.451913 37.559685,19.38944 38.470797,18.479035 39.540185,17.411079 40.46766,16.486583 40.325511,16.628284 41.2734,15.683317 43.582256,13.381075 45.73573,11.23331 48,9 Z"
     fill="#656665"
     id="path9"
     style="fill:#626262;fill-opacity:1" />
</svg>
