<?xml version="1.0" encoding="UTF-8" standalone="no"?>
<!-- Generator: https://ezgif.com/png-to-svg -->

<svg
   version="1.1"
   width="458"
   height="429"
   id="svg9"
   xmlns="http://www.w3.org/2000/svg"
   xmlns:svg="http://www.w3.org/2000/svg">
  <defs
     id="defs9" />
  <path
     d="m 57,0 c 1.1,0.94 2.21,1.88 3.31,2.82 0.92,0.78 0.92,0.78 1.86,1.58 2.72,2.38 5.28,4.91 7.83,7.48 l 1.58,1.58 c 3.4,3.44 6.64,6.99 9.78,10.68 1.8,2.04 3.7,3.95 5.64,5.86 3.19,3.15 6.17,6.41 9.09,9.81 2.22,2.55 4.5,5.02 6.79,7.5 4.07,4.47 7.92,9.05 11.71,13.75 2.71,3.3 5.49,6.53 8.29,9.75 5.93,6.89 11.57,13.98 17.12,21.19 0.61,0.79 1.23,1.59 1.86,2.4 8.74,11.31 17.21,22.72 25.14,34.6 1.35,2.01 2.7,4.03 4.05,6.04 2.79,4.16 5.57,8.32 8.35,12.49 0.57,0.86 1.15,1.72 1.74,2.61 2.34,3.59 4.59,7.23 6.86,10.86 0.5,-65.34 0.5,-65.34 1,-132 h 80 l 1,132 12,-19 c 2.6,-3.86 5.2,-7.7 7.88,-11.5 1,-1.43 1,-1.43 2.02,-2.9 12.05,-17.13 24.62,-33.81 37.94,-49.97 1.43,-1.74 2.85,-3.48 4.26,-5.23 8.9,-10.98 18.16,-21.63 27.79,-31.97 2.68,-2.87 5.3,-5.77 7.86,-8.74 2.94,-3.41 6.09,-6.55 9.3,-9.71 1.82,-1.85 3.52,-3.75 5.2,-5.73 C 389.17,10.52 394.62,5.3 400,0 c 6.7,5.5 12.74,11.61 18.84,17.74 1.13,1.14 2.27,2.27 3.4,3.41 2.96,2.96 5.92,5.93 8.88,8.9 3.03,3.04 6.06,6.08 9.09,9.11 5.93,5.95 11.86,11.89 17.79,17.84 -0.94,1.1 -1.88,2.21 -2.81,3.31 -0.53,0.62 -1.05,1.23 -1.59,1.86 -2.38,2.72 -4.95,5.24 -7.54,7.77 -4.01,3.95 -7.83,7.98 -11.49,12.27 -1.62,1.84 -3.32,3.57 -5.07,5.29 -3.04,2.99 -5.85,6.12 -8.62,9.34 -2.05,2.36 -4.15,4.67 -6.26,6.97 -3.89,4.32 -7.59,8.76 -11.24,13.28 -2.11,2.58 -4.25,5.12 -6.42,7.65 -5.43,6.35 -10.62,12.85 -15.65,19.52 -1.36,1.81 -2.74,3.61 -4.11,5.41 C 314.58,232.06 274.02,324.61 270,429 h -15.89044 l -6.21825,-4.50824 -36.99225,0.0618 L 188,429 187,403 c -0.35,-4.52 -0.71,-8.95 -1.25,-13.44 -0.13,-1.1 -0.26,-2.2 -0.39,-3.33 C 172.66,282.84 117.87,191.69 51.44,113.69 50.01,112.01 48.58,110.32 47.16,108.62 40.01,100.16 32.52,92.06 24.9,84.02 22.39,81.36 19.91,78.68 17.42,75.99 11.73,69.87 5.98,63.84 0,58 5.5,51.3 11.61,45.26 17.74,39.16 c 1.14,-1.13 4.235086,4.105611 5.375086,2.975611 2.96,-2.96 17.921924,-17.730199 20.891924,-20.690199 C 47.04701,18.415412 36.13,20.82 39.16,17.79 45.11,11.86 51.05,5.93 57,0 Z"
     fill="#343332"
     id="path1"
     style="fill:#000000;fill-opacity:1" />
  <path
     d="m 20.203517,36.701925 c 0.72,0.72 1.236483,1.738075 1.976483,2.488075 2.62,2.61 5.25,5.22 7.87,7.83 1.45,1.44 2.9,2.88 4.34,4.32 0.99,0.98 1.97,1.95 2.96,2.93 5.21,5.17 10.34,10.37 15.12,15.95 2.38,2.77 4.9,5.42 7.41,8.09 4.44,4.78 8.64,9.68 12.73,14.77 2.27,2.78 4.61,5.47 6.99,8.17 7.03,7.98 13.53,16.28 19.92,24.79 1.34,1.77 2.69,3.54 4.06,5.29 C 169.27,215.69 218.86,320.19 217,429 h -29 c -0.1,-3.73 -0.21,-7.47 -0.31,-11.31 -3.97,-111.29 -59.03,-212.07 -136.25,-304 -1.43,-1.68 -2.86,-3.37 -4.28,-5.07 C 40.01,100.16 32.52,92.06 24.9,84.02 22.39,81.36 19.91,78.68 17.42,75.99 11.73,69.87 5.98,63.84 0,58 4.24,52.93 8.6834011,48.135965 13.393401,43.495965 c 0.64,-0.63 1.212859,-1.213322 1.872859,-1.873322 1.56,-1.54 3.377257,-3.380718 4.937257,-4.920718 z"
     fill="#646764"
     id="path2"
     style="fill:#626262;fill-opacity:1" />
  <path
     d="M 36.694411,20.253457 C 40.674411,21.853457 42.65,25.38 45.61,28.38 L 47.23,30 c 1.12,1.13 2.25,2.26 3.37,3.39 1.69,1.71 3.39,3.42 5.09,5.12 5.11,5.12 10.13,10.26 14.83,15.77 2.37,2.75 4.87,5.38 7.36,8.03 4.44,4.78 8.64,9.68 12.73,14.77 2.27,2.77 4.61,5.47 6.99,8.17 6.35,7.22 12.29,14.67 18.08,22.36 2.83,3.77 5.73,7.48 8.65,11.18 6.41,8.13 12.46,16.42 18.21,25.03 1.59,2.37 3.19,4.74 4.8,7.11 36.49,54.08 65.71,112.45 81.6,175.95 0.28,1.11 0.28,1.11 0.56,2.24 8.17,32.91 11.76,66.02 11.5,99.88 h -24 c -0.15,-2.82 -0.29,-5.64 -0.45,-8.54 C 211.15,322.75 176.25,234.73 120,155 c -0.53,-0.75 -1.06,-1.5 -1.6,-2.27 C 104.67,133.32 89.86,114.8 74.45,96.7 72.98,94.98 71.52,93.25 70.05,91.52 63.69,84.02 57.14,76.73 50.43,69.54 48.2,67.14 46.01,64.69 43.81,62.25 40.48,58.58 37.06,55.06 33.5,51.61 32.71,50.85 31.93,50.09 31.12,49.3 29.56,47.78 27.98,46.28 26.4,44.79 c -0.72,-0.7 -1.43,-1.39 -2.17,-2.1 -0.64,-0.62 -1.29,-1.23 -1.96,-1.87 -3.208191,-2.98441 0,0 -3.214475,-2.970585 C 25.16,31.55 23.34,33.32 25.16,31.55 c 0.63,-0.62 1.26,-1.24 1.9,-1.88 0.66,-0.63 1.32,-1.27 2,-1.92 0.67,-0.65 1.33,-1.3 2.01,-1.97 4.347163,-4.251542 3.974411,-3.936543 5.624411,-5.526543 z"
     fill="#1DFC00"
     id="path3"
     style="display:inline;fill:#ffffff;fill-opacity:1" />
  <path
     d="m 48,9 c 5.07,4.25 9.84,8.68 14.5,13.38 0.63,0.62 1.25,1.24 1.89,1.88 3.78,3.78 7.36,7.69 10.86,11.74 2.94,3.36 6.04,6.57 9.13,9.81 5.08,5.38 9.91,10.84 14.52,16.63 2.23,2.72 4.58,5.29 6.98,7.87 4.18,4.55 8.03,9.27 11.81,14.16 2.95,3.82 5.97,7.57 9.05,11.3 6.93,8.4 13.38,17.09 19.67,25.98 1.57,2.22 3.14,4.43 4.72,6.64 16.84,23.64 31.96,48.13 45.87,73.61 0.49,0.89 0.97,1.77 1.48,2.69 C 230.39,263 249.47,326.98 256,393 c 0.11,1.06 0.21,2.12 0.32,3.21 0.67,7.19 0.8,14.32 0.74,21.54 0,1.09 -0.01,2.18 -0.01,3.3 -0.01,2.65 -0.03,5.3 -0.05,7.95 h -16 c -0.09,-2.4 -0.17,-4.8 -0.26,-7.27 C 237.07,328.63 205.81,241.54 118,112 c -0.48,-0.63 -0.97,-1.25 -1.47,-1.9 C 110.74,102.61 104.77,95.29 98.62,88.09 96.19,85.24 93.84,82.35 91.5,79.44 87.37,74.36 82.99,69.55 78.54,64.76 76.55,62.6 74.6,60.42 72.69,58.19 61.4,45.22 48.647524,32.61004 36.427524,20.52004 c 1.970473,-1.968242 0.841966,-0.840736 3.129109,-3.125354 1.135171,-1.131548 0.801765,-0.799184 1.7059,-1.700534 C 43.593163,13.370199 45.72,11.21 48,9 Z"
     fill="#646764"
     id="path4"
     style="fill:#626262;fill-opacity:1" />
  <path
     d="M 9.0106746,47.96262 C 15.10074,53.893831 15.14,53.87 18.31,57.12 c 0.58,0.59 1.16,1.18 1.76,1.78 3.58,3.65 7.02,7.38 10.32,11.28 1.79,2.03 3.68,3.92 5.61,5.82 3.19,3.15 6.17,6.41 9.09,9.81 2.22,2.55 4.5,5.02 6.79,7.5 4.09,4.49 7.97,9.1 11.78,13.82 2.08,2.55 4.19,5.06 6.33,7.56 6.21,7.27 12.18,14.72 18.01,22.31 0.84,1.09 0.84,1.09 1.69,2.2 15.2,19.88 29.49,40.3 42.31,61.8 0.58,0.97 1.16,1.93 1.76,2.93 25.28,42.25 46.12,87.92 57.24,136.07 0.31,1.29 0.31,1.29 0.62,2.61 2.94,12.53 5.03,25.12 6.63,37.89 0.16,1.3 0.33,2.6 0.49,3.93 1.47,12.31 2.48,24.67 2.32,37.07 0,0.74 -0.01,1.48 -0.01,2.24 -0.01,1.75 -0.03,3.51 -0.05,5.26 h -13 c -0.06,-2.35 -0.06,-2.35 -0.11,-4.74 C 184.73,312.82 133.11,212.24 51.44,113.69 50.01,112.01 48.58,110.32 47.16,108.62 40.01,100.16 32.52,92.06 24.9,84.02 22.39,81.36 19.91,78.68 17.42,75.99 11.73,69.87 5.98,63.84 0,58 0.96,56.87 1.92,55.75 2.88,54.62 3.41,54 3.94,53.37 4.49,52.73 5.61,51.44 7.8006746,49.17262 9.0106746,47.96262 Z"
     fill="#353333"
     id="path5"
     style="fill:#000000;fill-opacity:1" />
  <path
     d="m 437.52827,36.475918 c 4.51113,4.51936 4.26097,4.26843 7.13409,7.14989 1.31099,1.314514 1.54548,1.549618 2.47268,2.479226 0.61,0.63 1.24496,1.234966 1.86496,1.894966 -4.4,5.35 -9.16,10.22 -14.12,15.06 -2.83,2.82 -5.41,5.82 -8.03,8.84 -3.14,3.56 -6.44,6.98 -9.73,10.41 -5.29,5.58 -10.34,11.21 -15.12,17.23 -2.04,2.51 -4.18,4.89 -6.38,7.27 -3.98,4.38 -7.64,8.93 -11.26,13.6 -2.97,3.84 -6.01,7.62 -9.1,11.36 -6.86,8.32 -13.27,16.91 -19.49,25.72 -1.23,1.75 -2.47,3.49 -3.71,5.23 -8.8,12.36 -17.11,24.87 -24.73,38 -1.24,2.13 -2.51,4.25 -3.8,6.35 -7.84,12.95 -14.71,26.42 -21.53,39.93 -0.43,0.84 -0.85,1.67 -1.29,2.54 -13.25,26.14 -23.12,54.2 -30.71,82.46 h -1 c -0.26,-6.97 -0.43,-13.93 -0.55,-20.9 -0.05,-2.36 -0.12,-4.72 -0.2,-7.07 -0.67,-18.36 2.59,-31.65 10.75,-48.03 0.65,-1.4 1.29,-2.8 1.93,-4.21 1.57,-3.46 3.21,-6.88 4.88,-10.29 0.29,-0.6 0.58,-1.19 0.88,-1.8 24.7,-50.67 56.74,-97.02 93.24,-139.87 2.81,-3.32 5.55,-6.68 8.26,-10.08 4.7,-5.79 9.81,-11.17 14.96,-16.56 3.23,-3.39 6.41,-6.8 9.47,-10.33 2.98,-3.45 6.12,-6.68 9.38,-9.86 4.56,-4.49 8.86,-9.11 13,-14 z"
     fill="#656665"
     id="path6"
     style="fill:#626262;fill-opacity:1" />
  <path
     d="m 241,29 c 5.28,0 10.56,0 16,0 0,97.68 0,195.36 0,296 -1.68,-3.37 -2.6,-5.96 -3.48,-9.56 -0.42,-1.66 -0.42,-1.66 -0.84,-3.36 -0.56,-2.28 -1.12,-4.56 -1.67,-6.83 -1.35,-5.37 -2.7,-10.58 -4.72,-15.74 -5.38,-13.96 -6.26,-26.44 -6.08,-41.29 0,-2.41 0,-4.82 -0.01,-7.22 0,-6.47 0.04,-12.93 0.09,-19.4 0.04,-6.09 0.05,-12.19 0.05,-18.28 0.02,-12.05 0.07,-24.1 0.13,-36.15 0.07,-11.69 0.12,-23.38 0.15,-35.08 0,-0.72 0,-1.44 0,-2.19 0.01,-3.63 0.02,-7.26 0.03,-10.89 C 240.72,89.01 240.84,59 241,29 Z"
     fill="#656665"
     id="path7"
     style="fill:#626262;fill-opacity:1" />
  <path
     d="m 409.52394,8.517782 c 0.48,0.41 0.90345,0.8690617 1.35961,1.3108802 0.89219,0.8694938 0.75467,0.7350348 1.69683,1.6592018 0.66147,0.652683 1.16771,1.154105 1.74815,1.730818 1.37536,1.372852 2.74579,2.747012 4.05439,4.061939 1.72461,1.731832 0.82798,0.830904 3.08115,3.089247 C 413.9,28.36 416.33,26.01 413.9,28.36 c -0.52,0.51 -1.03,1.02 -1.56,1.54 -1.65,1.62 -3.31,3.24 -4.96,4.85 -2.17,2.12 -4.33,4.24 -6.48,6.36 -0.52,0.51 -1.04,1.03 -1.58,1.55 -3.44,3.41 -6.7,6.91 -9.83,10.6 -2.37,2.76 -4.87,5.4 -7.37,8.05 -4.53,4.87 -8.8,9.88 -12.97,15.07 -2.17,2.64 -4.41,5.16 -6.71,7.68 C 358.06,88.88 354,93.87 350,99 l -3.12,3.96 C 317.64,140.21 292.25,179.2 270,221 h -1 c -2.41,-35.53 -2.41,-35.53 10.25,-51.71 2.44,-3.19 4.54,-6.57 6.68,-9.96 20.65,-32.68 44.32,-63.41 69.6,-92.62 1.46,-1.7 2.91,-3.42 4.36,-5.13 6.61,-7.82 13.48,-15.33 20.52,-22.77 3.09,-3.27 6.13,-6.59 9.15,-9.93 6.25,-6.86 13.36394,-13.852218 19.96394,-20.362218 z"
     fill="#656665"
     id="path8"
     style="fill:#626262;fill-opacity:1" />
  <path
     d="m 201,29 c 5.28,0 10.56,0 16,0 0,61.38 0,122.76 0,186 -15.66,-20.88 -17.88,-38 -17.32,-63.24 0.08,-4.33 0.09,-8.66 0.11,-13 0.04,-8.16 0.14,-16.32 0.27,-24.49 0.15,-9.31 0.22,-18.62 0.29,-27.93 C 200.48,67.23 200.71,48.11 201,29 Z"
     fill="#656665"
     id="path9"
     style="fill:#626262;fill-opacity:1" />
</svg>
