<?xml version="1.0" encoding="UTF-8" standalone="no"?>
<!-- Generator: https://ezgif.com/png-to-svg -->

<svg
   version="1.1"
   width="269"
   height="429"
   id="svg7"
   xmlns="http://www.w3.org/2000/svg"
   xmlns:svg="http://www.w3.org/2000/svg">
  <defs
     id="defs7" />
  <path
     d="m 57,0 c 1.1,0.94 2.21,1.88 3.31,2.82 0.92,0.78 0.92,0.78 1.86,1.58 2.72,2.38 5.28,4.91 7.83,7.48 l 1.58,1.58 c 3.4,3.44 6.64,6.99 9.78,10.68 1.8,2.04 3.7,3.95 5.64,5.86 3.19,3.15 6.17,6.41 9.09,9.81 2.22,2.55 4.5,5.02 6.79,7.5 4.07,4.47 7.92,9.05 11.71,13.75 2.71,3.3 5.49,6.53 8.29,9.75 5.93,6.89 11.57,13.98 17.12,21.19 0.61,0.79 1.23,1.59 1.86,2.4 8.74,11.31 17.21,22.72 25.14,34.6 1.35,2.01 2.7,4.03 4.05,6.04 2.79,4.16 5.57,8.32 8.35,12.49 0.57,0.86 1.15,1.72 1.74,2.61 2.34,3.59 4.59,7.23 6.86,10.86 0.5,-65.34 0.5,-65.34 1,-132 h 15.28481 l 8.77573,4.817021 32.64773,-0.471788 L 269,29 v 400 l -24.27911,-6.84813 -31.66035,-0.0686 L 204.33147,429 H 188 l -1,-26 c -0.35,-4.52 -0.71,-8.95 -1.25,-13.44 -0.13,-1.1 -0.26,-2.2 -0.39,-3.33 C 172.66,282.84 117.87,191.69 51.44,113.69 50.01,112.01 48.58,110.32 47.16,108.62 40.01,100.16 32.52,92.06 24.9,84.02 22.39,81.36 19.91,78.68 17.42,75.99 11.73,69.87 5.98,63.84 0,58 5.5,51.3 11.61,45.26 17.74,39.16 c 1.14,-1.13 2.27,-2.27 3.41,-3.4 2.96,-2.96 5.93,-5.92 8.9,-8.88 3.04,-3.03 6.08,-6.06 9.11,-9.09 C 45.11,11.86 51.05,5.93 57,0 Z"
     fill="#343332"
     id="path1"
     style="fill:#000000;fill-opacity:1" />
  <path
     d="m 241,29 c 9.24,0 18.48,0 28,0 0,132 0,264 0,400 -9.24,0 -18.48,0 -28,0 0,-132 0,-264 0,-400 z"
     fill="#666766"
     id="path2"
     style="fill:#626262;fill-opacity:1" />
  <path
     d="m 217,29 c 7.92,0 15.84,0 24,0 0,132 0,264 0,400 -7.92,0 -15.84,0 -24,0 0,-132 0,-264 0,-400 z"
     fill="#1DFF00"
     id="path3"
     style="display:inline;fill:#ffffff;fill-opacity:1" />
  <path
     d="m 201,29 c 5.28,0 10.56,0 16,0 0,132 0,264 0,400 -5.28,0 -10.56,0 -16,0 0,-132 0,-264 0,-400 z"
     fill="#666766"
     id="path4"
     style="fill:#626262;fill-opacity:1" />
  <path
     d="m 19.909966,36.995136 c 4.481445,4.353603 0,0 5.794314,5.640561 8.007707,8.037624 8.843689,8.991803 13.293689,13.361803 5,4.92 9.86,9.86 14.42,15.18 2.26,2.6 4.61,5.11 6.96,7.63 4.25,4.61 8.26,9.35 12.19,14.24 2.29,2.78 4.65,5.49 7.03,8.2 6.98,7.93 13.44,16.16 19.78,24.61 1.600001,2.11 3.210001,4.2 4.840001,6.29 16.72,21.56 32.16,44.21 45.78,67.85 0.51,0.89 1.02,1.78 1.55,2.69 37.61,65.57 37.61,65.57 37.57,82.61 v 3.28 c -0.01,1.16 -0.01,2.33 -0.02,3.53 v 3.62 c -0.01,3.82 -0.02,7.64 -0.04,11.46 0,2.59 -0.01,5.18 -0.01,7.76 -0.01,6.35 -0.03,12.7 -0.05,19.05 -1.67,-3.16 -2.61,-6.19 -3.44,-9.68 -10.42,-43.43 -31.37,-85.33 -54.56,-123.32 -0.63,-1.03 -1.26,-2.07 -1.91,-3.13 -7.29,-11.94 -14.78,-23.61 -23.09,-34.87 -1.25,-1.75 -2.49,-3.51 -3.74,-5.28 -8.750001,-12.37 -18.170001,-24.17 -27.770001,-35.9 -1.3,-1.59 -2.6,-3.19 -3.89,-4.79 -8.68,-10.69 -17.65,-21.1 -27,-31.21 -2.48,-2.69 -4.92,-5.4 -7.35,-8.13 -3.09,-3.45 -6.27,-6.74 -9.58,-9.98 -1.76,-1.8 -3.4,-3.67 -5.04,-5.58 -3.97,-4.62 -8.725064,-9.428125 -13.075064,-13.688125 2.241691,-2.313654 4.073788,-4.172069 6.322225,-6.426491 0.7,-0.82 1.783574,-1.77703 2.618448,-2.607687 1.608701,-1.602517 0.910927,-0.90764 2.416388,-2.410061 z"
     fill="#656665"
     id="path5"
     style="fill:#626262;fill-opacity:1" />
  <path
     d="m 257,29 c 3.96,0 7.92,0 12,0 0,132 0,264 0,400 -3.96,0 -7.92,0 -12,0 0,-132 0,-264 0,-400 z"
     fill="#343332"
     id="path6"
     style="fill:#000000;fill-opacity:1" />
  <path
     d="M 47.977604,8.9971378 C 53.047604,13.247138 57.84,17.68 62.5,22.38 c 0.63,0.62 1.25,1.24 1.89,1.88 3.78,3.78 7.36,7.69 10.86,11.74 2.94,3.36 6.04,6.57 9.13,9.81 5.08,5.38 9.91,10.84 14.52,16.63 2.23,2.72 4.58,5.29 6.98,7.87 4.18,4.55 8.03,9.27 11.81,14.16 2.95,3.82 5.97,7.57 9.05,11.3 6.93,8.4 13.38,17.09 19.67,25.98 1.57,2.22 3.14,4.43 4.72,6.64 11.13,15.63 21.57,31.56 31.31,48.1 1.46,2.47 1.46,2.47 3.08,4.36 5.34,6.75 4.01,15.5 3.79,23.65 -0.02,1.6 -0.05,3.2 -0.07,4.8 -0.05,3.9 -0.14,7.8 -0.24,11.7 -2.22,-2.82 -3.98,-5.66 -5.64,-8.83 -0.51,-0.95 -1.01,-1.9 -1.53,-2.88 -0.54,-1.03 -1.09,-2.05 -1.64,-3.1 C 166.33,180.35 150.42,155.58 133,132 c -0.45,-0.61 -0.89,-1.21 -1.36,-1.84 C 121,115.78 110.17,101.52 98.51,87.94 96.14,85.17 93.85,82.34 91.56,79.5 87.18,74.11 82.5,69.05 77.77,63.98 75.67,61.73 73.63,59.46 71.62,57.12 60.68,44.52 48.386655,32.161058 36.516655,20.431058 c 1.141808,-1.140294 1.920814,-1.918711 2.955585,-2.952257 0.951184,-0.948121 0.847277,-0.844541 1.779774,-1.774162 2.365486,-2.358711 4.504039,-4.4916 6.72559,-6.7075012 z"
     fill="#656665"
     id="path7"
     style="fill:#626262;fill-opacity:1" />
</svg>
