<?xml version="1.0" encoding="UTF-8" standalone="no"?>
<!-- Generator: https://ezgif.com/png-to-svg -->

<svg
   version="1.1"
   width="269"
   height="429"
   id="svg7"
   xmlns="http://www.w3.org/2000/svg"
   xmlns:svg="http://www.w3.org/2000/svg">
  <defs
     id="defs7" />
  <path
     d="m 211,0 c 6.7,5.5 12.74,11.61 18.84,17.74 1.13,1.14 2.27,2.27 3.4,3.41 2.96,2.96 5.92,5.93 8.88,8.9 3.03,3.04 6.06,6.08 9.09,9.11 5.93,5.95 11.86,11.89 17.79,17.84 -0.94,1.1 -1.88,2.21 -2.81,3.31 -0.53,0.62 -1.05,1.23 -1.59,1.86 -2.38,2.72 -4.95,5.24 -7.54,7.77 -4.01,3.95 -7.83,7.98 -11.49,12.27 -1.62,1.84 -3.32,3.57 -5.07,5.29 -3.04,2.99 -5.85,6.12 -8.62,9.34 -2.05,2.36 -4.15,4.67 -6.26,6.97 -3.89,4.32 -7.59,8.76 -11.24,13.28 -2.11,2.58 -4.25,5.12 -6.42,7.65 -5.43,6.35 -10.62,12.85 -15.65,19.52 -1.36,1.81 -2.74,3.61 -4.11,5.41 C 125.58,232.06 85.02,324.61 81,429 H 63.993376 l -6.563859,-4.12742 -40.44643,0.0515 L 0,429 V 29 L 21.659609,34.676914 56.014734,34.299218 63.051449,29 H 80 l 1,132 12,-19 c 2.6,-3.86 5.2,-7.7 7.88,-11.5 0.66,-0.96 1.33,-1.91 2.02,-2.9 12.05,-17.13 24.62,-33.81 37.94,-49.97 1.43,-1.74 2.85,-3.48 4.26,-5.23 8.9,-10.98 18.16,-21.63 27.79,-31.97 2.68,-2.87 5.3,-5.77 7.86,-8.74 2.94,-3.41 6.09,-6.55 9.3,-9.71 1.82,-1.85 3.52,-3.75 5.2,-5.73 C 200.17,10.52 205.62,5.3 211,0 Z"
     fill="#343332"
     id="path1"
     style="fill:#000000;fill-opacity:1" />
  <path
     d="m 0,29 c 9.24,0 18.48,0 28,0 0,132 0,264 0,400 -9.24,0 -18.48,0 -28,0 C 0,297 0,165 0,29 Z"
     fill="#666766"
     id="path2"
     style="fill:#626262;fill-opacity:1" />
  <path
     d="m 28,29 c 7.92,0 15.84,0 24,0 0,132 0,264 0,400 -7.92,0 -15.84,0 -24,0 0,-132 0,-264 0,-400 z"
     fill="#1DFF00"
     id="path3"
     style="display:inline;fill:#ffffff;fill-opacity:1" />
  <path
     d="m 52,29 c 5.28,0 10.56,0 16,0 0,132 0,264 0,400 -5.28,0 -10.56,0 -16,0 0,-132 0,-264 0,-400 z"
     fill="#666766"
     id="path4"
     style="fill:#626262;fill-opacity:1" />
  <path
     d="m 248.52827,36.475918 c 3.31195,3.316394 4.23329,4.240663 7.02919,7.044709 1.21212,1.215381 1.38915,1.392881 2.66297,2.670016 0.64968,0.65134 1.11866,1.121505 1.79608,1.800643 -4.4,5.35 -9.17651,10.228714 -14.13651,15.068714 -2.83,2.82 -5.41,5.82 -8.03,8.84 -3.14,3.56 -6.44,6.98 -9.73,10.41 -5.29,5.58 -10.34,11.21 -15.12,17.23 -2.04,2.51 -4.18,4.89 -6.38,7.27 -3.98,4.38 -7.64,8.93 -11.26,13.6 -2.97,3.84 -6.01,7.62 -9.1,11.36 -6.86,8.32 -13.27,16.91 -19.49,25.72 -1.23,1.75 -2.47,3.49 -3.71,5.23 -8.8,12.36 -17.11,24.87 -24.73,38 -1.24,2.13 -2.51,4.25 -3.8,6.35 -7.84,12.95 -14.71,26.42 -21.53,39.93 -0.43,0.84 -0.85,1.67 -1.29,2.54 C 98.46,275.68 88.59,303.74 81,332 h -1 c -0.26,-6.97 -0.43,-13.93 -0.55,-20.9 -0.05,-2.36 -0.12,-4.72 -0.2,-7.07 C 78.58,285.67 81.84,272.38 90,256 c 0.65,-1.4 1.29,-2.8 1.93,-4.21 1.57,-3.46 3.21,-6.88 4.88,-10.29 0.29,-0.6 0.58,-1.19 0.88,-1.8 24.7,-50.67 56.74,-97.02 93.24,-139.87 2.81,-3.32 5.55,-6.68 8.26,-10.08 4.7,-5.79 9.81,-11.17 14.96,-16.56 3.23,-3.39 6.41,-6.8 9.47,-10.33 2.98,-3.45 6.12,-6.68 9.38,-9.86 4.56,-4.49 8.86,-9.11 13,-14 z"
     fill="#656665"
     id="path5"
     style="fill:#626262;fill-opacity:1" />
  <path
     d="m 0,29 c 3.96,0 7.92,0 12,0 0,132 0,264 0,400 -3.96,0 -7.92,0 -12,0 C 0,297 0,165 0,29 Z"
     fill="#343332"
     id="path6"
     style="fill:#000000;fill-opacity:1" />
  <path
     d="m 220.56999,8.5618707 c 0.48459,0.4653605 0.97245,0.9362214 1.39654,1.3473637 0.93675,0.9137626 0.79441,0.7744406 1.78376,1.7459926 0.62773,0.620036 1.16745,1.155109 1.7221,1.706661 1.36248,1.360769 2.69364,2.695901 3.93128,3.939583 1.73526,1.742394 1.74309,1.750228 3.17483,3.183166 C 227.29534,26.013982 227.33,26.01 224.9,28.36 c -0.52,0.51 -1.03,1.02 -1.56,1.54 -1.65,1.62 -3.31,3.24 -4.96,4.85 -2.17,2.12 -4.33,4.24 -6.48,6.36 -0.52,0.51 -1.04,1.03 -1.58,1.55 -3.44,3.41 -6.7,6.91 -9.83,10.6 -2.37,2.76 -4.87,5.4 -7.37,8.05 -4.53,4.87 -8.8,9.88 -12.97,15.07 -2.17,2.64 -4.41,5.16 -6.71,7.68 C 169.06,88.88 165,93.87 161,99 l -3.12,3.96 C 128.64,140.21 103.25,179.2 81,221 h -1 c -2.43,-24.12 0.27,-39.37 14.77,-58.96 3.59,-4.89 6.88,-9.98 10.23,-15.04 18.86,-28.04 39.42,-54.75 61.53,-80.29 1.46,-1.7 2.91,-3.42 4.36,-5.13 6.61,-7.82 13.48,-15.33 20.52,-22.77 3.09,-3.27 6.13,-6.59 9.15,-9.93 6.25,-6.86 13.40999,-13.808129 20.00999,-20.3181293 z"
     fill="#656665"
     id="path7"
     style="fill:#626262;fill-opacity:1" />
</svg>
