<?xml version="1.0" encoding="UTF-8" standalone="no"?>
<!-- Generator: https://ezgif.com/png-to-svg -->

<svg
   version="1.1"
   width="269.62189"
   height="429"
   id="svg7"
   xmlns="http://www.w3.org/2000/svg"
   xmlns:svg="http://www.w3.org/2000/svg">
  <defs
     id="defs7" />
  <path
     d="m 211,0 c 6.7,5.5 12.74,11.61 18.84,17.74 1.13,1.14 -10.0962,3.118179 -8.9662,4.258179 2.96,2.96 21.10532,20.016165 24.06532,22.986165 3.03,3.04 3.24088,-8.854344 6.27088,-5.824344 5.93,5.95 11.86,11.89 17.79,17.84 -0.94,1.1 -1.88,2.21 -2.81,3.31 -0.53,0.62 -1.05,1.23 -1.59,1.86 -2.38,2.72 -4.95,5.24 -7.54,7.77 -4.01,3.95 -7.83,7.98 -11.49,12.27 -1.62,1.84 -3.32,3.57 -5.07,5.29 -3.04,2.99 -5.85,6.12 -8.62,9.34 -2.05,2.36 -4.15,4.67 -6.26,6.97 -3.89,4.32 -7.59,8.76 -11.24,13.28 -2.11,2.58 -4.25,5.12 -6.42,7.65 -5.43,6.35 -10.62,12.85 -15.65,19.52 -1.36,1.81 -2.74,3.61 -4.11,5.41 C 125.58,232.06 85.02,324.61 81,429 L 57.433712,419.61298 23.961592,419.11893 15.307197,429 H 0 V 29 h 80 l 1,132 12,-19 c 2.6,-3.86 5.2,-7.7 7.88,-11.5 0.66,-0.96 1.33,-1.91 2.02,-2.9 12.05,-17.13 24.62,-33.81 37.94,-49.97 1.43,-1.74 2.85,-3.48 4.26,-5.23 8.9,-10.98 18.16,-21.63 27.79,-31.97 2.68,-2.87 5.3,-5.77 7.86,-8.74 2.94,-3.41 6.09,-6.55 9.3,-9.71 1.82,-1.85 3.52,-3.75 5.2,-5.73 C 200.17,10.52 205.62,5.3 211,0 Z"
     fill="#343332"
     id="path1"
     style="fill:#000000;fill-opacity:1" />
  <path
     d="m 248.52625,36.473893 c 4.57719,4.58562 9.19991,9.221207 13.91375,13.906107 0.63,0.64 1.27,1.28 1.93,1.94 1.54,1.56 3.09,3.12 4.63,4.68 -3.79,4.54 -7.71,8.81 -11.94,12.94 -4.01,3.95 -7.83,7.98 -11.49,12.27 -1.62,1.84 -3.32,3.57 -5.07,5.29 -3.04,2.99 -5.85,6.12 -8.62,9.34 -2.05,2.36 -4.15,4.67 -6.26,6.97 -3.89,4.32 -7.59,8.76 -11.24,13.28 -2.11,2.58 -4.25,5.12 -6.42,7.65 -5.43,6.35 -10.62,12.85 -15.65,19.52 -1.36,1.81 -2.74,3.61 -4.11,5.41 C 129.43,227 84.82,318.15 81.44,416.69 81.29,420.75 81.15,424.81 81,429 H 52 c -1.7,-99.26 39.65,-194.13 96,-274 0.53,-0.75 1.06,-1.5 1.6,-2.27 13.73,-19.41 28.54,-37.93 43.95,-56.03 1.47,-1.72 2.93,-3.45 4.4,-5.18 6.36,-7.5 12.91,-14.79 19.62,-21.98 2.23,-2.4 4.42,-4.85 6.62,-7.29 5.55,-6.08 11.37,-11.87 17.24,-17.64 0.7,-0.7 1.41,-1.4 2.14,-2.12 0.64,-0.62 1.27,-1.25 1.93,-1.89 1.59,-1.55 2.11625,-2.076107 3.02625,-4.126107 z"
     fill="#646764"
     id="path2"
     style="fill:#626262;fill-opacity:1" />
  <path
     d="M 232.33991,20.245425 C 235.81395,23.726229 238.46,26.05 241.81,29.38 c 0.61,0.57 1.22,1.15 1.85,1.74 0.57,0.57 1.15,1.13 1.73,1.72 0.79,0.76 0.79,0.76 1.59,1.54 1.02,1.62 2.46921,1.13856 2.44921,2.99856 C 244.45064,42.921552 244.31,43.04 241.9,45.36 c -0.52,0.51 -1.03,1.02 -1.56,1.54 -1.65,1.62 -3.31,3.24 -4.96,4.85 -2.17,2.12 -4.33,4.24 -6.48,6.36 -0.52,0.51 -1.04,1.03 -1.58,1.55 -3.44,3.41 -6.7,6.91 -9.83,10.6 -2.37,2.76 -4.87,5.4 -7.37,8.05 -4.44,4.78 -8.64,9.68 -12.73,14.77 -2.27,2.78 -4.61,5.47 -6.99,8.17 -7.03,7.98 -13.53,16.28 -19.92,24.79 -1.34,1.77 -2.69,3.54 -4.06,5.29 C 114.7,197.75 74.62,274.87 59,358 c -0.18,0.95 -0.37,1.89 -0.55,2.87 C 54.19,383.34 53.32,406.2 52,429 H 28 c -0.59806,-79.28958 21.24423,-155.17011 72.49847,-243.10242 13.87887,-23.81074 29.78989,-48.55397 47.80407,-74.56309 0.48,-0.63 0.97,-1.25 1.47,-1.90001 5.79,-7.48999 11.76,-14.809995 17.91,-22.009995 2.43,-2.85 4.78,-5.74 7.12,-8.65 4.13,-5.08 8.51,-9.89 12.96,-14.68 1.99,-2.16 5.63746,-3.674485 7.54746,-5.904485 8.4,-9.67 17.3,-18.88 26.41,-27.87 1.89,-1.92 3.64,-3.86 5.34,-5.94 1.94,-2.38 3.27991,-3.134575 5.27991,-4.134575 z"
     fill="#1DFC00"
     id="path3"
     style="display:inline;fill:#ffffff;fill-opacity:1" />
  <path
     d="m 220.54864,8.541425 c 1.11,0.9299999 2.11106,2.043257 3.12237,3.035682 0.62064,0.612699 1.20633,1.193116 1.72315,1.706894 2.61489,2.616155 4.44584,4.455999 6.94575,6.961424 -0.85,0.66 -2.02991,2.074575 -2.89991,2.754575 -0.94503,0.945026 -22.70663,22.724916 -29.61,30.89 -1.99,2.3 -4.05,4.51 -6.13,6.73 -4.98,5.34 -9.74,10.76 -14.31,16.46 -2.27,2.77 -4.61,5.47 -6.99,8.17 -6.35,7.22 -12.29,14.67 -18.08,22.36 -2.83,3.77 -5.73,7.48 -8.65,11.18 -6.41,8.13 -12.46,16.42 -18.21,25.03 -1.59,2.37 -3.19,4.74 -4.8,7.11 -36.49,54.08 -65.71,112.45 -81.6,175.95 -0.18,0.74 -0.37,1.48 -0.56,2.24 C 32.31,362.11 29.34,395.14 28,429 H 12 c -0.69,-19.56 1.31,-38.54 3.74,-57.9 0.25,-2.05 0.49,-4.09 0.71,-6.14 1.14,-9.92 2.97,-19.54 5.17,-29.27 0.18,-0.78 0.35,-1.56 0.53,-2.36 C 30.08,298.21 42.17,264.74 57,232 c 0.67,-1.49 0.67,-1.49 1.36,-3 27.02,-59.21 65.71,-113.24 108.17,-162.29 1.46,-1.7 2.91,-3.42 4.36,-5.13 6.61,-7.82 13.48,-15.33 20.52,-22.77 3.09,-3.27 6.13,-6.59 9.15,-9.93 6.25,-6.86 13.38864,-13.828575 19.98864,-20.338575 z"
     fill="#646764"
     id="path4"
     style="fill:#626262;fill-opacity:1" />
  <path
     d="m 260.12864,48.103702 c 2.31136,2.276298 3.73488,3.709647 6.32875,6.345664 0.92466,0.914523 0.68144,0.668888 1.73512,1.740482 C 269,57 269,57 269.62189,57.58541 269.11188,58.08541 267.98,59.01 267.46,59.53 c -2.34,2.32 -4.68,4.64 -7.02,6.97 -0.8,0.79 -1.6,1.58 -2.43,2.4 -4.33,4.31 -8.51,8.68 -12.47,13.34 -1.61,1.84 -3.3,3.55 -5.04,5.26 -3.04,2.99 -5.85,6.12 -8.62,9.34 -2.05,2.36 -4.15,4.67 -6.26,6.97 -3.89,4.32 -7.59,8.76 -11.24,13.28 -2.11,2.58 -4.25,5.12 -6.42,7.65 -5.43,6.35 -10.62,12.85 -15.65,19.52 -1.36,1.81 -2.74,3.61 -4.11,5.41 C 129.43,227 84.81,318.15 81.44,416.69 c -0.05,1.19 -0.09,2.38 -0.13,3.6 C 81.2,423.2 81.1,426.1 81,429 H 68 c -3.08,-66.68 19.26,-133.25 49,-192 0.48,-0.95 0.95,-1.91 1.44,-2.89 11.2,-22.34 24.4,-43.53 38.56,-64.11 0.52,-0.75 1.03,-1.5 1.57,-2.28 10.95,-15.88 22.75,-31.06 34.99,-45.96 1.28,-1.57 2.56,-3.14 3.83,-4.71 8.69,-10.71 17.67,-21.15 27.04,-31.27 2.3,-2.49 4.57,-5 6.82,-7.53 8.97,-9.99 19.24864,-20.786298 28.87864,-30.146298 z"
     fill="#353433"
     id="path5"
     style="fill:#000000;fill-opacity:1" />
  <path
     d="m 12,29 c 5.28,0 10.56,0 16,0 0.21,30.61 0.37,61.21 0.46,91.82 0.01,3.63 0.02,7.26 0.03,10.89 0.01,0.72 0.01,1.44 0.01,2.19 0.04,11.63 0.11,23.27 0.19,34.9 0.09,11.97 0.14,23.95 0.16,35.92 0.01,6.71 0.04,13.42 0.1,20.13 0.49,52.05 0.49,52.05 -8.83,73.32 -2.12,5.36 -3.36,10.98 -4.68,16.58 -0.26,1.07 -0.52,2.14 -0.79,3.24 -0.56,2.34 -1.11,4.67 -1.65,7.01 -0.33,0 -0.66,0 -1,0 0,-97.68 0,-195.36 0,-296 z"
     fill="#656665"
     id="path6"
     style="fill:#626262;fill-opacity:1" />
  <path
     d="m 52,29 c 5.28,0 10.56,0 16,0 0.35,19.97 0.62,39.94 0.78,59.91 0.07,9.27 0.18,18.55 0.35,27.82 0.15,8.1 0.25,16.2 0.28,24.3 0.02,4.28 0.06,8.55 0.18,12.83 0.6,24.13 -3.27,40.75 -16.59,61.14 -0.33,0 -0.66,0 -1,0 0,-61.38 0,-122.76 0,-186 z"
     fill="#656665"
     id="path7"
     style="fill:#626262;fill-opacity:1" />
</svg>
