<?xml version="1.0" encoding="UTF-8" standalone="no"?>
<!-- Generator: https://ezgif.com/png-to-svg -->

<svg
   version="1.1"
   width="458"
   height="429"
   id="svg7"
   xmlns="http://www.w3.org/2000/svg"
   xmlns:svg="http://www.w3.org/2000/svg">
  <defs
     id="defs7" />
  <path
     d="m 57,0 c 1.1,0.94 2.21,1.88 3.31,2.82 0.92,0.78 0.92,0.78 1.86,1.58 2.72,2.38 5.28,4.91 7.83,7.48 l 1.58,1.58 c 3.4,3.44 6.64,6.99 9.78,10.68 1.8,2.04 3.7,3.95 5.64,5.86 3.19,3.15 6.17,6.41 9.09,9.81 2.22,2.55 4.5,5.02 6.79,7.5 4.07,4.47 7.92,9.05 11.71,13.75 2.71,3.3 5.49,6.53 8.29,9.75 5.93,6.89 11.57,13.98 17.12,21.19 0.61,0.79 1.23,1.59 1.86,2.4 8.18,10.58 16.2,21.22 23.63,32.34 1.72,2.58 3.47,5.14 5.21,7.71 13.47,19.89 25.95,40.38 37.3,61.55 0.48,0.89 0.96,1.79 1.46,2.71 C 228,233.35 225.84375,233.0375 228,239 h 2 c 0.35,-1.18 0.71,-2.37 1.07,-3.59 2.32,-6.94 5.6,-13.46 8.81,-20.03 0.33,-0.69 0.66,-1.37 1,-2.07 6.2,-12.74 12.93,-25.1 20.12,-37.31 0.95,-1.64 1.9,-3.27 2.84,-4.91 19.44,-33.26 42.29,-64.71 66.77,-94.4 1.26,-1.53 2.5,-3.06 3.74,-4.59 8.8,-10.89 18,-21.42 27.54,-31.67 2.68,-2.87 5.3,-5.77 7.86,-8.74 2.94,-3.41 6.09,-6.55 9.3,-9.71 1.82,-1.85 3.52,-3.75 5.2,-5.73 C 389.17,10.52 394.62,5.3 400,0 c 6.7,5.5 12.74,11.61 18.84,17.74 1.13,1.14 2.27,2.27 3.4,3.41 2.96,2.96 5.92,5.93 8.88,8.9 3.03,3.04 6.06,6.08 9.09,9.11 5.93,5.95 11.86,11.89 17.79,17.84 -0.94,1.1 -1.88,2.21 -2.81,3.31 -0.53,0.62 -1.05,1.23 -1.59,1.86 -2.38,2.72 -4.95,5.24 -7.54,7.77 -4.01,3.95 -7.83,7.98 -11.49,12.27 -1.62,1.84 -3.32,3.57 -5.07,5.29 -3.04,2.99 -5.85,6.12 -8.62,9.34 -2.05,2.36 -4.15,4.67 -6.26,6.97 -3.89,4.32 -7.59,8.76 -11.24,13.28 -2.11,2.58 -4.25,5.12 -6.42,7.65 -5.43,6.35 -10.62,12.85 -15.65,19.52 -1.36,1.81 -2.74,3.61 -4.11,5.41 C 314.58,232.06 274.02,324.61 270,429 H 254.98126 L 243.38307,422.08325 213.06054,421.95974 188,429 187,403 c -0.35,-4.52 -0.71,-8.95 -1.25,-13.44 -0.13,-1.1 -0.26,-2.2 -0.39,-3.33 C 172.66,282.84 117.87,191.69 51.44,113.69 50.01,112.01 48.58,110.32 47.16,108.62 40.01,100.16 32.52,92.06 24.9,84.02 22.39,81.36 19.91,78.68 17.42,75.99 11.73,69.87 5.98,63.84 0,58 5.5,51.3 13.687126,48.928116 19.817126,42.828116 c 1.14,-1.13 3.816796,3.210078 4.956796,2.080078 2.96,-2.96 17.468863,-17.377519 20.438863,-20.337519 C 48.252785,21.540675 36.13,20.82 39.16,17.79 45.11,11.86 51.05,5.93 57,0 Z"
     fill="#343333"
     id="path1"
     style="fill:#000000;fill-opacity:1" />
  <path
     d="m 20.211627,36.693829 c 0.72,0.72 1.228373,1.746171 1.968373,2.496171 2.62,2.61 5.25,5.22 7.87,7.83 1.45,1.44 2.9,2.88 4.34,4.32 0.99,0.98 1.97,1.95 2.96,2.93 5.21,5.17 10.34,10.37 15.12,15.95 2.38,2.77 4.9,5.42 7.41,8.09 4.44,4.78 8.64,9.68 12.73,14.77 2.27,2.78 4.61,5.47 6.99,8.17 7.03,7.98 13.53,16.28 19.92,24.79 1.34,1.77 2.69,3.54 4.06,5.29 C 169.27,215.69 218.86,320.19 217,429 h -29 c -0.1,-3.73 -0.21,-7.47 -0.31,-11.31 -3.97,-111.29 -59.03,-212.07 -136.25,-304 -1.43,-1.68 -2.86,-3.37 -4.28,-5.07 C 40.01,100.16 32.52,92.06 24.9,84.02 22.39,81.36 19.91,78.68 17.42,75.99 11.73,69.87 5.98,63.84 0,58 4.257313,52.865477 8.659661,48.136073 13.360945,43.528554 c 0.641972,-0.643712 1.271788,-1.273605 1.934403,-1.934917 1.56,-1.54 3.356279,-3.359808 4.916279,-4.899808 z"
     fill="#646764"
     id="path2"
     style="fill:#626262;fill-opacity:1" />
  <path
     d="M 36.505703,20.441992 C 39.716611,23.62433 42.65,25.38 45.61,28.38 L 47.23,30 c 1.12,1.13 2.25,2.26 3.37,3.39 1.69,1.71 3.39,3.42 5.09,5.12 5.11,5.12 10.13,10.26 14.83,15.77 2.37,2.75 4.87,5.38 7.36,8.03 4.44,4.78 8.64,9.68 12.73,14.77 2.27,2.77 4.61,5.47 6.99,8.17 6.35,7.22 12.29,14.67 18.08,22.36 2.83,3.77 5.73,7.48 8.65,11.18 6.41,8.13 12.46,16.42 18.21,25.03 1.59,2.37 3.19,4.74 4.8,7.11 36.49,54.08 65.71,112.45 81.6,175.95 0.28,1.11 0.28,1.11 0.56,2.24 8.17,32.91 11.76,66.02 11.5,99.88 h -24 c -0.15,-2.82 -0.29,-5.64 -0.45,-8.54 C 211.15,322.75 176.25,234.73 120,155 c -0.53,-0.75 -1.06,-1.5 -1.6,-2.27 C 104.67,133.32 89.86,114.8 74.45,96.7 72.98,94.98 71.52,93.25 70.05,91.52 63.69,84.02 57.14,76.73 50.43,69.54 48.2,67.14 46.01,64.69 43.81,62.25 40.48,58.58 37.06,55.06 33.5,51.61 32.71,50.85 31.93,50.09 31.12,49.3 29.56,47.78 27.98,46.28 26.4,44.79 c -0.72,-0.7 -1.43,-1.39 -2.17,-2.1 -0.64,-0.62 -1.29,-1.23 -1.96,-1.87 -2.242272,-2.328233 0,0 -3.081034,-3.1112 C 21.285291,35.617542 23.34,33.32 25.16,31.55 c 0.63,-0.62 1.26,-1.24 1.9,-1.88 0.66,-0.63 1.32,-1.27 2,-1.92 0.67,-0.65 1.33,-1.3 2.01,-1.97 1.938223,-1.848832 3.211851,-3.118927 5.435703,-5.338008 z"
     fill="#1DFC00"
     id="path3"
     style="display:inline;fill:#ffffff;fill-opacity:1" />
  <path
     d="m 48,9 c 5.07,4.25 9.84,8.68 14.5,13.38 0.63,0.62 1.25,1.24 1.89,1.88 3.78,3.78 7.36,7.69 10.86,11.74 2.94,3.36 6.04,6.57 9.13,9.81 5.08,5.38 9.91,10.84 14.52,16.63 2.23,2.72 4.58,5.29 6.98,7.87 4.18,4.55 8.03,9.27 11.81,14.16 2.95,3.82 5.97,7.57 9.05,11.3 6.93,8.4 13.38,17.09 19.67,25.98 1.57,2.22 3.14,4.43 4.72,6.64 16.38,23 31.19,46.91 44.87,71.61 0.45,0.81 0.9,1.62 1.36,2.46 32.42,58.99 52.02,123.66 58.64,190.54 0.11,1.06 0.21,2.12 0.32,3.21 0.67,7.19 0.8,14.32 0.74,21.54 0,1.09 -0.01,2.18 -0.01,3.3 -0.01,2.65 -0.03,5.3 -0.05,7.95 h -16 c -0.09,-2.4 -0.17,-4.8 -0.26,-7.27 C 237.07,328.63 205.81,241.54 118,112 c -0.48,-0.63 -0.97,-1.25 -1.47,-1.9 C 110.74,102.61 104.77,95.29 98.62,88.09 96.19,85.24 93.84,82.35 91.5,79.44 87.37,74.36 82.99,69.55 78.54,64.76 76.55,62.6 74.6,60.42 72.69,58.19 61.4,45.22 48.725093,32.532601 36.505093,20.442601 c 1.125196,-1.123691 2.103368,-2.10117 3.051758,-3.048132 1.088844,-1.085366 0.734275,-0.731908 1.805068,-1.799405 C 43.726781,13.236945 45.828145,11.141134 48,9 Z"
     fill="#646764"
     id="path4"
     style="fill:#626262;fill-opacity:1" />
  <path
     d="m 437.52827,36.475918 c 3.29515,3.299538 4.38225,4.390078 7.15608,7.171947 1.2,1.24 0.74418,0.746188 2.36253,2.368782 0.61,0.63 1.15024,1.153171 1.95312,1.983353 -8.025,8.4125 -7.8475,8.1575 -14.12,15.06 -2.83,2.82 -5.41,5.82 -8.03,8.84 -3.14,3.56 -6.44,6.98 -9.73,10.41 -5.29,5.58 -10.34,11.21 -15.12,17.23 -2.04,2.51 -4.18,4.89 -6.38,7.27 -3.98,4.38 -7.64,8.93 -11.26,13.6 -2.97,3.84 -6.01,7.62 -9.1,11.36 -6.86,8.32 -13.27,16.91 -19.49,25.72 -1.23,1.75 -2.47,3.49 -3.71,5.23 -8.8,12.36 -17.11,24.87 -24.73,38 -1.24,2.13 -2.51,4.25 -3.8,6.35 -7.84,12.95 -14.71,26.42 -21.53,39.93 -0.43,0.84 -0.85,1.67 -1.29,2.54 C 283.38,283.75 272,320.6 264,358 h -1 c -0.84,-4.11 -1.68,-8.21 -2.51,-12.32 -0.28,-1.4 -0.57,-2.79 -0.85,-4.18 -0.92,-4.5 -1.8,-8.99 -2.64,-13.5 -0.25,-1.29 -0.25,-1.29 -0.51,-2.61 -0.98,-6.1 0.41,-11.02 2.32,-16.83 0.32,-0.99 0.63,-1.98 0.96,-3 12.61,-38.78 30.24,-75.67 51.23,-110.56 0.93,-1.58 1.87,-3.15 2.8,-4.73 19.13,-32.07 41.94,-62.04 66.13,-90.44 2.81,-3.32 5.55,-6.68 8.26,-10.08 4.7,-5.79 9.81,-11.17 14.96,-16.56 3.23,-3.39 6.41,-6.8 9.47,-10.33 2.98,-3.45 6.12,-6.68 9.38,-9.86 4.56,-4.49 8.86,-9.11 13,-14 z"
     fill="#656665"
     id="path5"
     style="fill:#626262;fill-opacity:1" />
  <path
     d="M 8.8035589,48.178026 C 13.755444,52.611962 15.14,53.87 18.31,57.12 c 0.58,0.59 1.16,1.18 1.76,1.78 3.58,3.65 7.02,7.38 10.32,11.28 1.79,2.03 3.68,3.92 5.61,5.82 3.19,3.15 6.17,6.41 9.09,9.81 2.22,2.55 4.5,5.02 6.79,7.5 4.09,4.49 7.97,9.1 11.78,13.82 2.08,2.55 4.19,5.06 6.33,7.56 6.21,7.27 12.18,14.72 18.01,22.31 0.84,1.09 0.84,1.09 1.69,2.2 15.2,19.88 29.49,40.3 42.31,61.8 0.58,0.97 1.16,1.93 1.76,2.93 25.28,42.25 46.12,87.92 57.24,136.07 0.31,1.29 0.31,1.29 0.62,2.61 2.94,12.53 5.03,25.12 6.63,37.89 0.16,1.3 0.33,2.6 0.49,3.93 1.47,12.31 2.48,24.67 2.32,37.07 0,0.74 -0.01,1.48 -0.01,2.24 -0.01,1.75 -0.03,3.51 -0.05,5.26 h -13 c -0.06,-2.35 -0.06,-2.35 -0.11,-4.74 C 184.73,312.82 133.11,212.24 51.44,113.69 50.01,112.01 48.58,110.32 47.16,108.62 40.01,100.16 32.52,92.06 24.9,84.02 22.39,81.36 19.91,78.68 17.42,75.99 11.73,69.87 5.98,63.84 0,58 0.96,56.87 1.9136182,55.721958 2.8822014,54.605625 3.4669434,53.942269 4.0085478,53.363342 4.5585478,52.723342 5.7407663,51.429015 7.6337813,49.404319 8.8035589,48.178026 Z"
     fill="#353333"
     id="path6"
     style="fill:#000000;fill-opacity:1" />
  <path
     d="m 409.56364,8.5557942 c 0.49597,0.4762805 0.97061,0.9343735 1.42961,1.3794021 0.87257,0.8511177 1.11104,1.0848087 1.99089,1.9507107 0.58931,0.58291 0.77679,0.768791 1.37399,1.362231 1.38138,1.379053 2.6752,2.676398 4.01417,4.021801 1.74496,1.752243 1.5347,1.541801 3.42149,3.430852 -5.935,5.805 -5.46379,5.309209 -7.89379,7.659209 -0.52,0.51 -1.03,1.02 -1.56,1.54 -1.65,1.62 -3.31,3.24 -4.96,4.85 -2.17,2.12 -4.33,4.24 -6.48,6.36 -0.52,0.51 -1.04,1.03 -1.58,1.55 -3.44,3.41 -6.7,6.91 -9.83,10.6 -2.37,2.76 -4.87,5.4 -7.37,8.05 -4.53,4.87 -8.8,9.88 -12.97,15.07 -2.17,2.64 -4.41,5.16 -6.71,7.68 -4.38,4.81 -8.43,9.82 -12.44,14.94 l -2.52,3.18 c -35.97,45.38 -67.85,94.52 -91.04,147.7 -0.29,0.66 -0.58,1.32 -0.88,2.01 -3.4,7.82 -6.6,15.68 -9.5,23.7 C 245,278 245,278 243,279 c -1.22,-2.99 -2.39,-5.99 -3.56,-9 -0.52,-1.26 -0.52,-1.26 -1.04,-2.54 -3.16,-8.23 -2.41,-13.42 1.04,-21.37 1.03,-2.2 2.07,-4.4 3.12,-6.59 0.55,-1.16 1.1,-2.32 1.66,-3.52 1.58,-3.33 3.17,-6.66 4.78,-9.98 0.57,-1.19 0.57,-1.19 1.16,-2.4 1.87,-3.85 3.79,-7.67 5.75,-11.48 1.23,-2.4 2.44,-4.81 3.65,-7.22 18.12,-35.78 40.74,-69.35 65.44,-100.9 0.92,-1.17 1.83,-2.35 2.75,-3.52 8.46,-10.85 17.17,-21.46 26.16,-31.88 2.01,-2.34 4.01,-4.68 6,-7.04 6.6,-7.81 13.47,-15.32 20.5,-22.75 3.09,-3.27 6.13,-6.59 9.15,-9.93 6.25,-6.86 13.40364,-13.814206 20.00364,-20.3242058 z"
     fill="#656665"
     id="path7"
     style="fill:#626262;fill-opacity:1" />
</svg>
