<?xml version="1.0" encoding="UTF-8" standalone="no"?>
<!-- Generator: https://ezgif.com/png-to-svg -->

<svg
   version="1.1"
   width="458.4837"
   height="429"
   id="svg7"
   xmlns="http://www.w3.org/2000/svg"
   xmlns:svg="http://www.w3.org/2000/svg">
  <defs
     id="defs7" />
  <path
     d="m 57,0 c 1.1,0.94 2.21,1.88 3.31,2.82 0.92,0.78 0.92,0.78 1.86,1.58 2.72,2.38 5.28,4.91 7.83,7.48 l 1.58,1.58 c 3.4,3.44 6.64,6.99 9.78,10.68 1.8,2.04 3.7,3.95 5.64,5.86 3.19,3.15 6.17,6.41 9.09,9.81 2.22,2.55 4.5,5.02 6.79,7.5 4.07,4.47 7.92,9.05 11.71,13.75 2.71,3.3 5.49,6.53 8.29,9.75 5.93,6.89 11.57,13.98 17.12,21.19 0.61,0.79 1.23,1.59 1.86,2.4 8.18,10.58 16.2,21.22 23.63,32.34 1.72,2.58 3.47,5.14 5.21,7.71 13.47,19.89 25.95,40.38 37.3,61.55 0.48,0.89 0.96,1.79 1.46,2.71 C 228,233.35 226.63192,233.69202 228,239 h 2 c 0.35,-1.18 0.71,-2.37 1.07,-3.59 2.32,-6.94 5.6,-13.46 8.81,-20.03 0.33,-0.69 0.66,-1.37 1,-2.07 6.2,-12.74 12.93,-25.1 20.12,-37.31 0.95,-1.64 1.9,-3.27 2.84,-4.91 19.44,-33.26 42.29,-64.71 66.77,-94.4 1.26,-1.53 2.5,-3.06 3.74,-4.59 8.8,-10.89 18,-21.42 27.54,-31.67 2.68,-2.87 5.3,-5.77 7.86,-8.74 2.94,-3.41 6.09,-6.55 9.3,-9.71 1.82,-1.85 3.52,-3.75 5.2,-5.73 C 389.17,10.52 394.62,5.3 400,0 c 6.7,5.5 12.74,11.61 18.84,17.74 1.13,1.14 -15.0513,0.678814 -13.9213,1.818814 2.96,2.96 36.42635,35.960137 39.38635,38.930137 C 447.33505,61.528951 437.18,36.13 440.21,39.16 446.14,45.11 452.07,51.05 458,57 c -0.94,1.1 -1.88,2.21 -2.81,3.31 -0.53,0.62 -1.05,1.23 -1.59,1.86 -2.38,2.72 -4.95,5.24 -7.54,7.77 -4.01,3.95 -7.83,7.98 -11.49,12.27 -1.62,1.84 -3.32,3.57 -5.07,5.29 -3.04,2.99 -5.85,6.12 -8.62,9.34 -2.05,2.36 -4.15,4.67 -6.26,6.97 -3.89,4.32 -7.59,8.76 -11.24,13.28 -2.11,2.58 -4.25,5.12 -6.42,7.65 -5.43,6.35 -10.62,12.85 -15.65,19.52 -1.36,1.81 -2.74,3.61 -4.11,5.41 C 314.58,232.06 274.02,324.61 270,429 L 243.96666,421.43199 217.33694,421.26051 209,429 h -21 l -1,-26 c -0.35,-4.52 -0.71,-8.95 -1.25,-13.44 -0.13,-1.1 -0.26,-2.2 -0.39,-3.33 C 172.66,282.84 117.87,191.69 51.44,113.69 50.01,112.01 48.58,110.32 47.16,108.62 40.01,100.16 32.52,92.06 24.9,84.02 22.39,81.36 19.91,78.68 17.42,75.99 11.73,69.87 5.98,63.84 0,58 5.5,51.3 11.61,45.26 17.74,39.16 c 1.14,-1.13 2.27,-2.27 3.41,-3.4 2.96,-2.96 5.93,-5.92 8.9,-8.88 3.04,-3.03 6.08,-6.06 9.11,-9.09 C 45.11,11.86 51.05,5.93 57,0 Z"
     fill="#343333"
     id="path1"
     style="fill:#000000;fill-opacity:1" />
  <path
     d="M 437.57815,36.525878 C 442.29788,41.254539 446.8,45.67 451.44,50.38 c 0.63,0.64 1.27,1.28 1.93,1.94 1.54,1.56 3.09,3.12 4.63,4.68 -3.79,4.54 -7.71,8.81 -11.94,12.94 -4.01,3.95 -7.83,7.98 -11.49,12.27 -1.62,1.84 -3.32,3.57 -5.07,5.29 -3.04,2.99 -5.85,6.12 -8.62,9.34 -2.05,2.36 -4.15,4.67 -6.26,6.97 -3.89,4.32 -7.59,8.76 -11.24,13.28 -2.11,2.58 -4.25,5.12 -6.42,7.65 -5.43,6.35 -10.62,12.85 -15.65,19.52 -1.36,1.81 -2.74,3.61 -4.11,5.41 -58.77,77.33 -103.38,168.48 -106.76,267.02 -0.15,4.06 -0.29,8.12 -0.44,12.31 h -29 c -1.7,-99.26 39.65,-194.13 96,-274 0.53,-0.75 1.06,-1.5 1.6,-2.27 13.73,-19.41 28.54,-37.93 43.95,-56.03 1.47,-1.72 2.93,-3.45 4.4,-5.18 6.36,-7.5 12.91,-14.79 19.62,-21.98 2.23,-2.4 4.42,-4.85 6.62,-7.29 5.55,-6.08 11.37,-11.87 17.24,-17.64 0.7,-0.7 1.41,-1.4 2.14,-2.12 0.64,-0.62 1.27,-1.25 1.93,-1.89 1.59,-1.55 2.16815,-2.024123 3.07815,-4.074122 z"
     fill="#646764"
     id="path2"
     style="fill:#626262;fill-opacity:1" />
  <path
     d="M 420.98705,19.892137 C 423.93493,22.845954 427.46,26.05 430.81,29.38 c 0.61,0.57 1.22,1.15 1.85,1.74 0.57,0.57 1.15,1.13 1.73,1.72 0.79,0.76 0.79,0.76 1.59,1.54 1.02,1.62 2.53825,1.207249 2.51825,3.067249 C 434.17611,42.19561 433.31,43.04 430.9,45.36 c -0.52,0.51 -1.03,1.02 -1.56,1.54 -1.65,1.62 -3.31,3.24 -4.96,4.85 -2.17,2.12 -4.33,4.24 -6.48,6.36 -0.52,0.51 -1.04,1.03 -1.58,1.55 -3.44,3.41 -6.7,6.91 -9.83,10.6 -2.37,2.76 -4.87,5.4 -7.37,8.05 -4.44,4.78 -8.64,9.68 -12.73,14.77 -2.27,2.78 -4.61,5.47 -6.99,8.17 -7.03,7.98 -13.53,16.28 -19.92,24.79 -1.34,1.77 -2.69,3.54 -4.06,5.29 C 303.7,197.75 263.62,274.87 248,358 c -0.18,0.95 -0.37,1.89 -0.55,2.87 -4.26,22.47 -5.13,45.33 -6.45,68.13 H 217 C 216.42272,352.46477 235.38298,269.33346 283.00232,185.28902 298.0747,158.68745 318.67485,141.34572 339,112 c 0.48,-0.63 0.97,-1.25 1.47,-1.9 5.79,-7.49 11.76,-14.81 17.91,-22.01 2.43,-2.85 4.78,-5.74 7.12,-8.65 4.13,-5.08 8.51,-9.89 12.96,-14.68 1.99,-2.16 3.94,-4.34 5.85,-6.57 8.4,-9.67 17.3,-18.88 26.41,-27.87 1.89,-1.92 3.64,-3.86 5.34,-5.94 1.94,-2.38 2.92705,-3.487863 4.92705,-4.487863 z"
     fill="#1DFC00"
     id="path3"
     style="display:inline;fill:#ffffff;fill-opacity:1" />
  <path
     d="m 409.58701,8.5781773 c 1.17057,1.1282774 2.13382,2.0662727 3.13709,3.0512467 0.63364,0.62577 1.11833,1.106146 1.6703,1.654814 2.42533,2.425856 3.81412,3.821085 7.06635,7.0823 -0.85,0.66 -2.15075,1.953462 -3.02075,2.633462 -2.39,1.99 -4.43,4.06 -6.44,6.44 -3.46,4.07 -7.2,7.81 -11,11.56 -4.22,4.18 -8.34,8.36 -12.17,12.89 -1.99,2.3 -4.05,4.51 -6.13,6.73 -4.98,5.34 -9.74,10.76 -14.31,16.46 -2.27,2.77 -4.61,5.47 -6.99,8.17 -6.35,7.22 -12.29,14.67 -18.08,22.36 -2.83,3.77 -5.73,7.48 -8.65,11.18 -6.41,8.13 -12.1476,16.62856 -17.8976,25.23856 -1.59,2.37 -3.5024,4.53144 -5.1124,6.90144 -36.49,54.08 -65.71,112.45 -81.6,175.95 -0.18,0.74 -0.37,1.48 -0.56,2.24 -8.19,32.99 -11.16,66.02 -12.5,99.88 h -16 c -0.66,-18.83 1.13,-37.11 3.47,-55.76 0.35,-2.76 0.68,-5.51 0.98,-8.28 1.14,-9.99 3.01,-19.67 5.24,-29.46 0.17,-0.78 0.35,-1.56 0.53,-2.37 3.06,-13.55 6.5,-26.91 10.78,-40.13 0.33,-1.03 0.66,-2.05 1,-3.11 11.38,-34.92 26.75,-69.02 45,-100.89 0.43,-0.75 0.85,-1.5 1.29,-2.27 24.52,-42.85 53.96,-82.73 86.24,-120.02 1.46,-1.7 2.91,-3.42 4.36,-5.13 6.61,-7.82 13.48,-15.33 20.52,-22.77 3.09,-3.27 6.13,-6.59 9.15,-9.93 6.25,-6.86 13.42701,-13.791823 20.02701,-20.3018227 z"
     fill="#646764"
     id="path4"
     style="fill:#626262;fill-opacity:1" />
  <path
     d="m 20.166004,36.739376 c 4.976352,4.859935 5.073605,4.9677 8.544056,8.314764 5.658361,5.826476 5.941557,6.15877 10.287909,10.94336 5,4.92 9.86,9.86 14.42,15.18 2.26,2.6 4.61,5.11 6.96,7.63 4.25,4.61 8.26,9.35 12.19,14.24 2.29,2.78 4.65,5.49 7.03,8.2 6.98,7.93 13.44,16.16 19.78,24.61 1.600001,2.11 3.210001,4.2 4.840001,6.29 16.72,21.56 32.16,44.21 45.78,67.85 0.51,0.89 1.02,1.78 1.55,2.69 18.24,31.8 33.75,64.53 45.45,99.31 0.29,0.86 0.58,1.71 0.88,2.59 0.78,2.3 1.52,4.6 2.25,6.91 0.39,1.25 0.79,2.5 1.19,3.78 1.71,9.37 -1.5,19.09 -3.38,28.29 -0.29,1.4 -0.57,2.8 -0.85,4.21 -0.69,3.41 -1.39,6.81 -2.09,10.22 -2.01,-3.01 -2.5,-4.69 -3.19,-8.18 -0.22,-1.06 -0.43,-2.11 -0.66,-3.21 -0.35,-1.72 -0.35,-1.72 -0.71,-3.48 -6.86,-31.96 -18.36,-62.67 -32.44,-92.13 -0.7,-1.48 -0.7,-1.48 -1.43,-2.99 -14.28,-29.66 -31.02,-58.49 -50.57,-85.01 -1.25,-1.75 -2.49,-3.51 -3.74,-5.28 -8.750001,-12.37 -18.170001,-24.17 -27.770001,-35.9 -1.3,-1.59 -2.6,-3.19 -3.89,-4.79 -8.68,-10.69 -17.65,-21.1 -27,-31.21 -2.48,-2.69 -4.92,-5.4 -7.35,-8.13 -3.09,-3.45 -6.27,-6.74 -9.58,-9.98 -1.76,-1.8 -3.4,-3.67 -5.04,-5.58 -3.97,-4.62 -8.734909,-9.417844 -13.084909,-13.677844 2.305304,-2.378838 4.06828,-4.16687 6.358451,-6.463107 C 15.944218,40.947065 16.923451,39.97243 17.74,39.16 c 0.38559,-0.382911 1.083846,-1.079862 2.426004,-2.420624 z"
     fill="#656665"
     id="path5"
     style="fill:#626262;fill-opacity:1" />
  <path
     d="m 449.08164,48.056582 c 2.35836,2.323418 3.72107,3.730656 6.3229,6.339779 0.89824,0.900952 0.73443,0.736634 1.69561,1.700831 0.46063,0.458138 0.62303,0.625064 1.38354,1.401845 -0.51,0.5 -1.50369,1.510963 -2.02369,2.030963 -2.34,2.32 -4.68,4.64 -7.02,6.97 -0.8,0.79 -1.6,1.58 -2.43,2.4 -4.33,4.31 -8.51,8.68 -12.47,13.34 -1.61,1.84 -3.3,3.55 -5.04,5.26 -3.04,2.99 -5.85,6.12 -8.62,9.34 -2.05,2.36 -4.15,4.67 -6.26,6.97 -3.89,4.32 -7.59,8.76 -11.24,13.28 -2.11,2.58 -4.25,5.12 -6.42,7.65 -5.43,6.35 -10.62,12.85 -15.65,19.52 -1.36,1.81 -2.74,3.61 -4.11,5.41 -58.77,77.33 -103.39,168.48 -106.76,267.02 -0.05,1.19 -0.09,2.38 -0.13,3.6 -0.11,2.91 -0.21,5.81 -0.31,8.71 h -13 c -3.08,-66.68 19.26,-133.25 49,-192 0.48,-0.95 0.95,-1.91 1.44,-2.89 11.2,-22.34 24.4,-43.53 38.56,-64.11 0.52,-0.75 1.03,-1.5 1.57,-2.28 10.95,-15.88 22.75,-31.06 34.99,-45.96 1.28,-1.57 2.56,-3.14 3.83,-4.71 8.69,-10.71 17.67,-21.15 27.04,-31.27 2.3,-2.49 4.57,-5 6.82,-7.53 8.97,-9.99 19.20164,-20.833418 28.83164,-30.193418 z"
     fill="#353433"
     id="path6"
     style="fill:#000000;fill-opacity:1" />
  <path
     d="m 48,9 c 5.07,4.25 9.84,8.68 14.5,13.38 0.63,0.62 1.25,1.24 1.89,1.88 3.78,3.78 7.36,7.69 10.86,11.74 2.94,3.36 6.04,6.57 9.13,9.81 5.08,5.38 9.91,10.84 14.52,16.63 2.23,2.72 4.58,5.29 6.98,7.87 4.18,4.55 8.03,9.27 11.81,14.16 2.95,3.82 5.97,7.57 9.05,11.3 6.93,8.4 13.38,17.09 19.67,25.98 1.57,2.22 3.14,4.43 4.72,6.64 16.38,23 31.19,46.91 44.87,71.61 0.45,0.81 0.9,1.62 1.36,2.46 5.89,10.71 11.22,21.66 16.31,32.77 0.63,1.37 1.26,2.75 1.9,4.12 8.06,17.4 8.06,17.4 4.03,28.46 -0.51,1.33 -0.51,1.33 -1.04,2.69 -0.34,0.92 -0.67,1.84 -1.02,2.78 -0.83,2.25 -1.68,4.49 -2.54,6.72 -2.61,-1.31 -2.66,-2.28 -3.63,-4.99 -0.31,-0.84 -0.61,-1.68 -0.93,-2.55 -0.5,-1.37 -0.5,-1.37 -1,-2.77 -4.01,-10.8 -8.56,-21.26 -13.44,-31.69 -0.44,-0.96 -0.89,-1.92 -1.34,-2.91 -16.55,-35.71 -37.09,-69.45 -60.3,-101.22 l -2.94,-4.05 c -7.69,-10.63 -15.63,-20.99 -24,-31.1 -2.01,-2.43 -3.99,-4.89 -5.98,-7.34 C 93.62,81.83 85.55,72.52 77.21,63.43 75.36,61.39 73.55,59.34 71.75,57.25 60.74,44.62 48.505055,32.122784 36.595055,20.352784 c 1.11121,-1.109775 1.949356,-1.94733 3.008757,-3.005123 0.6545,-0.65239 0.819668,-0.817037 1.706287,-1.700932 C 43.400099,13.256729 45.72,11.21 48,9 Z"
     fill="#656665"
     id="path7"
     style="fill:#626262;fill-opacity:1" />
</svg>
