<!-- icon666.com - MILLIONS vector ICONS FREE --><svg xmlns="http://www.w3.org/2000/svg" id="Icons" viewBox="0 0 60 60"><path d="M59.513,10.539a5,5,0,0,0-.978-1.418L50.879,1.465A5,5,0,0,0,49.461.487a.979.979,0,0,0-.1-.054A4.976,4.976,0,0,0,47.343,0H19a3,3,0,0,0-3,3V31H4a4,4,0,0,0-4,4V49a4,4,0,0,0,4,4H16v4a3,3,0,0,0,3,3H57a3,3,0,0,0,3-3V12.657a4.976,4.976,0,0,0-.433-2.017A.979.979,0,0,0,59.513,10.539ZM56.586,10H51a1,1,0,0,1-1-1V3.414ZM2,49V35a2,2,0,0,1,2-2H36a2,2,0,0,1,2,2V49a2,2,0,0,1-2,2H4A2,2,0,0,1,2,49Zm56,8a1,1,0,0,1-1,1H19a1,1,0,0,1-1-1V53H36a4,4,0,0,0,4-4V35a4,4,0,0,0-4-4H18V3a1,1,0,0,1,1-1H47.343A3,3,0,0,1,48,2.078V9a3,3,0,0,0,3,3h6.922a3,3,0,0,1,.078.657Z"></path><path d="M11.929,36.629a1,1,0,0,0-1.858,0l-4,10a1,1,0,0,0,1.858.742L8.877,45h4.246l.948,2.371A1,1,0,0,0,15,48a.986.986,0,0,0,.371-.071,1,1,0,0,0,.558-1.3ZM9.677,43,11,39.692,12.323,43Z"></path><path d="M19,48a1,1,0,0,0,1-1V44h1a4,4,0,0,0,0-8H19a1,1,0,0,0-1,1V47A1,1,0,0,0,19,48Zm4-8a2,2,0,0,1-2,2H20V38h1A2,2,0,0,1,23,40Z"></path><path d="M27,46a1,1,0,0,0,0,2h4a1,1,0,0,0,0-2H30V38h1a1,1,0,0,0,0-2H27a1,1,0,0,0,0,2h1v8Z"></path><path d="M22,12H42a1,1,0,0,0,0-2H22a1,1,0,0,0,0,2Z"></path><path d="M22,17H49a1,1,0,0,0,0-2H22a1,1,0,0,0,0,2Z"></path><path d="M54,20H33a1,1,0,0,0,0,2H54a1,1,0,0,0,0-2Z"></path><path d="M45,26a1,1,0,0,0-1-1H22a1,1,0,0,0,0,2H44A1,1,0,0,0,45,26Z"></path><path d="M54,25H48a1,1,0,0,0,0,2h6a1,1,0,0,0,0-2Z"></path><path d="M54,30H42a1,1,0,0,0,0,2H54a1,1,0,0,0,0-2Z"></path><path d="M43,37h3a1,1,0,0,0,0-2H43a1,1,0,0,0,0,2Z"></path><path d="M54,40H43a1,1,0,0,0,0,2H54a1,1,0,0,0,0-2Z"></path><path d="M54,45H43a1,1,0,0,0,0,2H54a1,1,0,0,0,0-2Z"></path><path d="M48,50H43a1,1,0,0,0,0,2h5a1,1,0,0,0,0-2Z"></path><path d="M22,22h7a1,1,0,0,0,0-2H22a1,1,0,0,0,0,2Z"></path><path d="M54,15H53a1,1,0,0,0,0,2h1a1,1,0,0,0,0-2Z"></path><path d="M54,35H50a1,1,0,0,0,0,2h4a1,1,0,0,0,0-2Z"></path></svg>