<?xml version="1.0" encoding="UTF-8" standalone="no"?>
<!-- icon666.com - MILLIONS OF FREE VECTOR ICONS -->

<svg
   id="OBJECT"
   viewBox="0 0 512 512"
   version="1.1"
   sodipodi:docname="demo.svg"
   inkscape:version="1.4.2 (ebf0e940d0, 2025-05-08)"
   xmlns:inkscape="http://www.inkscape.org/namespaces/inkscape"
   xmlns:sodipodi="http://sodipodi.sourceforge.net/DTD/sodipodi-0.dtd"
   xmlns="http://www.w3.org/2000/svg"
   xmlns:svg="http://www.w3.org/2000/svg">
  <defs
     id="defs12" />
  <sodipodi:namedview
     id="namedview12"
     pagecolor="#ffffff"
     bordercolor="#000000"
     borderopacity="0.25"
     inkscape:showpageshadow="2"
     inkscape:pageopacity="0.0"
     inkscape:pagecheckerboard="0"
     inkscape:deskcolor="#d1d1d1"
     inkscape:zoom="3.3919028"
     inkscape:cx="386.65613"
     inkscape:cy="73.262713"
     inkscape:window-width="1895"
     inkscape:window-height="1211"
     inkscape:window-x="0"
     inkscape:window-y="0"
     inkscape:window-maximized="0"
     inkscape:current-layer="OBJECT" />
  <path
     d="M 494.5,0 H 67.5 C 57.839586,0.01585653 50.011022,4.7193639 50,18.617619 V 187.0282 H 17.5 C 7.8395845,187.04406 0.01101971,191.7479 0,205.64616 V 493.38237 C 0.01101971,507.28064 7.8395845,511.98415 17.5,512 H 126 c 9.66042,-0.0159 17.48898,-4.71936 17.5,-18.61763 V 440.066 h 351 c 9.66041,-0.0159 17.48898,-4.71942 17.5,-18.61767 V 18.617619 C 511.98898,4.7193639 504.16041,0.01585653 494.5,0 Z m -427,15.0213 427,-3.83e-4 c 1.38071,-1e-6 2.5,1.610299 2.5,3.596702 V 57.568 H 65 V 18.617619 c 0,-1.986403 1.119288,-3.596318 2.5,-3.596319 z m 61,478.36107 c 0,1.98641 -1.11929,3.59671 -2.5,3.59671 L 17.5,496.9787 c -1.380712,0 -2.5,-1.60992 -2.5,-3.59633 V 205.64616 c 0,-1.98641 1.119288,-3.59666 2.5,-3.59666 l 108.5,-4e-5 c 1.38071,0 2.5,1.61029 2.5,3.5967 z m 366,-68.33767 -351,3.3e-4 V 205.64616 C 143.489,191.7479 135.66042,187.04406 126,187.0282 H 65 V 72.568 l 432,1.6e-4 v 348.88017 c 0,1.9864 -1.11929,3.59637 -2.5,3.59637 z"
     id="path1"
     style="stroke-width:1.19945"
     sodipodi:nodetypes="cccccccccccccccsssccssssssssssssccccccss" />
  <path
     d="m106.75 393.5h-70a7.5 7.5 0 0 0 0 15h70a7.5 7.5 0 0 0 0-15z"
     id="path2" />
  <path
     d="m106.75 323.5h-70a7.5 7.5 0 0 0 0 15h70a7.5 7.5 0 0 0 0-15z"
     id="path3" />
  <path
     d="m106.75 358.5h-40a7.5 7.5 0 0 0 0 15h40a7.5 7.5 0 0 0 0-15z"
     id="path4" />
  <path
     d="m106.75 233.5h-70a7.5 7.5 0 0 0 -7.5 7.5v50a7.5 7.5 0 0 0 7.5 7.5h70a7.5 7.5 0 0 0 7.5-7.5v-50a7.5 7.5 0 0 0 -7.5-7.5zm-7.5 50h-55v-35h55z"
     id="path5" />
  <path
     d="m36.75 373.5h4.75a7.5 7.5 0 0 0 0-15h-4.75a7.5 7.5 0 0 0 0 15z"
     id="path6" />
  <path
     d="m235.25 293.5h-30a17.52 17.52 0 0 0 -17.5 17.5v20a17.52 17.52 0 0 0 17.5 17.5h30a17.52 17.52 0 0 0 17.5-17.5v-20a17.52 17.52 0 0 0 -17.5-17.5zm2.5 37.5a2.5 2.5 0 0 1 -2.5 2.5h-30a2.5 2.5 0 0 1 -2.5-2.5v-20a2.5 2.5 0 0 1 2.5-2.5h30a2.5 2.5 0 0 1 2.5 2.5z"
     id="path7" />
  <path
     d="m335.25 293.5h-30a17.52 17.52 0 0 0 -17.5 17.5v20a17.52 17.52 0 0 0 17.5 17.5h30a17.52 17.52 0 0 0 17.5-17.5v-20a17.52 17.52 0 0 0 -17.5-17.5zm2.5 37.5a2.5 2.5 0 0 1 -2.5 2.5h-30a2.5 2.5 0 0 1 -2.5-2.5v-20a2.5 2.5 0 0 1 2.5-2.5h30a2.5 2.5 0 0 1 2.5 2.5z"
     id="path8" />
  <path
     d="m435.25 293.5h-30a17.52 17.52 0 0 0 -17.5 17.5v20a17.52 17.52 0 0 0 17.5 17.5h30a17.52 17.52 0 0 0 17.5-17.5v-20a17.52 17.52 0 0 0 -17.5-17.5zm2.5 37.5a2.5 2.5 0 0 1 -2.5 2.5h-30a2.5 2.5 0 0 1 -2.5-2.5v-20a2.5 2.5 0 0 1 2.5-2.5h30a2.5 2.5 0 0 1 2.5 2.5z"
     id="path9" />
  <path
     d="m360.25 153.5h-80a17.52 17.52 0 0 0 -17.5 17.5v80a17.52 17.52 0 0 0 17.5 17.5h80a17.52 17.52 0 0 0 17.5-17.5v-80a17.52 17.52 0 0 0 -17.5-17.5zm2.5 97.5a2.5 2.5 0 0 1 -2.5 2.5h-80a2.5 2.5 0 0 1 -2.5-2.5v-80a2.5 2.5 0 0 1 2.5-2.5h80a2.5 2.5 0 0 1 2.5 2.5z"
     id="path10" />
  <path
     d="m425.55 175.7a7.5 7.5 0 0 0 -10.55 10.6l24.64 24.7-24.64 24.7a7.5 7.5 0 1 0 10.6 10.6l30-30a7.49 7.49 0 0 0 0-10.6z"
     id="path11" />
  <path
     d="m220.25 248.5a7.5 7.5 0 0 0 5.3-12.8l-24.69-24.7 24.69-24.7a7.5 7.5 0 0 0 -10.55-10.6l-30 30a7.49 7.49 0 0 0 0 10.6l30 30a7.44 7.44 0 0 0 5.25 2.2z"
     id="path12" />
</svg>
